<svg xmlns="http://www.w3.org/2000/svg" width="259" height="232" fill="none" viewBox="0 0 259 232">
  <path fill="#3FB1B5" d="M59.08 65.152c-5.714 0-9.742-3.584-10.117-8.914-.28-3.125.656-5.974 2.436-8.548 1.874-2.573 5.996-4.503 9.274-2.573.282.184.656.276 1.031.368 4.31.46 8.15 5.146 8.057 10.017-.094 4.688-4.029 8.731-9.087 9.467-.563.092-1.218.183-1.593.183Zm45.899-28.826c-6.514 0-10.762-5.215-9.252-11.547.472-2.142 1.51-4.098 3.116-5.588 1.793-1.676 3.87-2.514 6.419-1.862 1.133.28 2.266.28 3.304.559 3.776.745 6.42 2.98 7.364 6.704 1.039 3.725-.378 6.705-3.21 9.126-2.171 1.863-4.815 2.608-7.741 2.608ZM41.696 92.282c-.096 6.507-6.127 10.683-11.967 8.158-8.042-3.399-8.807-12.236-5.265-17.87.861-1.359 2.106-2.233 3.638-2.718 1.34-.389 2.776-.486 3.733.388 1.532 1.457 3.447 1.942 5.074 3.01 2.968 1.943 4.787 5.342 4.787 9.032Zm13.323 97.787c-6.943 0-12.079-5.472-11.698-11.794.285-4.434 3.138-6.604 7.513-5.566.666.188 1.332.094 1.997.188 1.237.095 2.568.095 3.805.283 4.374.755 7.513 4.246 7.513 8.398 0 3.868-3.139 7.453-7.323 8.397-.666 0-1.427 0-1.807.094Zm-17.332-55.122c0 3.417-1.05 6.265-3.34 8.542-3.15 3.133-7.73 3.417-11.166.57-4.294-3.417-5.248-10.535-2.004-14.806 2.386-3.132 5.822-3.702 9.448-2.943 3.722.76 5.917 3.227 6.776 6.929.19.664.286 1.329.286 1.708Zm100.233 69.184c0-4.886 3.679-8.457 8.868-8.457 6.037 0 10.377 3.947 10.377 9.491 0 4.886-4.246 8.833-9.434 8.926-5.566 0-9.811-4.322-9.811-9.96Zm-40.41 8.358c-5.998 0-11.805-5.62-11.71-11.423 0-4.054 3.237-6.265 7.235-5.067.952.276 2.095.276 3.142.276 4.379-.184 7.616 1.751 9.044 5.343 2.19 5.436-1.618 10.963-7.711 10.871Zm113.379-26.145c0 4.244-3.499 8.005-7.848 8.488-3.783.385-7.754-1.929-9.173-5.498-.945-2.315-.851-4.533.568-6.558.094-.193.283-.386.378-.579 3.215-4.533 8.037-5.401 12.671-2.315 2.175 1.543 3.404 3.858 3.404 6.462Zm-73.772-156.44c0-2.003.476-3.625 1.522-5.15 1.903-2.862 4.948-3.625 7.992-2.003 1.237.667 2.379 1.335 3.52 2.193 2.474 2.003 3.52 4.578 2.759 7.726-.761 3.242-2.949 5.245-6.279 5.913-3.139.572-5.708-.572-7.611-3.052-1.332-1.717-1.903-3.624-1.903-5.627Zm92.905 106.517c5.089-.094 9.026 4.003 8.93 8.378-.096 2.607-1.056 4.748-3.073 6.517-4.225 3.724-10.659 1.769-11.907-3.631-.288-1.21-.384-2.607 0-3.724.576-1.862 1.537-3.724 2.497-5.492.96-1.49 2.593-2.048 3.553-2.048Zm-72.584-44.184c0-.284-.096-.662-.096-1.04-.191-3.125 1.531-5.207 4.496-5.87 4.113-.852 8.705 1.893 9.566 5.774.956 4.071-1.722 8.047-5.931 9.088-4.304 1.042-8.991-2.177-8.226-7.005.095-.284.095-.568.191-.947ZM81.79 75.32c.09-2.916.82-5.173 2.643-6.867 3.1-2.916 7.385-1.881 8.753 1.6.364.846.82 1.599 1.276 2.351 1.277 2.54 1.368 5.08-.273 7.432-1.55 2.257-3.738 3.292-6.474 2.822-2.917-.47-4.65-2.352-5.561-5.08-.183-.94-.274-1.787-.365-2.258Zm35.916 83.52c2.477 1.138 5.688 1.896 7.432 5.026 1.376 2.56.825 5.69-1.285 7.965-2.202 2.276-5.413 2.845-8.074 1.518-3.853-1.992-5.505-7.492-3.394-11.38 1.009-1.991 2.752-3.129 5.321-3.129Zm41.243 8.007c-4.181 0-7.585-3.459-7.39-7.591a11.878 11.878 0 0 1 1.361-4.804c1.167-2.306 3.403-3.171 5.834-2.691a11.74 11.74 0 0 1 4.668 1.922c2.917 1.922 3.987 5.093 3.014 7.976-.972 3.075-4.181 5.188-7.487 5.188Zm-93.998-62.013c0-2.094.568-3.903 2.081-5.33 2.365-2.19 5.77-2 7.757.475a24.948 24.948 0 0 0 2.082 2.38c1.135 1.142 1.986 2.475 2.364 4.093.946 4.474-2.743 8.281-7.189 7.425-3.879-.667-7-4.665-7.095-9.043Zm119.409-48.49c-2.826 0-5.262-1.654-5.945-4.319-.292-1.194-.779-2.297-1.656-3.308-2.046-2.297-1.267-5.514 1.559-6.892.585-.276 1.267-.551 1.949-.643 4.58-.552 10.037 3.4 10.524 7.719.487 3.951-2.534 7.443-6.431 7.443Zm-63.28 8.833c0 2.181-.37 3.817-1.479 5.362-2.311 3.272-6.84 3.545-9.521.455-2.218-2.454-2.403-5.908-.647-8.635.37-.636.74-1.272 1.017-1.908 1.479-3.636 5.639-4.454 8.319-1.545 1.849 1.908 2.311 4.18 2.311 6.27Zm92.212 11.114c0 3.457-2.629 6.186-6.103 6.459-3.756.272-7.043-2.365-7.418-6.095-.188-1.364-.094-2.729 0-4.093.281-2.365 2.253-4.002 4.788-4.184 4.226-.364 8.827 3.82 8.733 7.913Zm20.85 28.15c0 3.557-2.91 6.74-6.693 7.114-3.492.375-6.887-1.872-7.566-5.242-.485-2.247.097-4.493 1.067-6.459.388-.843 1.455-1.591 2.328-2.06 4.559-2.152 10.864 1.686 10.864 6.647Zm-44.904 23.811c0 3.112-1.981 5.752-5 6.412-2.83.66-5.66-.849-6.98-3.678-.378-.754-.849-1.602-1.415-2.262-1.981-2.735-1.038-6.318 2.075-7.732 4.905-2.169 11.32 1.98 11.32 7.26Zm-45.706-56.028c0 .28 0 .654-.09 1.121-.452 3.177-2.617 5.42-5.415 5.42-2.707 0-4.963-2.056-5.504-5.046-.271-1.682-.632-3.364-.902-5.046-.361-1.963.09-3.738 1.714-4.953 1.715-1.308 3.519-1.215 5.324-.187 2.436 1.308 4.873 5.514 4.873 8.69Zm-51.318 73.625c-.187 2.565-1.399 4.735-3.916 5.919-2.517 1.184-4.94.789-7.085-1.184-2.517-2.269-3.356-6.511-1.957-9.766 1.398-3.256 4.847-4.538 7.924-2.861 3.17 1.677 5.034 4.538 5.034 7.892Zm22.354-39.95c-.092 1.462-.092 2.436-.183 3.313-.367 2.339-1.648 3.898-3.845 4.58-2.106.585-3.937-.097-5.31-1.754-2.563-2.924-2.289-7.99.275-10.719 1.739-1.754 4.211-2.241 6.316-1.169 2.014.974 2.93 3.021 2.838 5.554-.091.292-.091.487-.091.195Zm24.142 34.327c0 2.319-1.819 4.281-4.405 4.816-2.49.535-4.692-.089-6.512-1.873-1.724-1.784-2.298-3.835-1.628-6.154.575-1.962 2.011-3.211 4.118-3.657 2.011-.446 3.735.178 5.171 1.605.575.625 1.245 1.249 1.82 1.873 1.053.982 1.532 2.052 1.436 3.39Zm-24.043-9.714c-.098 3.128-1.071 4.986-3.212 6.061-2.14 1.076-4.281.783-6.129-.684-2.822-2.151-3.503-6.55-1.654-9.581 2.238-3.618 7.102-3.618 9.243.098.876 1.368 1.362 3.128 1.752 4.106Zm34.478-17.827c0 2.869-1.682 5.26-4.255 5.93-2.573.669-5.343-.479-6.729-2.965-.89-1.531-1.286-3.252-.89-5.07.494-2.296 1.88-3.826 4.255-4.4 2.276-.574 4.156.191 5.739 1.817 1.286 1.244 1.781 2.965 1.88 4.688Zm-15.051-10.698c-3.037 0-5.797-2.97-5.797-6.227 0-2.873 2.116-5.076 4.877-4.98 3.588 0 6.349 2.49 6.349 5.555 0 2.97-2.485 5.652-5.429 5.652Z"/>
  <path fill="#fff" stroke="#FFCF2D" stroke-miterlimit="10" stroke-width="6" d="M80.94 149.66h103.696a6.79 6.79 0 0 0 6.308-4.256l28.377-70.033c1.35-3.35-1.118-7.015-4.726-7.015H110.898a6.79 6.79 0 0 0-6.308 4.255l-28.377 70.033c-1.37 3.35 1.098 7.016 4.726 7.016Z"/>
  <path fill="#FFCF2D" d="M85.75 150.165h98.928a6.495 6.495 0 0 0 6.013-4.045l27.068-66.809c1.287-3.202-1.055-6.679-4.515-6.679h-98.928a6.495 6.495 0 0 0-6.013 4.045l-27.068 66.809c-1.287 3.203 1.076 6.679 4.514 6.679Z"/>
  <path fill="#fff" d="M146.49 119.784c2.912 0 5.654-1.138 7.722-3.202a8.827 8.827 0 0 0 2.616-6.279 8.751 8.751 0 0 0-2.616-6.278 7.249 7.249 0 0 0-5.148-2.128 7.25 7.25 0 0 0-5.148 2.128 5.982 5.982 0 0 0 0 8.469 4.97 4.97 0 0 0 7.026 0 .84.84 0 0 0 0-1.201.842.842 0 0 0-1.203 0 3.274 3.274 0 0 1-4.641 0 4.293 4.293 0 0 1 0-6.088 5.588 5.588 0 0 1 3.966-1.644c1.498 0 2.912.59 3.966 1.644a7.11 7.11 0 0 1 2.11 5.098 7.238 7.238 0 0 1-2.11 5.099 9.134 9.134 0 0 1-6.519 2.697c-2.468 0-4.789-.949-6.519-2.697a.842.842 0 0 0-1.203 0 .84.84 0 0 0 0 1.201 10.849 10.849 0 0 0 7.701 3.181Z"/>
  <path fill="#fff" stroke="#FFCF2D" stroke-miterlimit="10" stroke-width="6" d="M43.828 157.076h140.681a2.924 2.924 0 0 0 2.932-2.928v-1.412a2.925 2.925 0 0 0-2.932-2.929H43.828a2.925 2.925 0 0 0-2.933 2.929v1.412c.021 1.622 1.33 2.928 2.933 2.928Z"/>
</svg>
