<svg xmlns="http://www.w3.org/2000/svg" width="192" height="272" fill="none" viewBox="0 0 192 272">
  <path fill="#9A3B82" d="M91.326 0c-.731.21-1.515.419-2.246.628-4.544 1.099-8.41 3.401-11.91 6.384-4.805 4.134-8.932 8.896-12.85 13.867-7.102 9.157-13.37 18.943-19.22 28.937-12.38 21.245-23.245 43.223-32.333 66.091-4.18 10.465-7.261 21.297-9.141 32.443-1.62 9.576-2.299 19.204-1.776 28.885.574 11.669 2.716 23.024 7.26 33.804 3.186 7.64 7.417 14.599 13.11 20.669a45.762 45.762 0 0 0 1.62 1.57c.052.053.157.053.366.053-.157-1.204-.261-2.303-.418-3.454-.575-4.971-.522-9.942-.052-14.913.574-6.175 1.88-12.245 3.708-18.158.157-.524.157-1.152 0-1.727-1.88-8.53-2.56-17.111-2.141-25.798.835-17.844 5.693-34.641 13.842-50.392C51 96.022 67.507 77.236 88.924 62.846c7.886-5.285 16.244-9.785 25.28-12.873 2.769-.942 5.642-1.57 8.462-2.25.888-.21 1.829-.21 2.717-.21.365 0 .783.158 1.149.263v.261c-.209.105-.47.314-.679.314-8.201.837-15.671 3.925-22.931 7.64-12.484 6.332-23.505 14.704-33.43 24.542-14.051 13.92-25.23 29.879-33.012 48.089-4.492 10.466-7.417 21.298-8.828 32.601-1.201 9.994-1.097 19.937.68 29.879.104.471.208.89.313 1.622.209-.471.365-.732.47-.994 3.917-10.309 9.298-19.728 16.14-28.362.47-.628.575-1.203.575-1.936-.105-3.611-.418-7.221-.157-10.78 1.254-18.628 7.992-34.85 21.625-47.88 6.843-6.488 14.835-10.989 24.028-13.082 9.977-2.25 19.588-1.36 28.676 3.611 1.359.733 2.664 1.622 4.023 2.46a199.93 199.93 0 0 1 4.701-2.198c.522-.21.47-.68.47-1.047.052-1.78.104-3.61.104-5.39-.104-7.221-.052-14.495-.365-21.716-.314-8.843-1.097-17.687-2.873-26.426-1.045-5.232-2.664-10.256-4.963-15.122-.209-.419-.365-.838-.365-1.309.156.262.365.524.47.785 2.925 5.704 4.858 11.722 6.059 18.001 1.358 7.012 2.089 14.076 2.56 21.14.679 9.525.731 19.048.626 28.624v1.256c0 .052.053.157.157.314.47-.157.992-.314 1.515-.523 5.746-2.093 11.648-3.297 17.812-3.088 14.939.419 26.43 7.117 34.526 19.676 4.179 6.541 6.425 13.762 7.209 21.454 1.306 12.507-1.306 24.333-6.634 35.583-1.567 3.297-3.5 6.437-5.38 9.629-.418.784-.522 1.36-.261 2.197 2.298 7.012 2.873 14.234 2.089 21.559-1.671 16.065-8.253 30.037-18.386 42.438-6.373 7.745-13.842 14.181-22.722 18.891-5.798 3.087-11.962 5.18-18.543 5.808-7.731.733-15.148-.523-22.095-4.186-.888-.471-1.515-.419-2.35.105-6.948 4.552-14.417 7.692-22.618 9.052-10.5 1.727-20.58.524-29.879-4.971-7.991-4.709-13.476-11.617-17.132-20.094a51.06 51.06 0 0 1-2.82-8.686c-.158-.628-.314-1.151-.837-1.622-7.47-6.803-12.797-15.071-16.662-24.333-3.187-7.692-5.172-15.698-6.32-23.966-1.359-9.628-1.411-19.257-.523-28.937 1.463-15.594 5.432-30.508 11.335-44.95 10.499-25.693 22.878-50.444 37.66-73.94 5.328-8.477 11.074-16.64 17.656-24.228a85.464 85.464 0 0 1 9.298-9.157C80.93 2.983 85.737.628 91.326 0Zm86.865 174.252c.105 0 .262.053.366.053.261-.367.522-.733.731-1.099 1.567-2.878 3.239-5.652 4.649-8.634 5.224-11.251 7.731-23.025 6.164-35.479-1.045-8.163-3.761-15.698-8.723-22.291-7.627-10.152-17.76-15.594-30.453-16.17-6.738-.314-13.215 1.047-19.483 3.454-.679.261-.888.628-.888 1.308 0 1.78-.052 3.506-.157 5.285-.052.68.209 1.204.627 1.675 2.925 3.401 5.171 7.169 6.947 11.303 1.776 4.081 2.977 8.32 3.709 12.715.104.681.365 1.099 1.097 1.308.835.21 1.671.576 2.455.89 8.096 3.14 15.252 7.744 20.998 14.338 7.26 8.32 10.812 18.158 11.491 29.094.105.733.366 1.518.47 2.25Zm-55.786-77.445a1.376 1.376 0 0 0-.209-.262 2.85 2.85 0 0 0-.418-.314c-5.536-3.663-11.596-5.651-18.229-6.07-8.514-.47-16.506 1.57-23.976 5.6-9.559 5.18-16.872 12.663-22.356 21.977-7.574 12.82-10.76 26.74-9.977 41.601 0 .418.105.785.157 1.203.157-.052.261-.052.313-.104.261-.262.523-.576.731-.838 11.126-12.768 24.342-22.71 40.117-29.042.626-.261.992-.68 1.358-1.203 2.037-2.983 4.022-6.07 6.216-8.948 7.103-9.367 15.513-17.321 25.699-23.234.209-.157.365-.261.574-.366Zm55.63 81.789c-.105 0-.157.052-.262.052-.052.366-.156.732-.156 1.099-.209 2.982-.679 5.913-1.463 8.791-4.753 18.105-15.252 31.972-31.027 41.862-7.313 4.553-15.304 7.274-24.028 7.222-.679 0-.94.366-1.201.889-4.649 8.477-10.969 15.542-18.7 21.35-.313.209-.574.471-.94.785.47.262.836.471 1.201.628 7.522 3.715 15.462 4.605 23.662 3.087 7.157-1.308 13.686-4.238 19.745-8.268 10.395-6.907 18.595-15.907 24.916-26.582 6.32-10.728 10.133-22.292 10.499-34.798.156-5.076-.47-10.1-1.881-15.019-.104-.418-.209-.785-.365-1.098Zm-36.617-25.38-.208.838a109.367 109.367 0 0 1-4.179 15.75c-3.03 8.949-7 17.478-11.701 25.641-.365.628-.574 1.151-.365 1.884 1.358 4.553 2.037 9.21 1.985 13.972 0 .314.052.627.104.941.157 0 .261.053.314.053.365-.105.731-.157 1.096-.314 18.7-5.599 33.848-16.327 45.862-31.659 1.828-2.354 1.776-2.354 1.828-5.337 0-.837-.052-1.622-.47-2.407-6.268-12.088-16.192-18.577-29.773-19.362-1.411-.104-2.925 0-4.493 0Zm-37.765 18.682c.366-.419.679-.785 1.045-1.152 4.91-5.442 10.551-9.89 17.028-13.291.836-.419 1.933-.733 2.403-1.465.47-.733.418-1.832.522-2.774.941-8.215 1.829-16.483 2.717-24.698.104-.838.104-1.727.156-2.669a4.49 4.49 0 0 1-.679-.157c-1.776-.105-3.604-.262-5.38-.262-10.238-.104-20.058 1.779-29.669 5.233-.836.314-1.41.785-1.828 1.57-7.365 12.611-12.484 26.059-15.514 40.345-.052.261-.052.575-.104.994 9.61-4.657 19.274-5.756 29.303-1.674Zm-15.618-39.403a25.802 25.802 0 0 0-.156-.157c-.47.209-.94.366-1.359.575a99.404 99.404 0 0 0-21.05 12.507c-6.268 4.814-11.91 10.256-16.976 16.274-.627.732-.836 1.465-.68 2.407.157.889.314 1.831.47 2.721 1.307 7.326 3.762 14.233 7.523 20.617.208.366.47.733.73 1.204.262-.314.47-.471.575-.681 4.127-5.128 8.932-9.471 14.626-12.872.575-.314.784-.785.888-1.361 2.925-14.286 7.835-27.838 15.043-40.502.157-.261.262-.523.366-.732Zm33.117 103.609h1.201c5.432-.157 10.551-1.517 15.514-3.663 7.887-3.454 14.625-8.529 20.475-14.809 8.567-9.209 14.417-19.832 16.872-32.234.261-1.203.418-2.407.575-3.558-12.955 15.96-29.095 26.949-48.787 32.443-.522 7.588-2.455 14.757-5.85 21.821Zm-94.179 2.198c.053.418.105.628.157.837.679 2.041 1.306 4.082 2.09 6.018 3.499 8.372 8.931 15.175 16.819 19.78 8.67 5.076 18.02 6.331 27.84 4.814 8.097-1.204 15.514-4.291 22.357-8.634.261-.157.47-.366.783-.628-1.305-.942-2.559-1.779-3.813-2.669-1.88 1.204-3.917 1.518-6.007 1.465-1.305-.052-2.611-.104-3.865-.314-8.514-1.412-16.245-4.709-22.879-10.308-.522-.419-.992-.628-1.671-.524-3.657.367-7.365.105-10.97-.47-7.312-1.256-13.841-4.239-19.796-8.635-.261-.209-.575-.418-1.045-.732Zm64.092-24.908c-1.41-7.431-.731-14.495 1.41-21.455 2.142-6.959 5.694-13.186 10.186-18.786-.105-.157-.157-.261-.209-.261-.157-.105-.314-.157-.47-.21a29.285 29.285 0 0 0-10.134-2.145c-6.059-.209-11.752 1.361-17.132 4.082-.627.314-.94.732-.993 1.412-.47 3.663-1.15 7.379-1.515 11.042-.627 5.599-.835 11.198-.522 16.797.052.785.313 1.204.94 1.622a57.768 57.768 0 0 0 9.037 4.867c2.977 1.203 6.007 2.25 9.402 3.035ZM46.3 224.906c.104-.052.157-.105.261-.105-1.88-12.82 1.62-24.228 8.88-34.693-4.91-7.797-7.835-16.274-9.193-25.536-.418.523-.68.785-.888 1.046-1.202 1.622-2.403 3.245-3.5 4.867-5.067 7.483-9.089 15.489-12.118 24.018-.262.785-.314 1.518-.105 2.303.94 3.453 2.09 6.907 3.5 10.204 2.455 5.651 5.693 10.832 10.081 15.175 1.045.942 2.09 1.779 3.082 2.721Zm28.572 5.494c-.104-.418-.209-.732-.313-1.046-2.35-7.379-3.709-14.914-4.231-22.658-.052-.785-.418-1.204-.993-1.622a56.733 56.733 0 0 1-12.432-12.821c-.209-.314-.47-.575-.73-.889-.262.366-.523.68-.732.994-2.664 4.029-4.754 8.372-6.111 13.029-1.933 6.541-2.508 13.135-1.254 19.833.157.837.522 1.308 1.201 1.779 5.12 3.192 10.656 4.762 16.663 4.709 2.978-.052 5.903-.418 8.932-1.308Zm-16.976 16.17c-.105-.21-.105-.262-.105-.314-.104-.105-.209-.262-.313-.367-4.753-4.971-8.2-10.727-9.977-17.425-.156-.575-.47-.942-.888-1.256-4.074-2.878-7.365-6.541-10.133-10.675-3.343-4.971-5.694-10.361-7.47-16.064-.104-.419-.26-.785-.418-1.204-.365.471-.47.89-.626 1.308-1.463 5.442-2.455 10.937-2.821 16.536-.418 5.861-.157 11.721.94 17.478.105.627.366 1.151.888 1.569 8.619 7.065 18.439 10.832 29.67 10.518.313 0 .73-.052 1.253-.104Zm46.541-72.998c-.418.523-.732.837-.993 1.204a55.588 55.588 0 0 0-6.163 9.733c-3.866 7.849-6.007 16.117-5.12 24.96.157 1.465.418 2.878.627 4.396 1.829.261 3.5.523 5.224.837.731.157 1.254-.157 1.724-.68 7.574-8.478 13.11-18.106 17.185-28.676.209-.576.104-.994-.261-1.465-2.247-2.878-4.858-5.442-7.836-7.536-1.41-.941-2.873-1.779-4.387-2.773Zm14.155 63.997c-7.678-.68-14.208-3.453-19.588-8.843-5.432 4.866-11.178 9.105-17.603 12.559 4.336 7.587 9.768 13.866 17.133 18.367 8.358-5.913 15.044-13.082 20.058-22.083ZM92.109 129.041c5.798-1.884 11.596-3.297 17.551-4.134 5.955-.837 11.962-.89 17.969-.471.104-.942.156-1.727.209-2.512.261-3.61.47-7.169.731-10.779.157-2.564.261-5.181.366-7.797 0-.419 0-.89-.262-1.151-1.462-1.675-3.081-3.14-4.91-4.5-13.372 7.587-23.453 18.471-31.654 31.344Zm83.627 39.665c-.992-9.524-4.492-18.001-10.864-25.17-6.112-6.96-13.79-11.617-22.722-14.652.992 7.744.627 15.227-.47 22.763 14.573-.576 25.96 4.866 34.056 17.059Zm-51.659 25.536c.313-.524.522-.89.731-1.256.836-1.57 1.724-3.14 2.56-4.762 5.432-10.57 9.611-21.559 11.961-33.281.105-.471.105-.942.209-1.465-4.701.523-9.036 1.779-13.215 3.506-.627.262-.731.68-.836 1.256-1.306 8.686-3.343 17.216-6.268 25.536-.209.576-.157.994.157 1.518a112.79 112.79 0 0 1 3.134 5.442c.522 1.046.992 2.197 1.567 3.506Zm-4.649 41.757c3.343-6.645 5.484-13.71 6.007-21.349-.523.104-.888.157-1.202.209-4.231.942-8.514 1.674-12.849 1.884-.679.052-1.045.314-1.463.785-3.029 3.244-6.111 6.436-9.141 9.628-.156.157-.313.366-.47.523 4.336 4.971 12.432 8.373 19.118 8.32Zm9.715-109.993c-1.044 9.838-2.037 19.571-3.081 29.408a52.904 52.904 0 0 1 13.685-3.61c1.41-6.018 1.724-18.525.47-23.548-3.604-1.046-7.26-1.831-11.074-2.25ZM49.225 228.987c0 .262-.052.419 0 .524.209.575.366 1.203.575 1.779 2.037 5.547 5.223 10.308 9.402 14.495.522.523 1.044.785 1.776.628.26-.053.522-.053.731-.105 5.85-.89 11.44-2.721 16.715-5.337.261-.105.47-.314.68-.419-1.254-2.826-2.508-5.599-3.71-8.425-9.14 2.407-17.864 1.57-26.169-3.14Zm27.162.89c4.597-.994 14.417-6.698 16.767-9.733a260.433 260.433 0 0 1-1.724-4.867c-6.842-1.622-13.32-4.29-19.535-8.32.574 7.954 1.985 15.489 4.492 22.92Zm16.14 27.368c-5.223-4.344-9.245-9.472-12.38-15.123-3.081 1.203-6.006 2.511-8.984 3.506-3.029.994-6.111 1.622-9.297 2.459.365.314.627.576.992.837 5.328 4.134 11.335 6.855 17.812 8.478 2.455.575 4.91 1.046 7.417.994 1.463-.053 2.925-.262 4.44-1.151Zm8.619-42.334c.47.053.679.157.836.157 2.35.052 4.649.052 6.999.105.627 0 .888-.366 1.201-.733 4.545-5.547 8.671-11.46 12.38-17.634.366-.628.366-1.099.157-1.779a44.945 44.945 0 0 0-3.918-7.954c-.157-.21-.313-.419-.574-.681-4.075 10.518-9.559 20.042-17.081 28.519Zm22.774-56.619c-4.962 1.622-16.819 10.937-18.491 14.39.94.524 1.881 1.047 2.769 1.675a44.747 44.747 0 0 1 2.559 1.779 87.66 87.66 0 0 1 2.507 2.093c.784.681 1.515 1.465 2.246 2.198.732.785 1.411 1.57 2.246 2.459 2.873-8.058 4.806-16.169 6.164-24.594Zm-66.703 31.554c3.5 5.338 7.678 9.785 12.693 13.605.157-4.657.157-9.157.47-13.657.313-4.5.993-9.001 1.567-13.658-5.85 3.663-10.656 8.216-14.73 13.71ZM97.75 227.47c-1.254-1.884-2.508-3.663-3.813-5.547-5.067 4.239-10.604 7.588-16.924 9.681 1.097 2.878 2.194 5.547 3.656 8.111 4.492-2.093 13.894-8.844 17.08-12.245Zm42.205-100.888c.052-5.39-6.216-19.937-9.559-22.135-.366 6.698-.783 13.396-1.149 19.989 3.604.733 7.104 1.465 10.708 2.146Zm-16.297 71.794a149.718 149.718 0 0 1-11.544 16.431c2.507.157 11.178-1.256 13.32-2.146.47-3.192-.523-11.512-1.776-14.285Zm-24.707 27.943c1.933-1.309 8.41-8.216 8.828-9.419h-2.664c-.888 0-1.776-.105-2.612-.105-.94-.052-1.985-.314-2.82 0-.784.262-1.359 1.151-2.038 1.831-.783.733-1.514 1.518-2.298 2.303a28.549 28.549 0 0 0 3.604 5.39Zm30.139-126.268v-4.97c-1.201.575-2.35 1.098-3.656 1.726 1.253 1.099 2.35 2.093 3.656 3.244ZM93.206 215.644c.47 1.256.836 2.302 1.306 3.506.993-.994 2.037-1.727 2.769-2.826-1.359-.209-2.56-.419-4.075-.68Z"/>
  <path fill="#fff" stroke="#3FB1B5" stroke-miterlimit="10" stroke-width="6" d="M44.08 172h103.072c2.768 0 5.242-1.7 6.27-4.292l28.206-70.632C182.97 93.697 180.516 90 176.93 90H73.858c-2.768 0-5.243 1.7-6.27 4.292l-28.206 70.632c-1.363 3.379 1.09 7.076 4.697 7.076Z"/>
  <path fill="#3FB1B5" d="M48.862 172h98.757a6.483 6.483 0 0 0 6.002-4.017l27.022-66.35c1.285-3.18-1.053-6.633-4.507-6.633H77.379a6.483 6.483 0 0 0-6.002 4.017l-27.022 66.35C43.071 168.548 45.43 172 48.862 172Z"/>
  <path fill="#fff" d="M109.091 141.838c2.909 0 5.648-1.138 7.714-3.203a8.835 8.835 0 0 0 2.613-6.281 8.763 8.763 0 0 0-2.613-6.28 7.24 7.24 0 0 0-5.143-2.129 7.238 7.238 0 0 0-5.142 2.129 5.991 5.991 0 0 0 0 8.472 4.96 4.96 0 0 0 7.018 0 .84.84 0 0 0 0-1.201.84.84 0 0 0-1.201 0 3.27 3.27 0 0 1-4.637 0 4.3 4.3 0 0 1 0-6.091 5.58 5.58 0 0 1 3.962-1.644c1.497 0 2.909.59 3.962 1.644a7.121 7.121 0 0 1 2.108 5.1c0 1.918-.759 3.73-2.108 5.1a9.112 9.112 0 0 1-6.512 2.698c-2.465 0-4.784-.948-6.512-2.698a.84.84 0 0 0-1.201 0 .84.84 0 0 0 0 1.202 10.825 10.825 0 0 0 7.692 3.182Z"/>
  <path fill="#fff" stroke="#3FB1B5" stroke-miterlimit="10" stroke-width="6" d="M6.922 179h140.156c1.619 0 2.922-1.258 2.922-2.82v-1.36c0-1.562-1.303-2.82-2.922-2.82H6.922C5.303 172 4 173.258 4 174.82v1.36c.021 1.562 1.324 2.82 2.922 2.82Z"/>
</svg>
