<svg xmlns="http://www.w3.org/2000/svg" width="192" height="272" fill="none" viewBox="0 0 192 272">
  <path fill="#FFCF2D" d="M100.674 272c.731-.209 1.515-.419 2.246-.628 4.545-1.099 8.41-3.401 11.91-6.384 4.805-4.134 8.932-8.896 12.849-13.867 7.104-9.157 13.372-18.943 19.223-28.937 12.379-21.246 23.244-43.223 32.332-66.091 4.179-10.465 7.261-21.297 9.141-32.443 1.62-9.576 2.299-19.204 1.776-28.885-.574-11.67-2.716-23.024-7.26-33.804-3.186-7.64-7.417-14.6-13.111-20.67a46.737 46.737 0 0 0-1.619-1.57c-.052-.052-.157-.052-.366-.052.157 1.204.261 2.303.418 3.454.575 4.971.522 9.942.052 14.913-.574 6.175-1.88 12.245-3.708 18.158-.157.524-.157 1.151 0 1.727 1.88 8.53 2.559 17.111 2.141 25.798-.835 17.844-5.693 34.641-13.842 50.392-11.857 22.867-28.363 41.653-49.779 56.043-7.888 5.285-16.245 9.785-25.281 12.873-2.769.942-5.642 1.57-8.462 2.25-.888.209-1.829.209-2.717.209-.365 0-.783-.157-1.149-.262v-.261c.21-.105.47-.314.68-.314 8.2-.837 15.67-3.925 22.93-7.64 12.484-6.332 23.505-14.704 33.43-24.542 14.051-13.919 25.229-29.879 33.012-48.089 4.492-10.466 7.417-21.298 8.828-32.601 1.201-9.994 1.097-19.937-.679-29.879-.105-.47-.209-.89-.314-1.622-.209.47-.365.733-.47.994-3.917 10.309-9.298 19.728-16.14 28.362-.47.628-.575 1.203-.575 1.936.105 3.611.418 7.221.157 10.78-1.254 18.628-7.992 34.85-21.625 47.88-6.843 6.488-14.835 10.989-24.028 13.082-9.977 2.25-19.588 1.36-28.677-3.611-1.358-.733-2.663-1.622-4.022-2.459a202.84 202.84 0 0 1-4.7 2.197c-.523.21-.47.681-.47 1.047a185.632 185.632 0 0 0-.105 5.39c.104 7.221.052 14.495.365 21.716.314 8.843 1.097 17.687 2.873 26.426 1.045 5.232 2.664 10.256 4.963 15.122.209.419.365.838.365 1.309-.156-.262-.365-.524-.47-.785-2.925-5.704-4.858-11.722-6.059-18.001-1.358-7.012-2.09-14.076-2.56-21.141-.678-9.523-.73-19.047-.626-28.623v-1.256c0-.052-.053-.157-.157-.314-.47.157-.992.314-1.515.523-5.745 2.093-11.648 3.297-17.812 3.088-14.939-.419-26.43-7.117-34.526-19.676-4.18-6.541-6.425-13.762-7.209-21.454-1.306-12.507 1.306-24.333 6.634-35.583 1.567-3.297 3.5-6.436 5.38-9.628.418-.785.522-1.361.261-2.198-2.298-7.012-2.873-14.234-2.09-21.56 1.672-16.064 8.254-30.036 18.387-42.438 6.373-7.744 13.842-14.18 22.722-18.89 5.798-3.087 11.962-5.18 18.543-5.808 7.731-.733 15.148.523 22.095 4.186.888.47 1.515.418 2.35-.105 6.948-4.552 14.418-7.692 22.618-9.052 10.5-1.727 20.581-.524 29.878 4.97 7.992 4.71 13.477 11.617 17.133 20.095a51.037 51.037 0 0 1 2.821 8.686c.157.628.313 1.151.836 1.622 7.469 6.803 12.797 15.07 16.662 24.333 3.187 7.692 5.172 15.698 6.321 23.966 1.358 9.628 1.41 19.257.522 28.937-1.463 15.594-5.432 30.508-11.335 44.95-10.499 25.693-22.878 50.444-37.661 73.94-5.327 8.477-11.073 16.64-17.655 24.228a85.533 85.533 0 0 1-9.298 9.157c-4.387 3.401-9.193 5.756-14.782 6.384ZM13.809 97.748c-.105 0-.261-.053-.366-.053-.261.367-.522.733-.731 1.1-1.567 2.877-3.239 5.651-4.65 8.633C2.84 118.679.333 130.453 1.9 142.907c1.045 8.163 3.761 15.698 8.723 22.291 7.627 10.152 17.76 15.594 30.453 16.17 6.738.314 13.215-1.047 19.483-3.454.68-.262.888-.628.888-1.308 0-1.779.053-3.506.157-5.285.052-.68-.209-1.204-.627-1.675-2.925-3.401-5.171-7.169-6.947-11.303-1.776-4.081-2.977-8.32-3.709-12.715-.104-.681-.365-1.099-1.097-1.308-.835-.21-1.671-.576-2.455-.89-8.096-3.14-15.252-7.744-20.998-14.338-7.26-8.32-10.812-18.158-11.491-29.094-.105-.733-.366-1.518-.47-2.25Zm55.786 77.445c.104.157.156.209.209.262.104.104.26.209.418.314 5.536 3.663 11.596 5.651 18.23 6.07 8.514.471 16.505-1.57 23.975-5.599 9.559-5.181 16.872-12.664 22.356-21.978 7.574-12.82 10.76-26.74 9.977-41.601 0-.418-.105-.785-.157-1.203-.156.052-.261.052-.313.104-.261.262-.523.576-.731.838-11.126 12.768-24.342 22.71-40.117 29.042-.626.261-.992.68-1.358 1.203-2.037 2.983-4.022 6.07-6.216 8.948-7.103 9.367-15.513 17.321-25.699 23.234a3.532 3.532 0 0 1-.574.366Zm-55.63-81.789c.105 0 .157-.052.262-.052.052-.366.156-.733.156-1.099.21-2.983.68-5.913 1.463-8.79C20.599 65.356 31.098 51.49 46.873 41.6c7.313-4.553 15.305-7.274 24.028-7.222.679 0 .94-.366 1.201-.89 4.649-8.476 10.97-15.54 18.7-21.349.313-.21.574-.47.94-.785-.47-.261-.836-.47-1.201-.628-7.522-3.715-15.462-4.605-23.662-3.087-7.157 1.308-13.686 4.238-19.745 8.268C36.74 22.814 28.54 31.814 22.218 42.489c-6.32 10.728-10.133 22.292-10.499 34.798-.156 5.076.47 10.1 1.88 15.019.105.418.21.785.366 1.099Zm36.617 25.38.209-.838a109.287 109.287 0 0 1 4.178-15.75c3.03-8.948 7-17.478 11.7-25.641.366-.628.575-1.151.366-1.884-1.358-4.553-2.037-9.21-1.985-13.972 0-.313-.052-.627-.104-.941-.157 0-.261-.053-.314-.053-.365.105-.73.157-1.096.314-18.7 5.6-33.848 16.327-45.862 31.659-1.828 2.354-1.776 2.354-1.828 5.337 0 .837.052 1.622.47 2.407C22.584 111.51 32.508 118 46.089 118.784c1.41.104 2.925 0 4.492 0Zm37.765-18.682c-.366.419-.68.785-1.045 1.152-4.91 5.442-10.551 9.89-17.028 13.291-.836.419-1.933.733-2.403 1.465-.47.733-.418 1.832-.522 2.774-.94 8.215-1.829 16.483-2.717 24.698-.104.838-.104 1.727-.156 2.669.313.052.522.105.679.157 1.776.105 3.604.262 5.38.262 10.238.104 20.058-1.779 29.669-5.233.836-.314 1.41-.785 1.828-1.57 7.365-12.611 12.484-26.059 15.514-40.345.052-.261.052-.575.104-.994-9.611 4.657-19.274 5.756-29.303 1.674Zm15.618 39.403.157.157c.47-.209.94-.366 1.358-.575a99.41 99.41 0 0 0 21.05-12.507c6.268-4.814 11.91-10.256 16.976-16.274.627-.732.836-1.465.679-2.407-.156-.889-.313-1.831-.47-2.721-1.306-7.326-3.761-14.233-7.521-20.617-.209-.366-.471-.733-.732-1.204-.261.314-.47.471-.574.68-4.127 5.129-8.932 9.472-14.626 12.873-.575.314-.784.785-.888 1.361-2.925 14.286-7.835 27.838-15.044 40.502-.156.261-.261.523-.365.732ZM70.848 35.895h-1.201c-5.432.158-10.551 1.518-15.514 3.664-7.887 3.454-14.625 8.53-20.475 14.809C25.09 63.578 19.24 74.2 16.786 86.602c-.261 1.203-.418 2.407-.575 3.558C29.166 74.2 45.306 63.211 64.999 57.717c.522-7.588 2.455-14.757 5.85-21.821Zm94.179-2.197c-.052-.419-.105-.628-.157-.837-.679-2.04-1.306-4.082-2.089-6.018-3.5-8.372-8.932-15.175-16.82-19.78-8.671-5.076-18.02-6.331-27.841-4.814-8.096 1.204-15.513 4.29-22.356 8.634-.261.157-.47.366-.783.628 1.305.942 2.559 1.78 3.813 2.669 1.88-1.204 3.917-1.518 6.007-1.465 1.305.052 2.611.104 3.865.314 8.514 1.412 16.245 4.71 22.879 10.308.522.419.992.628 1.671.523 3.657-.366 7.365-.104 10.969.471 7.313 1.256 13.842 4.239 19.797 8.635.261.209.575.418 1.045.732Zm-64.092 24.908c1.411 7.43.732 14.495-1.41 21.455-2.142 6.96-5.694 13.186-10.186 18.786.105.157.157.261.21.261.156.105.313.157.47.21a29.271 29.271 0 0 0 10.133 2.145c6.059.209 11.752-1.361 17.133-4.082.626-.314.94-.732.992-1.412.47-3.663 1.149-7.379 1.515-11.042.627-5.599.836-11.198.522-16.797-.052-.785-.313-1.203-.94-1.622a57.727 57.727 0 0 0-9.037-4.867c-2.977-1.203-6.007-2.25-9.402-3.035ZM145.7 47.094c-.104.053-.157.105-.261.105 1.88 12.82-1.619 24.228-8.88 34.693 4.91 7.797 7.835 16.274 9.193 25.536.418-.523.679-.785.888-1.046 1.202-1.622 2.403-3.245 3.5-4.867 5.067-7.483 9.089-15.489 12.118-24.018.262-.785.314-1.518.105-2.303-.94-3.453-2.09-6.907-3.5-10.204-2.455-5.651-5.693-10.832-10.081-15.175-1.045-.942-2.089-1.779-3.082-2.72ZM117.128 41.6c.104.418.209.732.313 1.046 2.351 7.379 3.709 14.914 4.231 22.658.052.785.418 1.204.993 1.623a56.752 56.752 0 0 1 12.432 12.82c.209.314.47.575.731.89.261-.367.522-.68.731-.995 2.664-4.03 4.753-8.372 6.112-13.03 1.932-6.54 2.507-13.134 1.253-19.832-.157-.837-.522-1.308-1.201-1.779-5.119-3.192-10.656-4.762-16.663-4.71-2.977.053-5.903.42-8.932 1.309Zm16.976-16.17c.105.21.105.262.105.314.104.105.209.262.313.367 4.753 4.97 8.201 10.727 9.977 17.425.156.575.47.942.888 1.256 4.074 2.878 7.365 6.54 10.133 10.675 3.343 4.97 5.694 10.36 7.47 16.064.104.419.261.785.417 1.204.366-.471.471-.89.627-1.308 1.463-5.442 2.455-10.937 2.821-16.536.418-5.86.157-11.721-.94-17.477-.105-.629-.366-1.152-.888-1.57-8.619-7.065-18.439-10.832-29.669-10.518-.314 0-.732.052-1.254.104Zm-46.54 72.998c.417-.523.73-.837.992-1.204a55.616 55.616 0 0 0 6.163-9.733c3.866-7.849 6.007-16.117 5.12-24.96-.157-1.465-.418-2.878-.627-4.396a135.32 135.32 0 0 1-5.224-.837c-.731-.157-1.254.157-1.724.68-7.574 8.477-13.11 18.106-17.185 28.676-.209.576-.104.994.262 1.465 2.246 2.878 4.857 5.442 7.835 7.536 1.41.942 2.873 1.779 4.387 2.773ZM73.407 34.43c7.678.68 14.207 3.453 19.588 8.843 5.432-4.866 11.178-9.105 17.603-12.559-4.336-7.587-9.768-13.866-17.133-18.367-8.358 5.913-15.044 13.082-20.058 22.083ZM99.89 142.959c-5.798 1.884-11.596 3.297-17.551 4.134-5.955.837-11.962.89-17.969.471a54.176 54.176 0 0 0-.209 2.512c-.26 3.61-.47 7.169-.73 10.779-.158 2.564-.262 5.181-.367 7.797 0 .419 0 .89.262 1.151 1.462 1.675 3.082 3.14 4.91 4.501 13.372-7.588 23.453-18.472 31.654-31.345Zm-83.627-39.665c.992 9.524 4.492 18.001 10.864 25.17 6.112 6.96 13.79 11.617 22.722 14.652-.992-7.744-.627-15.227.47-22.763-14.573.576-25.96-4.866-34.056-17.059Zm51.66-25.536c-.314.524-.523.89-.732 1.256-.836 1.57-1.724 3.14-2.56 4.762-5.432 10.57-9.61 21.559-11.961 33.281-.105.471-.105.942-.209 1.465 4.701-.523 9.036-1.779 13.215-3.506.627-.262.731-.68.836-1.256 1.306-8.686 3.343-17.216 6.268-25.536.209-.576.157-.994-.157-1.517a112.76 112.76 0 0 1-3.134-5.443c-.522-1.046-.992-2.197-1.567-3.506Zm4.648-41.757c-3.343 6.645-5.484 13.71-6.007 21.35.523-.105.888-.157 1.202-.21 4.23-.942 8.514-1.674 12.85-1.884.678-.052 1.044-.314 1.462-.785 3.03-3.244 6.111-6.436 9.14-9.628.157-.157.314-.366.47-.523-4.335-4.971-12.43-8.373-19.117-8.32Zm-9.715 109.993c1.044-9.838 2.037-19.571 3.081-29.408a52.906 52.906 0 0 1-13.685 3.61c-1.41 6.018-1.724 18.525-.47 23.548 3.604 1.046 7.26 1.831 11.074 2.25Zm79.918-102.981c0-.262.052-.42 0-.524-.209-.575-.366-1.203-.575-1.779-2.037-5.547-5.223-10.309-9.402-14.495-.522-.523-1.044-.785-1.776-.628-.261.053-.522.053-.731.105-5.85.89-11.439 2.721-16.715 5.337-.261.105-.47.314-.679.42 1.253 2.825 2.507 5.598 3.708 8.424 9.142-2.407 17.865-1.57 26.17 3.14Zm-27.162-.89c-4.597.994-14.417 6.698-16.767 9.733a257.55 257.55 0 0 1 1.724 4.866c6.842 1.623 13.319 4.291 19.535 8.32-.574-7.953-1.985-15.488-4.492-22.919Zm-16.14-27.368c5.223 4.344 9.245 9.472 12.379 15.123 3.082-1.203 6.007-2.512 8.984-3.506 3.03-.994 6.112-1.622 9.298-2.46-.365-.313-.626-.575-.992-.836-5.328-4.134-11.335-6.855-17.812-8.478-2.455-.575-4.91-1.046-7.417-.994-1.463.053-2.926.262-4.44 1.151ZM90.854 57.09c-.47-.053-.679-.157-.836-.157-2.35-.053-4.648-.053-7-.105-.626 0-.887.367-1.2.733-4.545 5.546-8.671 11.46-12.38 17.634-.366.628-.366 1.1-.157 1.78a44.96 44.96 0 0 0 3.918 7.953c.157.21.313.419.575.68 4.074-10.517 9.558-20.041 17.08-28.518ZM68.08 113.708c4.962-1.622 16.82-10.937 18.49-14.39-.94-.524-1.88-1.047-2.768-1.675a44.537 44.537 0 0 1-2.559-1.78 88.575 88.575 0 0 1-2.507-2.092c-.784-.68-1.515-1.465-2.246-2.198-.732-.785-1.41-1.57-2.246-2.46-2.873 8.06-4.806 16.17-6.164 24.595Zm66.703-31.554c-3.5-5.337-7.678-9.785-12.693-13.605-.157 4.657-.157 9.157-.47 13.657-.313 4.5-.992 9-1.567 13.658 5.85-3.663 10.656-8.216 14.73-13.71ZM94.249 44.53c1.254 1.884 2.508 3.663 3.813 5.547 5.067-4.239 10.604-7.588 16.924-9.68-1.097-2.879-2.194-5.548-3.656-8.112-4.492 2.093-13.894 8.844-17.08 12.245ZM52.044 145.418c-.052 5.39 6.216 19.937 9.559 22.135.366-6.698.783-13.396 1.15-19.989-3.605-.733-7.105-1.465-10.709-2.146Zm16.297-71.794a149.647 149.647 0 0 1 11.544-16.43c-2.507-.158-11.178 1.255-13.32 2.145-.47 3.192.523 11.512 1.776 14.285Zm24.707-27.943c-1.933 1.309-8.41 8.216-8.828 9.42h2.664c.888 0 1.776.104 2.612.104.94.052 1.985.314 2.82 0 .784-.262 1.359-1.151 2.038-1.831.783-.733 1.514-1.518 2.298-2.303a28.525 28.525 0 0 0-3.604-5.39ZM62.908 171.95v4.971c1.202-.576 2.351-1.099 3.657-1.727-1.253-1.099-2.35-2.093-3.656-3.244ZM98.795 56.356c-.47-1.256-.836-2.302-1.306-3.506-.993.994-2.037 1.727-2.769 2.826 1.359.21 2.56.419 4.075.68Z"/>
  <path fill="#fff" stroke="#FE5244" stroke-miterlimit="10" stroke-width="6" d="M47.115 172h103.793c2.787 0 5.279-1.7 6.314-4.292l28.403-70.632c1.352-3.379-1.119-7.076-4.73-7.076H77.102c-2.788 0-5.28 1.7-6.314 4.292l-28.403 70.632c-1.373 3.379 1.098 7.076 4.73 7.076Z"/>
  <path fill="#FE5244" d="M51.862 172h98.757a6.483 6.483 0 0 0 6.002-4.017l27.022-66.35c1.285-3.18-1.053-6.633-4.507-6.633H80.379a6.483 6.483 0 0 0-6.002 4.017l-27.022 66.35C46.071 168.548 48.43 172 51.862 172Z"/>
  <path fill="#fff" d="M112.583 141.838c2.909 0 5.649-1.138 7.714-3.203a8.835 8.835 0 0 0 2.613-6.281 8.763 8.763 0 0 0-2.613-6.28 7.24 7.24 0 0 0-5.142-2.129 7.24 7.24 0 0 0-5.143 2.129 5.991 5.991 0 0 0 0 8.472 4.96 4.96 0 0 0 7.018 0 .84.84 0 0 0 0-1.201.84.84 0 0 0-1.201 0 3.27 3.27 0 0 1-4.637 0 4.3 4.3 0 0 1 0-6.091 5.581 5.581 0 0 1 3.963-1.644 5.58 5.58 0 0 1 3.962 1.644 7.12 7.12 0 0 1 2.107 5.1c0 1.918-.759 3.73-2.107 5.1a9.116 9.116 0 0 1-6.513 2.698c-2.465 0-4.784-.948-6.512-2.698a.84.84 0 0 0-1.201 0 .84.84 0 0 0 0 1.202 10.825 10.825 0 0 0 7.692 3.182Z"/>
  <path fill="#fff" stroke="#FE5244" stroke-miterlimit="10" stroke-width="6" d="M9.922 179h140.156c1.619 0 2.922-1.258 2.922-2.82v-1.36c0-1.562-1.303-2.82-2.922-2.82H9.922C8.303 172 7 173.258 7 174.82v1.36c.021 1.562 1.324 2.82 2.922 2.82Z"/>
</svg>
