<svg xmlns="http://www.w3.org/2000/svg" width="180" height="205" fill="none" viewBox="0 0 180 205">
  <path fill="#FE5244" fill-rule="evenodd" d="M86.078 7.712c.297-5.864 4.322-8.907 9.91-7.274 2.31.668 3.8 2.153 4.471 4.454.746 2.672.522 5.344-.744 7.793-1.342 2.524-3.428 4.083-6.41 4.008-2.905-.074-4.917-1.781-5.96-4.379-.487-1.077-.739-2.232-.982-3.352a41.176 41.176 0 0 0-.285-1.25ZM29.817 152.896c0-.148 0-.593.075-.964.447-1.263.596-2.598.596-4.009 0-1.781 1.565-3.117 3.427-3.191.82 0 1.714.149 2.385.445 2.385 1.114 4.62 2.523 6.334 4.528 3.502 3.934 1.938 10.391-2.98 12.247-2.609 1.039-5.366.297-7.303-1.856-1.416-1.633-2.534-4.602-2.534-7.2Zm30.329 38.598c-1.193 1.187-1.64 2.672-1.64 3.637 0 4.008 1.863 7.348 4.546 8.907 3.353 1.93 7.154.891 9.017-2.524 2.682-4.899-.448-11.654-5.887-12.841-2.087-.445-3.875 0-5.217 1.856-.223.37-.521.668-.82.965Zm107.975-53.888a22.36 22.36 0 0 0-.19 1.056c-.116.709-.232 1.418-.481 2.062-1.639 4.378-6.78 5.492-10.133 2.152-1.714-1.633-2.385-3.785-2.683-6.087a10.364 10.364 0 0 0-.447-2.078c-1.043-2.671 0-4.973 2.757-5.864 3.427-1.187 7.973.52 9.762 3.637.894 1.559 1.341 3.266 1.415 5.122ZM17.087 43.256c-.032.17-.06.323-.087.455.075 3.118.596 5.345 2.161 7.126 1.64 1.93 3.8 2.82 6.334 2.375 2.534-.445 4.173-2.078 4.993-4.528 1.49-4.379-.895-9.649-5.59-10.688-.148-.05-.297-.09-.446-.132-.298-.082-.597-.165-.895-.313-2.086-.891-4.694 0-5.737 2.672-.368 1.098-.584 2.247-.733 3.033Zm127.636 127.751c0 3.044-1.565 5.419-4.099 6.235-2.31.817-4.694.075-6.408-1.93-1.938-2.375-2.757-5.121-2.682-8.09.074-2.153 1.266-3.934 2.533-5.567.82-1.039 2.087-1.336 3.427-1.114.746.149 1.491.446 2.087.891 2.683 1.782 5.142 6.31 5.142 9.575ZM17.596 96.634v.742c.075 3.34 1.118 6.309 4.099 8.239 2.012 1.336 4.173 1.633 6.408.52 2.161-1.114 3.13-3.043 3.204-5.344.15-3.934-1.863-6.829-5.141-8.908a2.317 2.317 0 0 0-.97-.445c-3.8-1.188-7.376 1.261-7.6 5.196Zm99.332 77.046c.115.259.209.53.302.799.146.423.29.841.518 1.204 1.043 1.707 1.863 3.415 1.937 5.493.075 2.227-.745 3.934-2.757 4.973-2.012 1.04-3.95.668-5.664-.667-2.011-1.485-2.98-3.637-3.427-6.087-.199-1.089-.332-2.178-.464-3.266-.066-.544-.132-1.089-.207-1.633-.149-1.039.075-2.153.894-2.746l.124-.09c1.305-.939 2.68-1.928 4.123-2.36 2.758-.816 5.291 1.559 4.621 4.38Zm-1.341-49.805c-2.012 2.226-3.205 4.824-3.13 7.347-.075 2.598.298 4.232 1.043 5.567 1.192 2.005 3.279 2.969 5.44 2.673 2.682-.371 5.141-2.598 5.663-5.271.596-3.042-.148-5.788-2.012-8.238-.223-.297-.427-.574-.632-.852l-.001-.002-.002-.002a82.357 82.357 0 0 0-.631-.851c-1.491-2.153-3.95-2.301-5.738-.371Zm-48.958 38.3c4.843-.817 8.793 4.824 7.6 9.5-.968 3.786-4.769 5.642-8.346 4.083-3.576-1.559-5.886-6.309-4.769-10.095.522-2.078 2.31-4.082 5.515-3.488Zm100.524-64.65c-1.267 2.004-1.938 4.23-1.863 6.606 0 1.781.372 3.414 1.267 4.898 1.341 2.227 3.502 3.34 5.812 2.969 2.235-.296 4.098-2.078 4.471-4.676.67-4.082-.82-7.645-3.503-10.614-1.862-2.079-4.694-1.559-6.184.817ZM52.102 123.189c.145.424.29.842.517 1.205 1.118 1.93 1.64 3.934 1.267 6.16-.298 1.93-1.341 3.415-3.279 4.009-2.012.668-3.725 0-5.141-1.484-1.267-1.411-1.938-3.118-2.385-4.899-.224-.891-.522-1.782-.969-2.598-.968-2.079-.447-4.009 1.416-5.271.373-.222.727-.482 1.08-.741.355-.26.709-.52 1.081-.743 1.416-.891 2.906-1.039 4.397-.223 1.416.817 2.012 2.079 1.714 3.786.115.26.209.531.302.799Zm83.381-107.386c2.011-1.04 2.757-2.82 2.831-4.75.075-3.267-2.16-6.978-5.066-9.205-2.981-2.3-6.707-.816-7.154 2.97-.224 1.707-.149 3.562.149 5.27.372 2.152 1.49 4.008 3.353 5.27 1.863 1.261 3.875 1.558 5.887.445ZM84.811 137.755c0-.57-.008-1.139-.017-1.707-.016-1.139-.033-2.277.017-3.415.149-2.301 2.31-3.786 4.62-3.043a7.01 7.01 0 0 1 2.608 1.484c1.714 1.559 2.906 3.415 3.8 5.567.671 1.633.82 3.34.15 5.047-.746 2.153-2.236 3.489-4.471 3.86-2.31.372-4.1-.519-5.44-2.375-1.118-1.633-1.49-3.488-1.267-5.418ZM155.9 50.317c2.757-1.113 4.546-3.934 4.546-7.051 0-3.043-1.639-5.567-4.099-6.383-2.607-.965-5.588 0-7.376 2.226-2.013 2.524-1.938 7.2.149 9.65 1.639 1.93 4.321 2.523 6.78 1.558ZM83.544 70.135c0 1.262-.298 2.599-1.043 3.712-2.087 3.265-6.334 3.563-8.793.594-1.789-2.153-2.31-4.75-2.236-7.497 0-.612.126-1.225.252-1.837.041-.204.083-.409.121-.613.67-3.117 3.427-4.379 6.334-2.969 2.98 1.336 5.365 5.196 5.365 8.61Zm29.304-27.979c.067-.223.135-.447.205-.671-.224-2.079-1.118-3.712-2.831-5.122-.11-.094-.228-.188-.346-.283-.443-.357-.91-.733-1.145-1.201-1.267-2.227-4.769-2.672-6.93.074-2.31 2.969-2.385 7.57-.075 10.614 2.832 3.711 7.75 3.414 10.06-.594.484-.903.772-1.855 1.062-2.817Zm40.37 37.629c-.074 2.672-1.192 5.047-3.651 6.606-3.279 2.152-7.378.816-8.644-2.82-1.566-4.38.074-8.685 5.291-10.318 2.011-.668 3.874 0 5.29 1.633 1.192 1.336 1.64 2.969 1.714 4.899Zm-35.681 7.83c.11-.416.219-.83.36-1.224-.149-4.008-4.546-8.536-8.496-8.536-2.459-.075-4.396 1.707-4.247 4.008.074 1.41.224 2.82.522 4.23.447 2.228 1.49 4.158 3.428 5.42 2.757 1.855 6.259 1.038 7.75-1.93.324-.6.504-1.286.683-1.969ZM77.135 30.498c0 2.524-1.266 4.602-3.353 5.419-2.087.816-4.47.222-6.11-1.633-2.236-2.598-2.906-5.641-2.236-8.981.298-1.262.97-2.301 1.938-3.118 2.086-1.559 4.769-1.04 6.185 1.113.447.668.969 1.336 1.49 2.004 1.416 1.633 2.086 3.267 2.086 5.196ZM40.005 59.59c-.077.293-.142.548-.203.748.15 3.266.82 5.492 2.757 7.125 2.907 2.524 7.005 1.559 8.42-1.93.895-2.3.597-4.453-.893-6.383-.596-.816-1.044-1.558-1.267-2.524-.522-2.078-2.608-3.191-4.77-2.597-1.415.37-2.533 1.336-3.129 2.672-.435 1.03-.711 2.098-.916 2.89Zm45.7 39.196c0 1.41-.373 2.821-1.341 4.157-2.087 2.672-5.812 2.895-8.346.445-2.385-2.301-3.056-6.457-1.565-9.426.969-1.93 2.682-2.82 4.843-2.524.075 0 .13.019.187.037a.552.552 0 0 0 .186.037c4.099.594 6.037 2.895 6.037 7.274Zm45.083 8.017v4.676c0 1.41.447 3.265 1.938 4.75 2.458 2.45 6.334 1.707 7.675-1.41 1.49-3.414-1.192-9.872-4.62-11.282-2.533-1.039-4.993.594-4.993 3.266Z" clip-rule="evenodd"/>
  <path fill="#9A3B82" d="M47.862 133h98.757a6.483 6.483 0 0 0 6.002-4.017l27.022-66.35c1.285-3.18-1.053-6.633-4.507-6.633H76.379a6.483 6.483 0 0 0-6.002 4.017l-27.022 66.35C42.071 129.548 44.43 133 47.862 133Z"/>
  <path fill="#fff" d="M108.234 102.838c2.908 0 5.648-1.138 7.713-3.203a8.836 8.836 0 0 0 2.614-6.28 8.764 8.764 0 0 0-2.614-6.281 7.238 7.238 0 0 0-5.142-2.129 7.238 7.238 0 0 0-5.142 2.129 5.99 5.99 0 0 0 0 8.472 4.96 4.96 0 0 0 7.018 0 .84.84 0 0 0 0-1.201.84.84 0 0 0-1.202 0 3.268 3.268 0 0 1-4.636 0 4.3 4.3 0 0 1 0-6.09 5.581 5.581 0 0 1 3.962-1.645 5.58 5.58 0 0 1 3.962 1.644 7.121 7.121 0 0 1 2.108 5.1c0 1.918-.759 3.73-2.108 5.1a9.113 9.113 0 0 1-6.512 2.698c-2.466 0-4.784-.948-6.512-2.698a.84.84 0 0 0-1.202 0 .84.84 0 0 0 0 1.202 10.826 10.826 0 0 0 7.693 3.182Z"/>
  <path fill="#fff" stroke="#9A3B82" stroke-miterlimit="10" stroke-width="6" d="M5.922 140h140.156c1.619 0 2.922-1.258 2.922-2.82v-1.36c0-1.562-1.303-2.82-2.922-2.82H5.922C4.303 133 3 134.258 3 135.82v1.36c.021 1.562 1.324 2.82 2.922 2.82Z"/>
</svg>
