<svg xmlns="http://www.w3.org/2000/svg" width="1030" height="889" fill="none" viewBox="0 0 1030 889">
  <path fill="#3FB1B5" d="M360.43 101.633C199.218 312.124 61.692 174.328 0 531.885 0 791.388 275.499 870 439.446 883.524c163.947 13.525 390.853 8.876 538.744-95.094 92.75-65.203 70.44-387.728-6.761-467.022-109.861-112.846 51.551-202.346-96.34-281.059-46.057-24.513-388.741-103.124-514.659 61.284Z"/>
  <path stroke="#FFCF2D" stroke-linecap="round" stroke-miterlimit="10" stroke-width="6" d="M434.168 776.959h298.897"/>
  <path stroke="#66B0F0" stroke-linecap="round" stroke-linejoin="round" stroke-miterlimit="10" stroke-width="6" d="M583.512 512.557v117.085a103.891 103.891 0 0 0 49.36 88.433l43.177 26.627M560.121 512.557v117.085a103.891 103.891 0 0 1-49.36 88.433l-43.177 26.627"/>
  <path fill="#fff" stroke="#66B0F0" stroke-miterlimit="10" stroke-width="6" d="M544.414 512.557h52.649a8.41 8.41 0 0 0 8.419-8.42V490.85h-69.488v13.287a8.411 8.411 0 0 0 8.42 8.42Z"/>
  <path fill="#fff" stroke="#FFCF2D" stroke-miterlimit="10" stroke-width="6" d="M677.997 776.959c-10.682 0-19.339-8.656-19.339-19.339 0-10.682 8.657-19.339 19.339-19.339 10.682 0 19.339 8.657 19.339 19.339 0 10.683-8.657 19.339-19.339 19.339Zm-210.834 0c-10.682 0-19.339-8.656-19.339-19.339 0-10.682 8.657-19.339 19.339-19.339 10.682 0 19.339 8.657 19.339 19.339 0 10.683-8.657 19.339-19.339 19.339Z"/>
  <path fill="#fff" stroke="#FFCF2D" stroke-miterlimit="10" stroke-width="6" d="M467.163 772.881c-8.42 0-15.261-6.841-15.261-15.261 0-8.419 6.841-15.26 15.261-15.26 8.42 0 15.261 6.841 15.261 15.26 0 8.42-6.841 15.261-15.261 15.261Zm210.754 0c-8.42 0-15.261-6.841-15.261-15.261 0-8.419 6.841-15.26 15.261-15.26 8.419 0 15.26 6.841 15.26 15.26 0 8.42-6.841 15.261-15.26 15.261Z"/>
  <path stroke="#66B0F0" stroke-linecap="round" stroke-linejoin="round" stroke-miterlimit="10" stroke-width="6" d="M543.387 686.211s25.048-18.365 56.911 0"/>
  <path fill="#FE5244" d="M582.904 480.352 558.697 728.02h74.593l61.332-222.857c11.287-36.362-12.998-73.356-50.808-73.435h-5.262c-27.995-.079-51.728 20.681-55.648 48.624Z"/>
  <path fill="#E57281" d="M573.274 728.021h39.309l-6.183 20.233c-7.762-7.736-18.576-13.314-30.389-14.024a45.489 45.489 0 0 0-3.263-.105l.526-6.104Z"/>
  <path fill="#fff" stroke="#FE5244" stroke-miterlimit="10" stroke-width="6" d="M618.372 776.802c2.053-19.05-18.049-41.099-42.387-42.598-24.338-1.5-39.362 14.576-40.546 33.678-.184 2.894-.447 6.42.184 8.999l82.749-.079Z"/>
  <path stroke="#FE5244" stroke-miterlimit="10" stroke-width="6" d="m536.148 769.882 82.223.973"/>
  <path fill="#FE5244" d="m604.113 728.02 62.226-37.888L527.204 457.04c-17.602-27.917-62.278-36.547-90.458-19.392-32.494 19.786-38.862 64.279-13.235 92.379L604.113 728.02Z"/>
  <path stroke="#fff" stroke-miterlimit="10" stroke-width="6" d="m604.374 726.968 62.49-37.362L527.466 457.04c-17.602-27.917-62.279-36.547-90.458-19.392-32.495 19.786-38.862 64.279-13.235 92.379l180.601 196.941Z"/>
  <path fill="#73325A" d="M665.365 688.474c-2.763-4.578-18.944.079-36.152 10.446-17.208 10.34-28.863 22.812-26.101 27.39 2.763 4.578 18.892-.447 36.099-10.788 17.182-10.34 28.89-22.443 26.154-27.048Z"/>
  <path fill="#E57281" d="m661.576 718.101-29.048 18.26-8.209-9.209-2.499-2.816-10.42-11.682c4.473-4.578 10.604-9.419 17.839-13.734 5.842-3.5 11.604-6.289 16.813-8.183l8.131 14.287 1.789 3.131 5.604 9.946Z"/>
  <path fill="#fff" stroke="#FE5244" stroke-miterlimit="10" stroke-width="6" d="m707.412 737.913-72.356 39.02c-1.815-1.947-3.368-4.236-4.604-6.841-1.053-2.184-1.869-4.473-2.5-6.788-4.262-15.997 1.763-34.336 20.996-43.493 16.971-8.077 38.099-3.447 50.308 7.183 3.604 3.184 6.446 6.894 8.156 10.919Z"/>
  <path stroke="#FE5244" stroke-linecap="round" stroke-miterlimit="10" stroke-width="6" d="m703.543 731.993-72.383 39.02"/>
  <path fill="#9A3B82" d="M654.131 704.998c-4.157 3.473-9.262 7.104-14.971 10.525-6.105 3.683-12.104 6.683-17.392 8.814l-10.946-11.682c4.473-4.579 11.13-9.42 18.366-13.735 5.841-3.499 11.603-6.551 16.813-8.446l8.13 14.524Z"/>
  <path stroke="#fff" stroke-miterlimit="10" stroke-width="6" d="M663.76 684.422c-2.762-4.578-20.233-.026-37.73 10.498-17.497 10.525-28.601 22.865-25.838 27.443"/>
  <path fill="#9A3B82" d="M905.98 490.85c6.868 0 12.446-5.579 12.446-12.446v-47.623c0-6.868-5.578-12.446-12.446-12.446H213.887c-6.868 0-12.446 5.578-12.446 12.446v47.623c0 6.867 5.578 12.446 12.446 12.446H905.98Z"/>
  <path fill="#fff" stroke="#FFCF2D" stroke-miterlimit="10" stroke-width="6" d="M905.769 407.548H214.07c-6.867 0-12.445 5.578-12.445 12.445v47.624c0 6.867 5.578 12.445 12.445 12.445h691.699c6.867 0 12.445-5.578 12.445-12.445v-47.624c0-6.867-5.578-12.445-12.445-12.445Z"/>
  <path stroke="#FFCF2D" stroke-linecap="round" stroke-miterlimit="10" stroke-width="6" d="M869.75 480.115v296.95m-603.818-296.95v296.95"/>
  <path fill="#9A3B82" d="m243.2 703.156-1.105.711-40.151-61.858-12.077.921c-2.579.21-4.631-2.132-4.105-4.684.553-2.526 3.368-3.841 5.657-2.578l9.92 5.446-7.289-11.261-12.077.947c-2.578.211-4.63-2.157-4.078-4.683.553-2.526 3.368-3.842 5.657-2.579l9.919 5.42-7.288-11.261-12.077.947c-2.578.211-4.63-2.157-4.078-4.683.553-2.526 3.368-3.842 5.657-2.579l9.919 5.447-4.394-6.762-8.156-6.973c-1.973-1.684-1.763-4.788.395-6.209a3.876 3.876 0 0 1 5.841 2.157l3.025 10.288 4.526 6.973-.947-11.577c-.211-2.579 2.131-4.631 4.657-4.105 2.526.526 3.841 3.368 2.605 5.631l-5.841 10.787 7.393 11.393-.947-11.551c-.211-2.578 2.131-4.63 4.657-4.104 2.526.526 3.841 3.368 2.605 5.63l-5.841 10.788 7.393 11.393-.947-11.551c-.21-2.578 2.131-4.657 4.657-4.104 2.526.526 3.842 3.368 2.605 5.63l-5.841 10.788 40.151 61.805Z"/>
  <path fill="#9A3B82" d="M310.664 681.292c-19.286 38.862-45.334 65.883-60.726 64.015a10.902 10.902 0 0 1-3.552-1.052c-14.629-7.262-9.578-47.229 11.314-89.275 8.946-18.023 19.339-33.468 29.442-44.702 13.498-14.972 26.469-22.418 34.836-18.261 14.629 7.262 9.551 47.229-11.314 89.275Z"/>
  <path fill="#FFCF2D" d="M286.512 650.587c-4.289 49.254-20.05 88.985-36.547 94.72a10.878 10.878 0 0 1-3.552-1.052c-14.629-7.262-9.577-47.229 11.314-89.274 8.946-18.024 19.339-33.468 29.442-44.703.737 12.392.579 26.048-.657 40.309Z"/>
  <path stroke="#FFCF2D" stroke-miterlimit="10" stroke-width="6" d="m321.977 592.017-72.014 153.29"/>
  <path fill="#FFCF2D" d="m320.609 705.682-10.182 3.42-6.789 4.763 11.525-1.368c2.578-.316 4.709 1.947 4.288 4.499-.447 2.552-3.21 3.973-5.551 2.815l-10.998-5.446-11.13 7.814 11.524-1.368c2.579-.316 4.71 1.947 4.289 4.499-.447 2.552-3.21 3.973-5.552 2.816l-10.998-5.447-11.103 7.815 11.524-1.369c2.579-.315 4.71 1.947 4.263 4.5-.448 2.552-3.21 3.973-5.552 2.815l-10.998-5.446-20.339 14.287h-2.289l21.917-15.393-1.368-12.024c-.289-2.578 1.974-4.71 4.526-4.262 2.552.447 3.946 3.236 2.789 5.551l-5.078 10.13 10.971-7.709-1.368-12.024c-.289-2.579 1.974-4.71 4.526-4.263 2.552.448 3.947 3.237 2.789 5.552l-5.052 10.104 10.972-7.71-1.368-12.024c-.29-2.578 1.973-4.71 4.525-4.262 2.552.447 3.947 3.236 2.789 5.551l-5.078 10.13 6.604-4.631 6.657-8.419c1.605-2.026 4.736-1.947 6.21.184a3.836 3.836 0 0 1-1.895 5.92Z"/>
  <path fill="#fff" stroke="#FFCF2D" stroke-miterlimit="10" stroke-width="6" d="M238.072 743.255c-1.316.447-2.71.763-4.131.947-16.576 2.158-39.467-13.314-53.307-36.81-15.024-25.522-13.656-50.833 3.052-56.569 5.42-1.868 11.814-1.421 18.444.895 13.84 4.815 28.838 17.707 38.994 34.941 14.997 25.548 13.629 50.86-3.052 56.596Z"/>
  <path fill="#FFCF2D" d="M238.073 743.255a21.466 21.466 0 0 1-4.131.947c-15.314-6.946-28.627-36.362-31.442-72.093a166.754 166.754 0 0 1-.369-20.391c13.84 4.815 28.838 17.707 38.994 34.941 14.997 25.548 13.629 50.86-3.052 56.596Z"/>
  <path stroke="#FFCF2D" stroke-miterlimit="10" stroke-width="6" d="m177.346 654.533 56.569 89.669"/>
  <path fill="#fff" stroke="#FFCF2D" stroke-miterlimit="10" stroke-width="6" d="M244.807 746.36c18.309 0 33.152-44.164 33.152-98.642 0-54.478-14.843-98.641-33.152-98.641-18.31 0-33.153 44.163-33.153 98.641 0 54.478 14.843 98.642 33.153 98.642Z"/>
  <path stroke="#FFCF2D" stroke-miterlimit="10" stroke-width="6" d="M244.807 549.051V746.36"/>
  <path stroke="#FFCF2D" stroke-linecap="round" stroke-miterlimit="10" stroke-width="6" d="m265.935 572.705-21.128 28.311-17.918-35.468"/>
  <path stroke="#FFCF2D" stroke-linecap="round" stroke-miterlimit="10" stroke-width="6" d="m272.802 596.701-28.205 38.783-25.365-49.071"/>
  <path stroke="#FFCF2D" stroke-linecap="round" stroke-miterlimit="10" stroke-width="6" d="m277.195 624.38-32.863 45.309-30.021-57.885"/>
  <path stroke="#FFCF2D" stroke-linecap="round" stroke-miterlimit="10" stroke-width="6" d="m279.249 661.321-34.757 48.624-32.758-62.148"/>
  <path fill="#fff" stroke="#66B0F0" stroke-miterlimit="10" stroke-width="6" d="M293.954 777.065h-98.378c-7.577 0-13.734-6.157-13.734-13.735v-4.289c0-7.577 6.157-13.734 13.734-13.734h98.378c7.578 0 13.735 6.157 13.735 13.734v4.289c0 7.604-6.157 13.735-13.735 13.735Z"/>
  <path fill="#FE5244" d="M873.117 435.201c0 3.921-3.131 7.105-6.973 7.105H758.978c-3.867 0-6.972-3.184-6.972-7.105 0-3.92 3.131-7.104 6.972-7.104h107.166c3.842 0 6.973 3.184 6.973 7.104Z"/>
  <path fill="#fff" stroke="#FFCF2D" stroke-miterlimit="10" stroke-width="6" d="M827.888 361.214h-43.861v30.521h84.723c-5.368-18.102-21.996-30.521-40.862-30.521Z"/>
  <path fill="#FFCF2D" stroke="#FFCF2D" stroke-miterlimit="10" stroke-width="6" d="M791.92 361.214v30.521l-18.154.026v-30.547h18.154Z"/>
  <path stroke="#FFCF2D" stroke-miterlimit="10" stroke-width="6" d="m935.923 391.13-67.173.605s16.813-22.786 62.963-16.76c0 0-36.099-7.525-72.725 0"/>
  <path stroke="#FFCF2D" stroke-miterlimit="10" stroke-width="6" d="M868.75 391.735s29.442-16.181 65.331-8.341"/>
  <path fill="#FFCF2D" d="M876.246 416.705c0 2.868.447 5.473 1.158 7.393h-32.232c-1.657 0-3.026-1.447-3.026-3.21v-8.34c0-1.79 1.342-3.21 3.026-3.21h32.232c-.711 1.894-1.158 4.499-1.158 7.367Z"/>
  <path fill="#fff" d="M842.174 412.548v8.34a3.206 3.206 0 0 0 3.21 3.21h34.626v.605a2.65 2.65 0 0 1-2.657 2.658H756.241a2.65 2.65 0 0 1-2.657-2.658v-15.997a2.65 2.65 0 0 1 2.657-2.657h121.112a2.65 2.65 0 0 1 2.657 2.657v.605h-34.626c-1.763.027-3.21 1.447-3.21 3.237Z"/>
  <path stroke="#FFCF2D" stroke-miterlimit="10" stroke-width="6" d="M842.174 412.548v8.34a3.206 3.206 0 0 0 3.21 3.21h34.626v.605a2.65 2.65 0 0 1-2.657 2.658H756.241a2.65 2.65 0 0 1-2.657-2.658v-15.997a2.65 2.65 0 0 1 2.657-2.657h121.112a2.65 2.65 0 0 1 2.657 2.657v.605h-34.626c-1.763.027-3.21 1.447-3.21 3.237Z"/>
  <path fill="#FFCF2D" d="M797.051 448.015c-1.263 1.184-2.053 3.341-2.053 5.157 0 3.604 3.158 7.314 7.052 7.314h97.036a3.083 3.083 0 0 1-3.078 3.079H778.896c-3.131 0-5.973-1.184-8.025-3.079-2.052-1.894-3.342-4.525-3.342-7.446 0-5.815 5.078-10.524 11.367-10.524h117.112a3.082 3.082 0 0 1 3.078 3.078v.553H802.05c-1.974-.027-3.736.71-4.999 1.868Z"/>
  <path fill="#FE5244" d="M892.061 446.121v14.102h6.999v1.184h-97.352a8.017 8.017 0 0 1-3.078-.605c-1.027-.421-1.974-1.026-2.737-1.815a8.198 8.198 0 0 1-2.42-5.815 8.23 8.23 0 0 1 8.235-8.235h97.352v1.184h-6.999Z"/>
  <path fill="#fff" d="M894.771 446.12v14.103h-92.722a7.051 7.051 0 0 1-7.051-7.051c0-1.947.789-3.71 2.052-4.999a7.02 7.02 0 0 1 4.973-2.053h92.748Z"/>
  <path stroke="#FE5244" stroke-miterlimit="10" stroke-width="5" d="M894.771 446.12v14.103"/>
  <path fill="#FE5244" d="M814.968 456.119v11.761h-8.131v-10.262a4.44 4.44 0 0 0-4.446-4.446h-3.631v-1.5h11.761c2.473 0 4.447 2 4.447 4.447Z"/>
  <path fill="#66B0F0" d="M899.455 392.393h-138.24a6.468 6.468 0 0 0-6.473 6.472c.026 3.552 2.894 6.447 6.473 6.447h138.24a6.468 6.468 0 0 0 6.472-6.473c-.026-3.552-2.92-6.446-6.472-6.446Z"/>
  <path fill="#9A3B82" d="M868.092 405.338h-1.395c.158.421.553 1.474 1.421 1.474.526 0 3.105-.395 3.105-7.946 0-2.684-.316-4.736-.947-6.131-.763-1.658-1.763-1.842-2.132-1.842-.894 0-1.289 1.079-1.447 1.5h1.395a.648.648 0 0 1 .131-.184c.474.131 1.737 1.447 1.737 6.657 0 5.209-1.263 6.499-1.737 6.656a.468.468 0 0 1-.131-.184Zm11.42 0h-1.395c.158.421.553 1.473 1.421 1.473.526 0 3.105-.394 3.105-7.946 0-2.683-.316-4.736-.947-6.13-.763-1.658-1.763-1.842-2.132-1.842-.894 0-1.289 1.079-1.447 1.5h1.395a.648.648 0 0 1 .131-.184c.474.131 1.737 1.447 1.737 6.656 0 5.21-1.263 6.499-1.737 6.657-.026-.052-.079-.105-.131-.184Zm11.444 0h-1.395c.158.421.553 1.473 1.421 1.473.737 0 3.105-.579 3.105-7.946 0-7.393-2.368-7.946-3.105-7.946-.894 0-1.289 1.079-1.447 1.5h1.395a.648.648 0 0 1 .131-.184c.526.131 1.737 1.5 1.737 6.657 0 3.157-.447 4.788-.842 5.63-.316.684-.658.974-.895 1.026a.764.764 0 0 0-.105-.21Zm-57.201 0h-1.395c.158.421.553 1.473 1.421 1.473.526 0 3.105-.394 3.105-7.946 0-7.393-2.368-7.946-3.105-7.946-.894 0-1.289 1.079-1.447 1.5h1.394a.664.664 0 0 1 .132-.184c.526.132 1.737 1.5 1.737 6.657 0 5.209-1.263 6.499-1.737 6.657 0-.079-.053-.132-.105-.211Zm11.447 0h-1.394c.157.421.552 1.473 1.42 1.473.5 0 1.421-.21 2.132-1.684.631-1.342.973-3.446.973-6.262 0-2.815-.316-4.92-.973-6.262-.711-1.473-1.632-1.684-2.132-1.684-.894 0-1.289 1.079-1.447 1.5h1.395a.648.648 0 0 1 .131-.184c.316.052.632.394.895.947.368.789.842 2.421.842 5.71 0 3.262-.447 4.893-.842 5.709-.263.553-.605.895-.895.947a.764.764 0 0 0-.105-.21Zm11.443 0h-1.394c.158.421.552 1.473 1.421 1.473.736 0 3.104-.579 3.104-7.946 0-7.577-2.578-7.946-3.104-7.946-.895 0-1.29 1.079-1.447 1.5h1.394a.644.644 0 0 1 .132-.184c.473.131 1.736 1.447 1.736 6.657 0 5.157-1.21 6.525-1.736 6.656a.798.798 0 0 0-.106-.21Zm-57.198 0h-1.394c.157.421.552 1.474 1.42 1.474.395 0 1.395-.184 2.132-1.842.631-1.368.947-3.447.947-6.13 0-2.474-.342-4.552-.947-5.973-.553-1.263-1.342-2-2.158-2-.894 0-1.289 1.079-1.447 1.5h1.395c.052-.079.078-.158.105-.184.158.079.526.368.894 1.21.395.868.842 2.526.842 5.42 0 5.21-1.263 6.499-1.736 6.657.026 0 0-.053-.053-.132Zm11.445 0h-1.394c.158.421.552 1.473 1.421 1.473.394 0 1.394-.184 2.131-1.841.631-1.369.947-3.447.947-6.131 0-7.393-2.368-7.946-3.105-7.946-.894 0-1.289 1.079-1.447 1.5h1.395a.648.648 0 0 1 .131-.184c.527.131 1.737 1.499 1.737 6.656 0 5.21-1.263 6.499-1.737 6.657 0-.052-.026-.105-.079-.184Zm11.443 0h-1.395c.158.421.553 1.473 1.421 1.473.737 0 3.105-.579 3.105-7.946 0-2.815-.316-4.92-.974-6.262-.71-1.473-1.631-1.684-2.131-1.684-.894 0-1.289 1.079-1.447 1.5h1.395a.648.648 0 0 1 .131-.184c.316.052.632.394.895.947.368.789.842 2.421.842 5.71 0 5.157-1.211 6.525-1.737 6.656-.026-.079-.079-.131-.105-.21Zm-57.199 0h-1.395c.158.421.553 1.473 1.421 1.473.816 0 1.579-.736 2.157-1.999.632-1.421.948-3.473.948-5.973 0-2.92-.527-4.762-.948-5.788-.578-1.369-1.368-2.158-2.157-2.158-.895 0-1.289 1.079-1.447 1.5h1.394c.053-.079.079-.132.106-.184.184.105.578.473.947 1.473.368.921.789 2.552.789 5.157 0 2.921-.447 4.552-.842 5.447-.368.842-.737 1.131-.894 1.21 0-.026-.053-.079-.079-.158Zm11.42 0h-1.395c.158.421.553 1.473 1.421 1.473.816 0 1.579-.736 2.157-1.999.632-1.421.948-3.473.948-5.973 0-5.157-1.605-7.946-3.105-7.946-.895 0-1.289 1.079-1.447 1.5h1.394c.053-.079.079-.132.105-.184.185.105.553.473.948 1.42.368.895.789 2.553.789 5.21 0 2.921-.447 4.552-.842 5.447-.368.842-.737 1.131-.895 1.21 0-.026-.026-.079-.078-.158Zm11.443 0h-1.395c.158.421.553 1.474 1.421 1.474.395 0 1.368-.185 2.158-1.947.631-1.421.947-3.447.947-5.999 0-2.474-.342-4.552-.947-5.973-.553-1.263-1.342-2-2.158-2-.894 0-1.289 1.079-1.447 1.5h1.395c.052-.079.079-.158.105-.184.158.079.526.368.894 1.21.395.868.842 2.526.842 5.42 0 2.974-.447 4.605-.842 5.473-.368.816-.736 1.105-.894 1.158 0 0-.026-.053-.079-.132Z"/>
  <path fill="#FFCF2D" d="M850.623 207.45h-92.248a9.646 9.646 0 0 1-9.656-9.656v-92.248a9.646 9.646 0 0 1 9.656-9.656h92.248a9.646 9.646 0 0 1 9.656 9.656v92.248c0 5.341-4.342 9.656-9.656 9.656Z"/>
  <path fill="#fff" stroke="#FFCF2D" stroke-miterlimit="10" stroke-width="6" d="M843.887 201.267h-94.063a9.646 9.646 0 0 1-9.656-9.656V97.548a9.646 9.646 0 0 1 9.656-9.656h94.063a9.647 9.647 0 0 1 9.657 9.656v94.063a9.646 9.646 0 0 1-9.657 9.656Z"/>
  <path stroke="#FFCF2D" stroke-miterlimit="10" stroke-width="6" d="M796.869 187.98c23.977 0 43.414-19.437 43.414-43.414 0-23.976-19.437-43.413-43.414-43.413s-43.414 19.437-43.414 43.413c0 23.977 19.437 43.414 43.414 43.414Z"/>
  <path stroke="#FFCF2D" stroke-linecap="round" stroke-miterlimit="10" stroke-width="6" d="m772.453 125.938 24.417 18.628-5.999-18.391"/>
  <path fill="#FFCF2D" d="M719.567 480.062h-74.382l-31.232-37.52h72.593l33.021 37.52Z"/>
  <path fill="#fff" stroke="#66B0F0" stroke-miterlimit="10" stroke-width="6" d="M759.851 482.01v23.154l-58.938.236c-7.551.027-13.681-6.078-13.681-13.629v-7.183c0-4.789-1.763-9.393-4.921-12.945l-19.444-21.839h72.593l18.576 18.339a19.345 19.345 0 0 1 5.815 13.867Z"/>
  <path fill="#fff" stroke="#66B0F0" stroke-miterlimit="10" stroke-width="6" d="M786.372 497.007a15.212 15.212 0 0 1-13.63 8.419h-72.619c5.946 0 11.103-3.42 13.629-8.419h72.62Z"/>
  <path fill="#FE5244" d="m741.354 352.794-44.308-77.829c-10.578-18.602-30.337-30.073-51.729-30.073H479.372l5.815-12.551c-.474 1.026-2.974 1.289-6.789.763-5.841-.789-14.734-3.341-24.206-7.551-5.42-2.395-10.341-4.894-14.419-7.21-7.709-4.394-12.366-8.235-11.603-9.945l-84.723 138.95c-18.602 27.127.816 63.989 33.705 63.989 4.42 0 8.788-.71 12.945-2.105a40.848 40.848 0 0 0 11.604-6.104l65.068-48.913c3.92-2.947 9.524-.658 10.314 4.157l8.498 52.965h221.7c30.073.026 48.939-32.442 34.073-58.543Zm-98.615 6.078 7.104-16.155c1.21-2.763 5.104-2.815 6.367-.079l7.709 16.261h-21.18v-.027Z"/>
  <path stroke="#FE5244" stroke-miterlimit="10" stroke-width="6" d="M505.789 244.839c0-13.603 28.074-30.416 62.121-34.705 51.071-6.393 62.121 21.102 62.121 34.705"/>
  <path fill="#FE5244" d="M624.136 245.076c0 12.182-56.227 37.125-56.227 37.125s-56.227-24.943-56.227-37.125c0-12.183 26.732-26.285 57.543-30.048 44.334-5.42 54.911 17.839 54.911 30.048Z"/>
  <path fill="#fff" d="M624.136 245.075c0 12.183-56.227 37.126-56.227 37.126s-56.227-24.943-56.227-37.126v-.158h112.454v.158Z"/>
  <path stroke="#fff" stroke-miterlimit="10" stroke-width="6" d="M630.004 244.812c0 13.446-62.095 44.019-62.095 44.019s-62.095-30.547-62.095-44.019"/>
  <path stroke="#fff" stroke-linecap="round" stroke-miterlimit="10" stroke-width="5" d="M615.822 410.758c3.473 0 6.289-11.498 6.289-25.654 0-14.155-2.816-25.653-6.289-25.653"/>
  <path stroke="#fff" stroke-miterlimit="10" stroke-width="5" d="m483.898 237.498-48.703 97.378"/>
  <path stroke="#fff" stroke-linecap="round" stroke-miterlimit="10" stroke-width="5" d="m473.32 332.64 8.052 52.991m83.907-90.564h5.263m-5.263 6.263h5.263m-5.263 6.235h5.263m-5.263 6.236h5.263m-5.263 6.236h5.263m-5.263 6.262h5.263m-5.263.289h5.263m-5.263 6.236h5.263m-5.263 6.236h5.263m-5.263 5.947h5.263m-5.263 6.261h5.263m-5.263 6.236h5.263m-5.263 6.236h5.263m-5.263 6.236h5.263m-5.263 6.262h5.263m-5.263 6.236h5.263m-5.263 6.235h5.263m-5.263 6.236h5.263m-5.263.316h5.263m-5.263 6.236h5.263m-5.263 6.235h5.263"/>
  <path stroke="#fff" stroke-miterlimit="10" stroke-width="5" d="M564.727 286.569v99.062"/>
  <path stroke="#fff" stroke-linecap="round" stroke-miterlimit="10" stroke-width="5" d="M612.77 359.398h63.278"/>
  <path fill="#fff" stroke="#66B0F0" stroke-miterlimit="10" stroke-width="6" d="M436.693 462.933h202.045l-18.997-51.386H458.584l-21.891 51.386Z"/>
  <path fill="#66B0F0" d="M436.693 462.933c0-7.262 19.26-20.391 50.544-22.18 33.495-1.894 51.044 19.155 50.545 22.18H436.693Z"/>
  <path fill="#fff" stroke="#66B0F0" stroke-linejoin="round" stroke-miterlimit="10" stroke-width="6" d="M537.754 462.933s-8.893-41.572-86.959-33.099l16.866-41.02s63.936-11.629 70.119 22.733l-.026 51.386Z"/>
  <path fill="#fff" stroke="#66B0F0" stroke-linejoin="round" stroke-miterlimit="10" stroke-width="6" d="M637.555 459.697c-4.657-6.446-22.602-13.182-49.334-14.708-31.784-1.815-49.202 13.287-50.465 17.392v-50.834s22.68-25.89 81.986 0l17.813 48.15Z"/>
  <path stroke="#66B0F0" stroke-linecap="round" stroke-linejoin="round" stroke-miterlimit="10" stroke-width="6" d="M610.27 438.437c-6.631-1.683-14.656-2.946-23.812-3.473-4.552-.263-8.788-.131-12.682.29-9.656 1.079-17.26 3.973-22.68 7.078m56.83-12.656c-6.341-1.5-13.892-2.631-22.417-3.131-4.552-.263-8.788-.132-12.682.289-9.656 1.079-17.26 3.973-22.681 7.078m55.624-12.972c-6.052-1.342-13.077-2.341-20.97-2.815-4.552-.263-8.788-.132-12.682.289-9.656 1.079-17.26 3.973-22.68 7.078"/>
  <path stroke="#66B0F0" stroke-miterlimit="10" stroke-width="6" d="m614.453 409.232 16.734 45.571"/>
  <path fill="#66B0F0" d="M638.765 462.933H537.756v-.552c1.263-4.105 18.681-19.207 50.465-17.392 26.732 1.526 44.677 8.262 49.334 14.708l1.21 3.236Z"/>
  <path fill="#E57281" d="M600.14 244.891s-18.839 9.814-44.992 5.867c-6.499-.973-13.472-2.815-20.681-5.867v-31.679l33.889-21.102 5.078 8.446 26.706 44.335Z"/>
  <path fill="#9A3B82" d="M570.224 194.61a15.015 15.015 0 0 1 .895 12.261l-15.971 43.887c-6.499-.973-13.472-2.815-20.681-5.867v-31.679l34.047-21.759 1.71 3.157Zm-2.92-14.182s3.973-35.336-10.156-38.572c-10.787-2.473-16.155 5.657-16.155 5.657s-5.841-8.525-14.892-4.526c-8.604 3.789-7.999 15.603-4.131 14.656 3.868-.947-3.736-8.525-11.867-2.921-8.998 6.183 0 16.392 0 16.392s-6.656-3.21-9.735 3.342c-3.815 8.13 17.971 25.653 17.971 25.653l48.965-19.681Z"/>
  <path fill="#E57281" d="m545.784 163.353-22.602 9.077c-5.446 2.184-8.104 8.42-5.92 13.84l9.867 24.601c3.631 9.077 14.05 13.498 23.101 9.867l9.394-3.763c9.077-3.631 13.497-14.05 9.866-23.101l-9.866-24.601c-2.184-5.447-8.42-8.104-13.84-5.92Z"/>
  <path fill="#E57281" d="m574.043 192.032-4.552 1.842-4.946-12.314 4.552-1.842a5.267 5.267 0 0 1 6.841 2.921l1.026 2.552c1.105 2.684-.211 5.736-2.921 6.841Z"/>
  <path fill="#9A3B82" d="m522.236 211.818 4.552-1.842-4.605-11.445-4.552 1.842c-2.71 1.078-3.999 4.157-2.92 6.841l.684 1.683a5.266 5.266 0 0 0 6.841 2.921Z"/>
  <path stroke="#9A3B82" stroke-linecap="round" stroke-miterlimit="10" stroke-width="5" d="M568.491 188.085a4.16 4.16 0 0 1 2.316-5.393m-24.444-5.999s4.455-2.142 12.13-1.211m-23.419 10.209s7.973-.816 10.867 12.603m11.762 4.368s-4.348 6.553-11.34 2.921"/>
  <path fill="#9A3B82" d="M556.057 190.217c.562-.199.62-1.481.13-2.865-.49-1.383-1.343-2.344-1.905-2.145-.561.199-.619 1.482-.129 2.866.49 1.383 1.343 2.343 1.904 2.144Zm-21.701 9.055c.562-.199.62-1.482.129-2.865-.49-1.384-1.342-2.344-1.904-2.145-.561.199-.619 1.482-.129 2.865.49 1.383 1.342 2.344 1.904 2.145Z"/>
  <path stroke="#FFCF2D" stroke-linecap="round" stroke-miterlimit="10" stroke-width="5" d="M555.809 195.268c4.2 0 7.604-3.404 7.604-7.604s-3.404-7.604-7.604-7.604a7.603 7.603 0 0 0-7.604 7.604c0 4.2 3.404 7.604 7.604 7.604Zm-22.365 8.683a7.605 7.605 0 1 0-.001-15.21 7.605 7.605 0 0 0 .001 15.21Zm7.105-10.34 8.025-3.684"/>
  <path fill="#fff" stroke="#FE5244" stroke-miterlimit="10" stroke-width="6" d="M486.765 229.446c-.447 1.026-2.973 1.29-6.788.763-5.841-.789-14.735-3.341-24.207-7.551-5.42-2.421-10.34-4.894-14.392-7.209-7.709-4.394-12.366-8.236-11.603-9.946.763-1.684 6.683-.868 15.05 1.842 4.499 1.447 9.682 3.447 15.155 5.893 9.367 4.158 17.497 8.21 22.286 11.341 3.263 2.105 4.973 3.815 4.499 4.867Z"/>
  <path fill="#9A3B82" d="m531.416 176.087-7.156 27.653-6.447-16.05c-2.473-6.157.5-13.208 6.578-15.787l7.025 4.184Z"/>
  <path fill="#E57281" d="m531.68 175.587-14.208 24.627a9.204 9.204 0 0 1-7.972 4.605h-14.682a5.304 5.304 0 0 0-4.894 3.289l-7.63 16.497-2.237 4.815c-6.446-.868-15.418-3.657-23.996-7.473-3.21-1.42-6.341-2.92-9.235-4.42l3.868-8.077 6.92-14.445a40.149 40.149 0 0 1 16.313-18.76l14.313-8.604a12.294 12.294 0 0 1 6.289-1.737h24.311c1.342 0 2.658.29 3.842.869l7.314 3.473c2.026.973 2.789 3.42 1.684 5.341Z"/>
  <path stroke="#9A3B82" stroke-linecap="round" stroke-miterlimit="10" stroke-width="5" d="M497.316 176.376h17.366a8.61 8.61 0 0 1 3.71.842l7.025 3.368a3.68 3.68 0 0 1 1.605 5.131M493 183.848h17.365c1.29 0 2.553.29 3.71.842l7.026 3.368a3.679 3.679 0 0 1 1.604 5.131m-34.783.421h17.365c1.29 0 2.553.29 3.71.842l7.025 3.368a3.678 3.678 0 0 1 1.605 5.131"/>
  <path fill="#9A3B82" d="M480.081 229.42c-6.446-.869-15.419-3.658-23.996-7.473a168.224 168.224 0 0 1-9.235-4.42l4.367-8.92c2.921 1.105 5.789 2.368 8.999 3.816 9.367 4.157 17.549 8.498 22.338 11.629l-2.473 5.368Z"/>
  <path stroke="#9A3B82" stroke-linecap="round" stroke-miterlimit="10" stroke-width="5" d="M482.793 204.109h12.314"/>
  <path fill="#fff" d="M612.663 411.336c3.473 0 6.289-11.745 6.289-26.232 0-14.488-2.816-26.233-6.289-26.233s-6.288 11.745-6.288 26.233c0 14.487 2.815 26.232 6.288 26.232Z"/>
  <path fill="#E57281" d="M618.952 385.104c0 4.499-.263 8.735-.763 12.445a15.72 15.72 0 0 1-9.183 8.998c-1.71.632-3.578 1-5.525 1h-23.865a5.457 5.457 0 0 0-5.446 5.447v.736c0 4.394-4.684 7.236-8.578 5.184l-11.208-5.868a6.104 6.104 0 0 1-3.263-5.394v-8.761c0-3.289 1.552-6.368 4.157-8.341l17.103-12.866a16.637 16.637 0 0 1 10.024-3.342h35.968c.395 3.289.579 6.92.579 10.762Z"/>
  <path stroke="#9A3B82" stroke-linecap="round" stroke-miterlimit="10" stroke-width="5" d="m576.697 382.815-15.708 11.813a9.636 9.636 0 0 0-3.815 7.657v8.051c0 2.079 1.158 4 2.999 4.947"/>
  <path stroke="#9A3B82" stroke-linecap="round" stroke-miterlimit="10" stroke-width="5" d="m584.695 386.341-15.708 11.813a9.635 9.635 0 0 0-3.815 7.657v8.051c0 2.079 1.158 4 2.999 4.947"/>
  <path fill="#9A3B82" d="M618.951 385.104c0 4.499-.263 8.735-.763 12.445a15.72 15.72 0 0 1-9.183 8.998c-1.605-4.762-2.657-12.576-2.657-21.443 0-3.842.21-7.473.552-10.762h11.498c.369 3.289.553 6.92.553 10.762Z"/>
  <path fill="#FFCF2D" d="M664.656 423.335c15.752 0 28.522-1.072 28.522-2.394 0-1.323-12.77-2.395-28.522-2.395-15.752 0-28.521 1.072-28.521 2.395 0 1.322 12.769 2.394 28.521 2.394Z"/>
  <path fill="#fff" stroke="#FFCF2D" stroke-miterlimit="10" stroke-width="6" d="M688.39 422.756h-11.787c-10.946 0-19.787-8.867-19.787-19.786v-16.813h51.386v16.787c0 10.945-8.866 19.812-19.812 19.812Z"/>
  <path stroke="#FFCF2D" stroke-miterlimit="10" stroke-width="6" d="M715.385 400.549h-7.209v-12.813h7.209a5.608 5.608 0 0 1 5.604 5.604v1.631c0 3.079-2.526 5.578-5.604 5.578Z"/>
  <path fill="#3FB1B5" stroke="#fff" stroke-miterlimit="10" stroke-width="5" d="M682.495 391.156c14.313 0 25.916-2.32 25.916-5.183s-11.603-5.183-25.916-5.183c-14.314 0-25.917 2.32-25.917 5.183s11.603 5.183 25.917 5.183Z"/>
  <path stroke="#FFCF2D" stroke-miterlimit="10" stroke-width="6" d="M656.842 390.183c0 2.868 11.498 5.183 25.653 5.183 14.156 0 25.654-2.315 25.654-5.183m-51.307 5.499c0 2.868 11.498 5.183 25.653 5.183 14.156 0 25.654-2.315 25.654-5.183m-51.307 5.498c0 2.868 11.498 5.184 25.653 5.184 14.156 0 25.654-2.316 25.654-5.184m-50.913 5.5c0 2.868 11.314 5.183 25.259 5.183s25.259-2.315 25.259-5.183m-48.545 5.499c0 2.868 10.419 5.183 23.286 5.183 12.866 0 23.285-2.315 23.285-5.183"/>
  <path stroke="#fff" stroke-linecap="round" stroke-miterlimit="10" stroke-width="5" d="M681.469 376.764c-2.526-1.737-10.393-18.287-.658-25.049 7.473-5.209 8.92 8.289 5.473 7.157-5.999-1.973-9.656-28.39 5.999-26.758 6.893.71 6.13 10.524 0 10.787"/>
  <path fill="#fff" stroke="#FFCF2D" stroke-miterlimit="10" stroke-width="6" d="M375.467 454.067h-129.32a8.467 8.467 0 0 1-7.867-5.315l-35.389-87.459c-1.684-4.183 1.394-8.762 5.894-8.762h129.32a8.467 8.467 0 0 1 7.867 5.315l35.389 87.459c1.71 4.184-1.368 8.762-5.894 8.762Z"/>
  <path fill="#FFCF2D" d="M369.469 454.698H246.095a8.099 8.099 0 0 1-7.499-5.051l-33.757-83.434c-1.605-3.999 1.315-8.34 5.63-8.34h123.374a8.099 8.099 0 0 1 7.499 5.051l33.757 83.434c1.605 3.999-1.341 8.34-5.63 8.34Z"/>
  <path fill="#fff" d="M293.719 416.758a13.534 13.534 0 0 1-9.63-4 11.03 11.03 0 0 1-3.263-7.841c0-2.973 1.158-5.762 3.263-7.84a9.033 9.033 0 0 1 6.42-2.658c2.42 0 4.709.947 6.42 2.658a7.48 7.48 0 0 1 0 10.577 6.195 6.195 0 0 1-8.762 0 1.049 1.049 0 0 1 0-1.5 1.049 1.049 0 0 1 1.5 0 4.08 4.08 0 0 0 5.788 0 5.367 5.367 0 0 0 0-7.604 6.963 6.963 0 0 0-4.946-2.052 6.967 6.967 0 0 0-4.947 2.052 8.892 8.892 0 0 0-2.631 6.367c0 2.395.947 4.658 2.631 6.368a11.381 11.381 0 0 0 8.13 3.368c3.079 0 5.973-1.184 8.131-3.368a1.047 1.047 0 0 1 1.499 0 1.047 1.047 0 0 1 0 1.499 13.51 13.51 0 0 1-9.603 3.974Z"/>
  <path fill="#fff" stroke="#FFCF2D" stroke-miterlimit="10" stroke-width="6" d="M421.75 463.329H246.306a3.65 3.65 0 0 1-3.658-3.657v-1.763a3.65 3.65 0 0 1 3.658-3.658H421.75a3.65 3.65 0 0 1 3.657 3.658v1.763c-.026 2.026-1.658 3.657-3.657 3.657Z"/>
</svg>
