<svg xmlns="http://www.w3.org/2000/svg" width="854" height="594" fill="none" viewBox="0 0 854 594">
  <path stroke="#66B0F0" stroke-miterlimit="10" stroke-width="6" d="M573.57 3H282.478v275.111H573.57V3Z"/>
  <path stroke="#66B0F0" stroke-miterlimit="10" stroke-width="6" d="M428.024 3H282.478v275.111h145.546V3Z"/>
  <path stroke="#66B0F0" stroke-miterlimit="10" stroke-width="6" d="M573.57 3H428.023v275.111H573.57V3Z"/>
  <path stroke="#66B0F0" stroke-miterlimit="10" stroke-width="6" d="M546.713 29.613h-88.754v88.754h88.754V29.613Z"/>
  <path stroke="#66B0F0" stroke-linecap="round" stroke-miterlimit="10" stroke-width="6" d="m515.931 72.296-10.32 7.801m-14.375 10.877-33.277 25.164v-18.5l88.732-65.796v17.207l-23.916 18.076"/>
  <path fill="#66B0F0" d="M282.478 3h145.546v21.286L282.478 3Z"/>
  <path stroke="#66B0F0" stroke-miterlimit="10" stroke-width="6" d="M464.378 178.837a2.828 2.828 0 0 1-2.452-1.427l-21.285-37.222c-1.07-1.872.289-4.235 2.451-4.235 1.003 0 1.939.535 2.452 1.427l21.286 37.222c1.07 1.895-.29 4.235-2.452 4.235ZM397.732 29.613h-88.754v88.754h88.754V29.613Z"/>
  <path stroke="#66B0F0" stroke-linecap="round" stroke-miterlimit="10" stroke-width="6" d="m308.978 97.638 88.731-65.796"/>
  <path stroke="#66B0F0" stroke-miterlimit="10" stroke-width="6" d="M391.292 178.837a2.825 2.825 0 0 0 2.451-1.427l21.286-37.222c1.07-1.872-.29-4.235-2.452-4.235a2.825 2.825 0 0 0-2.451 1.427l-21.286 37.222c-1.07 1.895.29 4.235 2.452 4.235Z"/>
  <path fill="#D0F0E4" d="M801.231 545.912 51.412 588.261v-60.247h749.819v17.898Zm-34.169-64.593L90.328 523.668v-60.247h676.734v17.898Zm-43.574-64.37L126.86 459.298v-60.247h596.628v17.898Zm-34.346-63.925-521.581 42.349v-60.247h521.581v17.898Z"/>
  <path stroke="#66B0F0" stroke-miterlimit="10" stroke-width="6" d="M51.412 528.014h749.819v58.018M90.328 463.198h676.734v60.492M126.86 398.828h596.628v60.469M167.783 334.903h521.359v60.47"/>
  <path fill="#D0F0E4" d="m642.334 292.622-427.946 37.11V276.93h427.946v15.692Z"/>
  <path stroke="#66B0F0" stroke-miterlimit="10" stroke-width="6" d="M214.566 276.729h427.768v53.003m-474.731 68.137V258.742m115.167-94.393L20.987 378.79a48.826 48.826 0 0 0-14.31 34.526c0 26.969 21.866 49.949 48.836 49.949M89.66 523.69V322.399m599.481 75.916V258.742m-115.166-94.393L835.779 378.79a48.825 48.825 0 0 1 14.31 34.526c0 26.969-21.865 49.949-48.835 49.949m-34.147 60.425V322.399"/>
  <path fill="#3FB1B5" d="M731.554 589.487s29.176-52.357 11.457-52.647c-8.27-.133-16.739 28.196-13.53 52.647h2.073Z"/>
  <path stroke="#FFCF2D" stroke-linecap="round" stroke-miterlimit="10" stroke-width="6" d="M730.283 589.197s10.833-49.013 37-41.101c26.167 7.913-18.5 41.101-18.5 41.101m-53.515.847c-9.072-.847-14.198-17.073-3.455-22.489 15.446-7.779 20.283 8.469 17.229 9.004-3.053.558-7.355-19.993 5.974-19.436 13.329.558 13.819 32.074 13.819 32.074"/>
  <path stroke="#FFCF2D" stroke-linecap="round" stroke-miterlimit="10" stroke-width="6" d="M741.25 589.197s13.931-33.835 27.504-40.588"/>
  <path stroke="#FFCF2D" stroke-miterlimit="10" stroke-width="6" d="M726.404 571.633s-3.276-18.165-3.41-30.112m7.379 8.091c-.646 1.605-5.639 5.595-5.639 5.595s-.802-6.353-.156-7.958a3.11 3.11 0 0 1 4.056-1.716 3.138 3.138 0 0 1 1.739 4.079Z"/>
  <path stroke="#FFCF2D" stroke-miterlimit="10" stroke-width="6" d="M728.701 536.841c-.646 1.604-5.639 5.594-5.639 5.594s-.802-6.352-.156-7.957a3.11 3.11 0 0 1 4.057-1.716c1.604.668 2.385 2.474 1.738 4.079ZM717.2 551.016c.936 1.449 6.597 4.413 6.597 4.413s-.423-6.374-1.359-7.823c-.936-1.449-2.875-1.85-4.324-.914a3.13 3.13 0 0 0-.914 4.324Z"/>
  <path fill="#3FB1B5" d="M82.858 590.401s-17.92-16.182-17.564-27.795c.401-13.284 13.106-6.865 13.775-11.657.69-4.769-13.418-37.4 6.218-37.155 19.637.245 10.498 31.539 15.825 34.436 5.328 2.875 14.154-.557 11.769 12.103-2.385 12.682-22.222 29.912-22.222 29.912l-7.801.156Z"/>
  <path stroke="#FFCF2D" stroke-linecap="round" stroke-miterlimit="10" stroke-width="6" d="M29.053 590c-11.613 0-20.55-21.219-2.653-26.836 17.898-5.617 19.86 11.3 15.96 11.947-3.901.646-5.84-32.498 26.367-27.995C103.876 552.019 82.39 590 82.39 590s20.729-34.86 1.672-75.693m22.667 75.692s18.188-38.069 35.64-25.944c17.453 12.125-23.514 25.944-23.514 25.944"/>
  <path stroke="#FFCF2D" stroke-linecap="round" stroke-miterlimit="10" stroke-width="6" d="M113.282 589.665s17.675-23.626 29.332-25.365M90.97 589.776s9.563-22.266 18.032-35.461"/>
  <path stroke="#FFCF2D" stroke-miterlimit="10" stroke-width="6" d="M111.255 568.49c-1.872 1.293-10.231 2.073-10.231 2.073s3.723-7.533 5.573-8.826a4.09 4.09 0 0 1 5.706 1.047c1.292 1.873.824 4.436-1.048 5.706Zm7.399-15.201c-1.872 1.293-10.23 2.073-10.23 2.073s3.722-7.534 5.572-8.826a4.09 4.09 0 0 1 5.706 1.047c1.293 1.873.825 4.436-1.048 5.706Zm3.099-12.905c-1.204 1.917-8.581 5.929-8.581 5.929s.423-8.381 1.649-10.297a4.112 4.112 0 0 1 5.662-1.293c1.916 1.203 2.474 3.744 1.27 5.661Zm-25.968 20.127c-.022 2.273 4.035 9.629 4.035 9.629s4.145-7.311 4.168-9.562a4.077 4.077 0 0 0-4.08-4.124 4.086 4.086 0 0 0-4.123 4.057Zm8.292-15.023c-.022 2.274 4.035 9.629 4.035 9.629s4.145-7.311 4.168-9.562a4.077 4.077 0 0 0-4.079-4.123 4.1 4.1 0 0 0-4.124 4.056Z"/>
  <path stroke="#66B0F0" stroke-miterlimit="10" stroke-width="6" d="M638.92 590.044h187.85m-826.625 0h453.221"/>
  <path fill="#FE5244" d="M412.137 162.12c0 1.382-.156 2.742-.445 4.079l-.201.802a18.784 18.784 0 0 1-3.856 7.378c-.022.022-.044.067-.067.089-.2.245-.423.468-.646.713-.045.067-.112.112-.156.156a18.85 18.85 0 0 1-2.452 2.118 18.954 18.954 0 0 1-4.926 2.585l-.802.268a18.83 18.83 0 0 1-7.378.668 9.595 9.595 0 0 1-.802-.111c-2.608-.401-5.127-1.315-7.378-2.764l-.802-.535a18.418 18.418 0 0 1-2.742-2.385c-.245-.267-.49-.512-.713-.802a17.667 17.667 0 0 1-1.337-1.783l-1.404-2.118 1.248 3.901.245.802 2.34 7.378.245.802 2.118 6.687.223.691.245.802.334 1.026 2.006 6.352.245.802 2.341 7.378.245.802 2.34 7.378.179.58.066.222.736 2.296.134.424a.758.758 0 0 0-.134-.268c-.156-.223-.424-.423-.802-.602-1.271-.624-3.812-1.092-7.378-1.359l-.802-.067a160.99 160.99 0 0 0-7.378-.268h-.802c-2.274-.022-4.726 0-7.378.067-.268 0-.535.023-.802.023-2.341.066-4.793.156-7.378.267-.268.022-.535.022-.803.045-2.362.111-4.814.245-7.377.401-.268.022-.535.022-.803.044-2.384.156-4.836.312-7.377.513l-.803.067c-2.407.178-4.859.379-7.377.602l-.736.067h-.067c-2.496.222-4.97.445-7.377.691a9.522 9.522 0 0 0-.803.089c-2.518.245-4.992.512-7.377.802-.268.022-.535.067-.803.089-2.54.29-5.015.602-7.377.936-.268.045-.535.067-.803.112-2.585.356-5.037.713-7.377 1.07l-.803.133c-2.54.402-4.903.825-7.11 1.226a1.082 1.082 0 0 1-.267.045c-.268.044-.535.111-.803.156a157.6 157.6 0 0 0-2.875.602c-1.649.356-3.143.713-4.502 1.07a10.44 10.44 0 0 0-.803.222c-4.68 1.271-7.333 2.519-7.333 3.634v-32.007h-24.584c-.268 0-.535 0-.803-.023a25.172 25.172 0 0 1-7.377-1.381c-.268-.09-.535-.201-.803-.29a25.426 25.426 0 0 1-6.686-3.901 16.066 16.066 0 0 1-.691-.579c-.089-.067-.156-.134-.245-.223a11.311 11.311 0 0 1-.558-.513c-.156-.134-.289-.29-.445-.446a24.779 24.779 0 0 1-4.659-6.441 13.478 13.478 0 0 1-.379-.802 24.227 24.227 0 0 1-2.095-7.378 9.98 9.98 0 0 1-.089-.802 25.92 25.92 0 0 1-.111-2.296c0-1.716.178-3.433.512-5.082.045-.268.112-.535.179-.802a24.946 24.946 0 0 1 3.098-7.378c.133-.201.267-.424.401-.624l.111-.178 3.455-5.194.802-1.203.669-.981.535-.802 4.926-7.378.535-.802.735-1.093.803-1.203 3.388-5.082.535-.802 3.454-5.194.803-1.203.646-.981.535-.802 4.926-7.378.535-.802.134-.201c.2-.29.401-.557.601-.847.268-.357.535-.691.803-1.048a34.423 34.423 0 0 1 5.215-5.282l1.003-.803c.379-.289.78-.579 1.159-.846l.803-.535a35.33 35.33 0 0 1 7.377-3.745c.268-.089.535-.201.803-.29a34.704 34.704 0 0 1 7.377-1.671c.268-.023.535-.067.803-.09a34.273 34.273 0 0 1 3.388-.156h62.475l.067-.022 2.051-.802 4.814-1.872.803-.313 7.377-2.875.803-.312 5.193-2.006 2.051-.802.133-.067.803-.312 1.382-.535.49.914.446.802 4.034 7.378.446.802.579 1.07.803 1.471 2.652 4.837.446.802 4.034 7.378.245.468.179.334.624 1.115 3.41 6.263.446.802 3.521 6.442.513.936.29.512.156.29 4.034 7.378.446.802 2.741 5.015.803 1.471.49.892.446.802 1.315 2.407a19.286 19.286 0 0 1 1.872 4.971c.067.267.112.535.156.802.245 1.026.334 2.14.334 3.232Z"/>
  <g opacity=".2">
    <path fill="#fff" d="M235.853 151.645v39.317c-.089-.067-.156-.134-.245-.223a11.78 11.78 0 0 1-.557-.512v-37.379l.802-1.203Zm16.36-24.541v70.032c-.268 0-.535 0-.803-.022v-68.806l.803-1.204Zm-8.18 12.259v56.347c-.268-.09-.535-.201-.803-.29v-54.853l.803-1.204Zm24.542-31.806v89.557h-.803v-89c.268-.178.535-.379.803-.557Zm-8.18 7.489v82.068h-.802v-81.02c.267-.357.535-.691.802-1.048Zm24.54-13.262v123.525c-.267.067-.535.134-.802.223V101.851l.802-.067Zm-8.179 1.761v93.591h-.803v-93.324l.803-.267Zm16.339-1.962v121.898c-.267.045-.535.112-.802.156V101.583h.802Zm16.358 0v119.313c-.268.044-.535.067-.803.111V101.583h.803Zm-8.18 0v120.494l-.802.134V101.583h.802Zm24.539 0v117.418a9.93 9.93 0 0 0-.802.089V101.583h.802Zm-8.18 0V219.87c-.267.023-.534.067-.802.09V101.583h.802Zm24.54 0v115.992l-.803.067V101.583h.803Zm-8.18 0v116.66l-.736.067h-.067V101.583h.803Zm16.338 0V217.04c-.268.022-.535.022-.803.044V101.583h.803Zm16.359-6.151v120.895c-.267 0-.535.022-.802.022V95.744l.802-.312Zm-8.18 3.165v117.997c-.267.023-.535.023-.802.045V98.909l.802-.312Zm24.541 5.528v73.976l-.802-.535v-74.89l.802 1.449Zm0 88.442v24.005l-.802-.067v-26.479l.223.691.245.802.334 1.048Zm-8.179-100.434v.112l-.803.312v-.424h.803Zm0 .112V216.26h-.803V92.557l.803-.312Zm24.537 41.769v46.027l-.803.267v-47.743l.513.937.29.512Zm-8.176 84.363v.178c-.156-.223-.423-.423-.802-.601v-2.096l.067.223.735 2.296Zm0-99.319v61.896c-.267-.022-.535-.067-.802-.111v-63.234l.178.335.624 1.114Zm16.34 29.889v25.521c-.201.245-.424.468-.646.713-.045.067-.112.112-.156.156v-27.838l.802 1.448Z"/>
    <path fill="#fff" d="M293.386 223.437a1.128 1.128 0 0 1-.267.044c-.268.045-.535.112-.803.156a157.6 157.6 0 0 0-2.875.602h-12.682v-.802h16.627Zm94.527-15.558H276.759v-.802h110.887l.267.802Zm2.586 8.18h-113.74v-.802h113.495l.178.579.067.223Zm-5.196-16.36H276.757v-.78h108.301l.245.78Zm-5.17-16.338h-150.16a12.362 12.362 0 0 1-.379-.802h150.293l.246.802Zm2.586 8.18H236.548a16.702 16.702 0 0 1-.691-.579c-.089-.067-.156-.134-.245-.223h146.839l.268.802Zm29-25.342-.201.802H227.813c.045-.267.112-.535.179-.802h183.727Zm-34.169 8.982H227.479c-.045-.267-.067-.535-.089-.802h149.892l.268.802Zm30.113-.802c-.022.022-.045.067-.067.089-.201.245-.423.468-.646.713h-27.438c-.245-.267-.49-.512-.713-.802h28.864Zm.845-23.738H236.527l.535-.802h171l.446.802Zm3.343 8.18H231.089c.134-.2.267-.423.401-.624l.112-.178h180.093c.067.268.112.535.156.802Zm-7.821-16.36H241.99l.513-.78h161.104l.423.78Zm-8.94-16.337H252.865l.535-.803h141.245l.445.803Zm4.479 8.179H247.426l.535-.802h151.163l.289.513.156.289Zm-13.44-24.54H265.591l1.003-.802h119.089l.446.802Zm4.482 8.181H258.327l.535-.803h131.304l.267.468.178.335Zm-13.42-24.541h-5.304l2.05-.802h2.809l.445.802Zm4.483 8.181h-30.803l2.051-.803h28.307l.445.803Z"/>
  </g>
  <path fill="#E57281" d="M335.217 234.514c-37.713 2.92-58.397-.646-58.419-5.371 0-3.388 24.896-8.091 56.457-10.833 33.322-2.875 57.082-2.741 58.108.491 1.426 4.502-17.096 12.682-56.146 15.713Z"/>
  <path stroke="#fff" stroke-miterlimit="10" stroke-width="6" d="m333.458 191.14 12.838 26.145"/>
  <path stroke="#fff" stroke-miterlimit="10" stroke-width="5" d="M329.2 201.348a1.983 1.983 0 1 0 .001-3.967 1.983 1.983 0 0 0-.001 3.967Zm21.597-99.743 27.995 74.824"/>
  <path stroke="#fff" stroke-linecap="round" stroke-miterlimit="10" stroke-width="5" d="M227.385 168.227c5.661-3.276 13.819.245 18.21 7.868 4.391 7.601 3.365 16.427-2.296 19.703"/>
  <path stroke="#fff" stroke-miterlimit="10" stroke-width="5" d="M411.447 167.224a18.906 18.906 0 0 1-7.11 10.231c-5.305 3.855-11.925 4.524-17.608 2.451-1.271-4.992 2.429-10.966 8.893-13.975 5.973-2.764 12.437-2.095 15.825 1.293Z"/>
  <path stroke="#fff" stroke-miterlimit="10" stroke-width="6" d="m333.457 217.798-.268-116.215"/>
  <path stroke="#fff" stroke-miterlimit="10" stroke-width="5" d="M339.988 127.818a1.984 1.984 0 1 0-.002-3.968 1.984 1.984 0 0 0 .002 3.968Zm0 24.473a1.984 1.984 0 1 0-.002-3.968 1.984 1.984 0 0 0 .002 3.968Zm0 24.473a1.983 1.983 0 1 0 0-3.967 1.983 1.983 0 0 0 0 3.967Zm-35.572-75.559 28.953 16.605 15.424-16.806"/>
  <path fill="#fff" stroke="#FE5244" stroke-miterlimit="10" stroke-width="5" d="m400.835 399.184-51.532.022 3.455-11.033h47.854l.223 11.011Z"/>
  <path fill="#fff" stroke="#9A3B82" stroke-linecap="round" stroke-miterlimit="10" stroke-width="6" d="M412.871 271.603a57.191 57.191 0 0 1 6.397 43.976l-16.672 64.036-2.229 8.559H352.78l3.522-11.212 19.815-64.214-56.725-93.078c4.413-.49 9.049-.959 13.841-1.36 19.659-1.694 35.974-2.34 46.272-1.939l33.366 55.232Z"/>
  <path fill="#fff" stroke="#FE5244" stroke-miterlimit="10" stroke-width="5" d="m470.106 399.184-69.274.023-.223-11.1.045.067 38.114-17.675c21.509 6.664 30.803 16.36 34.726 22.6 1.649 2.653-.268 6.085-3.388 6.085Z"/>
  <path fill="#fff" stroke="#9A3B82" stroke-linecap="round" stroke-miterlimit="10" stroke-width="6" d="m438.768 370.498-38.114 17.675-101.325-138.681a56.247 56.247 0 0 1-7.779-14.844 56.267 56.267 0 0 1-2.519-10.32c10.275-2.251 26.167-4.458 44.221-6.018a559.83 559.83 0 0 1 13.039-1.003l9.05 14.978 83.427 138.213Z"/>
  <path stroke="#9A3B82" stroke-linecap="round" stroke-miterlimit="10" stroke-width="6" d="m327.168 231.661 89.467 148.243m-95.798-153.993s-.669 16.36-14.8 22.132"/>
  <path fill="#9A3B82" d="m379.525 216.371 5.126 8.514c-5.906 2.631-15.647 5.35-29.332 7.378-5.951.892-12.66 1.649-20.127 2.229-3.767.29-7.355.513-10.765.691-13.908.691-24.964.379-32.899-.535a56.183 56.183 0 0 1-2.518-10.32s22.266-4.235 45.268-6.107c23.003-1.872 45.247-1.85 45.247-1.85Z"/>
  <path stroke="#fff" stroke-linecap="round" stroke-miterlimit="10" stroke-width="5" d="M276.194 229.343c0-3.388 23.916-8.336 57.06-11.233 33.322-2.92 57.683-2.541 58.709.691"/>
  <path fill="#FFCF2D" d="M335.55 101.606h-29.934l4.124-21.732h25.81v21.732Z"/>
  <path fill="#E57281" d="M313.061 101.606h-7.445l4.124-21.732h25.81v7.667l-22.489 14.065Z"/>
  <path fill="#fff" stroke="#FFCF2D" stroke-miterlimit="10" stroke-width="5" d="M309.628 83.128s4.101-23.314 4.636-24.629c.914-2.229 19.793-9.406 22.69-6.753 2.898 2.652-2.964 5.015.178 4.77 3.143-.246 12.616-7.289 16.583-1.917 2.407 3.276-5.349 8.001-10.319 8.96-4.971.958-18.946 8.447-19.28 11.1-.335 2.652-4.815 7.957-14.488 8.47Z"/>
  <path fill="#FFCF2D" d="M343.397 63.158v19.748a5.55 5.55 0 0 1-5.55 5.55h-7.065c-3.678 0-6.642-2.987-6.642-6.665v-1.939h-3.433a4.01 4.01 0 0 1-2.853-1.181 4.01 4.01 0 0 1-1.181-2.853 4.033 4.033 0 0 1 4.034-4.034h3.878a9.403 9.403 0 0 1 7.177-6.375l11.635-2.251Z"/>
  <path stroke="#E57281" stroke-linecap="round" stroke-miterlimit="10" stroke-width="4" d="M323.337 76.687c0-1.828-1.092-3.187-2.898-2.897m15.692-3.477s2.318-1.315 4.926-1.56"/>
  <path fill="#E57281" d="M339.341 74.614c.492 0 .891-.648.891-1.448 0-.8-.399-1.45-.891-1.45-.493 0-.892.65-.892 1.45 0 .8.399 1.448.892 1.448Z"/>
  <path fill="#fff" d="m322.129 172.618-5.26 2.006-.468.178-3.611 1.36v-9.941h-43.664l9.718-16.516.401-.691 4.792-1.805.936-.357 3.678-1.404.713-.268 5.662-2.162.936-.356 3.611-1.36.891-.334 3.878-1.471a1.24 1.24 0 0 1 .268-.089c.29-.09.579-.156.869-.179a5.6 5.6 0 0 1 1.048-.022 4.746 4.746 0 0 1 2.853 1.293c.535.49.958 1.114 1.226 1.827l11.523 30.291Z"/>
  <path fill="#3FB1B5" d="m315.374 153.405-4.257-11.256a5.345 5.345 0 0 0-1.27-1.939 5.381 5.381 0 0 0-4.525-1.449 4.844 4.844 0 0 0-1.115.29l-3.878 1.471-.936.356-3.566 1.36-.936.357-5.572 2.117-.937.357-3.588 1.359-.936.357-4.213 1.605-.401.691-.401.691 5.416-2.051.936-.356 10.052-3.812.936-.356 8.047-3.054.29-.112.401-.133c.267-.067.512-.112.78-.134.134 0 .245-.022.379-.022a4.387 4.387 0 0 1 4.101 2.83l11.3 29.823-4.346 1.649-.468.179-.468.178-3.433 1.293v1.07l3.789-1.427 6.197-2.363-7.378-19.569Z"/>
  <path fill="#3FB1B5" d="m322.129 172.618-5.282 2.006-12.214-32.207a2.817 2.817 0 0 1 1.627-3.633 2.817 2.817 0 0 1 3.633 1.627l12.236 32.207Z"/>
  <path fill="#3FB1B5" d="m316.557 175.248-12.393-32.675a3.332 3.332 0 0 1 1.917-4.28 3.343 3.343 0 0 1 2.541.067 3.297 3.297 0 0 1 1.738 1.85l12.393 32.675-6.196 2.363Zm-9.272-36.152c-.268 0-.558.044-.825.156a2.296 2.296 0 0 0-1.337 2.986l12.036 31.74 4.346-1.65-12.036-31.739a2.254 2.254 0 0 0-1.226-1.293 2.457 2.457 0 0 0-.958-.2Zm-8.917 6.709c-.535 0-1.115-.201-1.65-.58-.757-.535-1.359-1.36-1.738-2.34-.379-.981-.468-2.029-.245-2.92.223-.959.78-1.649 1.538-1.939 1.538-.58 3.365.646 4.168 2.786.089.267-.023.557-.29.646-.268.089-.557-.022-.646-.29-.602-1.56-1.917-2.563-2.898-2.206-.446.178-.78.602-.914 1.226-.156.691-.089 1.515.223 2.318.312.802.802 1.471 1.382 1.894.535.379 1.07.491 1.516.312.267-.089.557.023.646.29.089.268-.022.557-.29.647a2.062 2.062 0 0 1-.802.156Zm-11.077 4.034c-.535 0-1.115-.201-1.65-.58-.758-.535-1.359-1.359-1.738-2.34-.379-.981-.468-2.028-.245-2.92.222-.958.78-1.649 1.537-1.939.758-.29 1.628-.134 2.43.423.758.535 1.36 1.36 1.738 2.341.09.267-.022.557-.289.646-.268.089-.557-.022-.647-.29-.312-.802-.802-1.471-1.382-1.894-.534-.379-1.069-.491-1.515-.312-.446.178-.78.601-.914 1.226-.156.691-.089 1.515.223 2.318.312.802.802 1.471 1.382 1.894.535.379 1.07.49 1.515.312.268-.089.558.022.647.29.089.267-.022.557-.29.646a1.744 1.744 0 0 1-.802.179Z"/>
  <path fill="#73325A" d="M312.837 197.114c3.127 0 5.661-6.916 5.661-15.447 0-8.53-2.534-15.446-5.661-15.446s-5.661 6.916-5.661 15.446c0 8.531 2.534 15.447 5.661 15.447Z"/>
  <path fill="#FFCF2D" d="M333.164 169.386v16.717a3.899 3.899 0 0 1-1.827 3.298l-7.133 4.235h-14.978c-1.27-2.83-2.073-7.132-2.073-11.924 0-3.455.424-6.665 1.115-9.228h14.354l-2.207-5.839c-.646-1.672.914-3.366 2.63-2.898l7.266 1.917a3.82 3.82 0 0 1 2.853 3.722Z"/>
  <path stroke="#73325A" stroke-linecap="round" stroke-miterlimit="10" stroke-width="4" d="M332.764 180.887a3.898 3.898 0 0 1-1.828 3.299l-6.731 4.235m8.559-13.708a3.898 3.898 0 0 1-1.828 3.299l-6.731 4.235m8.559-13.329a3.9 3.9 0 0 1-1.828 3.299l-6.731 4.235m1.761-6.107-3.365 2.095"/>
  <path fill="#E57281" d="M318.498 181.667c0 4.814-.802 9.116-2.073 11.947h-7.199c-1.27-2.831-2.073-7.133-2.073-11.947 0-3.455.424-6.664 1.115-9.228h9.094c.713 2.564 1.136 5.773 1.136 9.228Z"/>
  <path stroke="#fff" stroke-miterlimit="10" stroke-width="5" d="m285.934 138.851-16.026 26.991"/>
  <path stroke="#fff" stroke-linecap="round" stroke-miterlimit="10" stroke-width="5" d="M312.636 165.842c-3.12 0-5.661 7.601-5.661 16.249s2.541 15.647 5.661 15.647h-35.885"/>
  <path fill="#3FB1B5" stroke="#3FB1B5" stroke-linecap="round" stroke-miterlimit="10" stroke-width="5" d="m351.529 72.675 21.13 26.234-11.991 12.169-26.546-20.728c-.78-.758-.156-2.764 1.449-5.26 1.159-1.828 2.83-3.901 4.859-5.952 2.028-2.05 4.078-3.766 5.884-4.948 2.452-1.605 4.435-2.25 5.215-1.515Z"/>
  <path fill="#fff" stroke="#3FB1B5" stroke-miterlimit="10" stroke-width="6" d="M368.897 107.278c3.308-3.359 4.973-7.083 3.719-8.318-1.254-1.235-4.952.486-8.261 3.845-3.308 3.358-4.973 7.083-3.719 8.318 1.254 1.235 4.952-.486 8.261-3.845Z"/>
  <path fill="#FFCF2D" d="M356.654 97.103v1.694c0 1.382-3.521 2.051-4.48 1.047l-8.336-8.737a3.593 3.593 0 0 1-.981-2.451v-5.038c0-1.292.602-2.496 1.628-3.276l2.964-2.251a4.07 4.07 0 0 1 2.496-.847h8.047c2.228 0 4.279 1.225 5.304 3.187l7.088 13.351h-10.453a3.32 3.32 0 0 0-3.277 3.321Z"/>
  <path stroke="#73325A" stroke-linecap="round" stroke-miterlimit="10" stroke-width="4" d="M370.227 93.805h-10.052a3.33 3.33 0 0 0-3.321 3.32v1.695c0 1.381-3.12 2.05-4.079 1.047l-9.25-9.629"/>
  <path stroke="#73325A" stroke-linecap="round" stroke-miterlimit="10" stroke-width="4" d="M346.937 93.804a3.41 3.41 0 0 1-.958-2.385v-4.903a4 4 0 0 1 1.582-3.21l2.898-2.206a4.06 4.06 0 0 1 2.451-.825h5.662"/>
  <path stroke="#73325A" stroke-linecap="round" stroke-miterlimit="10" stroke-width="4" d="M350.146 97.192a3.41 3.41 0 0 1-.958-2.385v-4.904a4 4 0 0 1 1.582-3.21l2.898-2.206a4.06 4.06 0 0 1 2.451-.824h5.06"/>
  <path stroke="#73325A" stroke-linecap="round" stroke-miterlimit="10" stroke-width="4" d="M353.645 100a3.157 3.157 0 0 1-.891-2.206v-4.547c0-1.16.535-2.273 1.471-2.965l2.675-2.05a3.75 3.75 0 0 1 2.251-.758h3.388"/>
  <path fill="#fff" stroke="#3FB1B5" stroke-linecap="round" stroke-miterlimit="10" stroke-width="6" d="M526.119 267.034h87.327a53.532 53.532 0 0 1 44.132 23.225l40.009 58.931c3.298 4.792.312 11.323-5.506 11.323h-44.533l-17.786-23.247c-2.095-2.942-6.732-1.65-7.021 1.961l-3.589 43.776h-95.24l-8.024-44.511c-.49-3.477-4.993-4.547-7.021-1.672l-16.338 21.041h-53.248l41.547-65.842c9.829-15.557 26.925-24.985 45.291-24.985Z"/>
  <path fill="#FE5244" d="m579.322 289.769 14.153 47.007h-34.971l15.535-47.007h5.283Z"/>
  <g opacity=".2">
    <path fill="#fff" d="M568.045 307.934v28.842h-.936v-26.011l.312-.959.624-1.872Zm9.963-18.054h-.936v46.896h.936V289.88Zm9.965 28.596v18.3h-.936v-21.42l.936 3.12Z"/>
    <path fill="#fff" d="M591.651 330.691h-31.137l.312-.959h30.535l.29.959Zm-3.007-9.964h-24.83l.312-.958h24.228l.29.958Zm-2.99-9.962h-18.545l.312-.959h17.943l.29.959Zm-3.011-9.964h-12.237l.312-.958h11.635l.29.958Zm-3.007-9.963h-5.929l.312-.958h5.349l.268.958Z"/>
  </g>
  <path fill="#fff" stroke="#3FB1B5" stroke-linecap="round" stroke-miterlimit="10" stroke-width="6" d="m585.652 289.278 5.706 6.129 18.389-28.373h-16.294l-7.801 22.244Zm-16.916 0-5.728 6.129-19.926-28.373h17.831l7.823 22.244Z"/>
  <path fill="#A0505A" d="M704.585 365.907c0 11.1-7.913 21.62-20.216 23.425l-50.44 7.422-11.077 1.628v-42.884l3.41-.803 49.214-11.679a23.61 23.61 0 0 1 24.918 9.607c2.876 4.145 4.191 8.759 4.191 13.284Z"/>
  <path fill="#73325A" d="m633.929 396.754-11.077 1.627v-42.883l3.41-.803 7.667 42.059Z"/>
  <path fill="#FFCF2D" d="M622.85 409.348H516.822v-63.635c0-4.948 4.012-8.938 8.938-8.938h88.13c4.948 0 8.938 4.012 8.938 8.938v63.635h.022Z"/>
  <path stroke="#fff" stroke-miterlimit="10" stroke-width="5" d="M576.377 378.144h-13.083a2.397 2.397 0 0 1-2.407-2.408v-5.483a2.397 2.397 0 0 1 2.407-2.407h13.083a2.397 2.397 0 0 1 2.408 2.407v5.483a2.412 2.412 0 0 1-2.408 2.408Z"/>
  <path fill="#0096A0" d="m554.066 408.657 112.247-16.784c21.843-3.321 41.524 13.597 41.524 35.707 0 19.949-16.159 36.108-36.108 36.108H554.802l-.736-55.031Z"/>
  <path fill="#fff" stroke="#FE5244" stroke-miterlimit="10" stroke-width="6" d="m538.889 473.517-67.558 13.039c-8.604 1.828-17.252-5.349-17.63-14.621l-1.003-24.652c-.513-12.481 11.456-19.993 22.734-14.643l63.457 40.877Z"/>
  <path stroke="#FE5244" stroke-miterlimit="10" stroke-width="6" d="M475.9 485.665c-8.314 1.738-16.716-5.238-17.118-14.265l-1.047-23.938c-.535-12.125 11.01-19.347 21.932-14.131"/>
  <path fill="#FE5244" d="m475.432 432.617 63.456 40.9-14.465 2.786-48.991-43.686Z"/>
  <path stroke="#FE5244" stroke-linejoin="round" stroke-miterlimit="10" stroke-width="6" d="m499.883 450.537-8.359 16.65-8.269-19.569-9.562 21.976"/>
  <path stroke="#FE5244" stroke-linejoin="round" stroke-miterlimit="10" stroke-width="6" d="m473.227 444.564 9.361 23.359 9.161-18.656 7.11 15.558"/>
  <path fill="#3FB1B5" d="M591.358 442.96c-3.745-3.076-14.577 3.922-24.206 15.624s-14.399 23.693-10.654 26.769c-.557-.334-70.923-44.466-114.587-74.578-11.1-7.646-16.962-19.904-16.962-32.319 0-8.648 2.853-17.363 8.76-24.652 14.8-18.254 42.215-19.48 58.597-2.63l99.052 91.786Z"/>
  <path fill="#FE5244" stroke="#fff" stroke-miterlimit="10" stroke-width="6" d="M580.68 469.716c9.626-11.703 14.392-23.688 10.646-26.768-3.745-3.081-14.585 3.909-24.21 15.611-9.626 11.703-14.392 23.688-10.646 26.769 3.745 3.08 14.585-3.909 24.21-15.612Z"/>
  <path fill="#fff" stroke="#FE5244" stroke-miterlimit="10" stroke-width="6" d="m622.338 481.475-12.526 21.263c-6.352 10.766-20.706 10.967-27.281.357l-21.086-33.968c1.806-2.987 4.035-6.107 6.598-9.228 4.636-5.639 9.562-10.186 13.841-13.039l33.567 12.772c8.202 3.143 11.59 13.841 6.887 21.843Z"/>
  <path stroke="#FE5244" stroke-miterlimit="10" stroke-width="6" d="M611.907 458.25c7.757 3.009 10.498 13.061 6.063 20.751l-11.813 20.394c-5.974 10.342-19.503 10.521-25.721.357"/>
  <path stroke="#FE5244" stroke-linejoin="round" stroke-miterlimit="10" stroke-width="6" d="m570.719 469.149 17.073-8.648-5.126 20.573 20.416-12.527"/>
  <path stroke="#FE5244" stroke-linejoin="round" stroke-miterlimit="10" stroke-width="6" d="m589.152 489.32 5.304-23.96-17.407 8.581 2.674-15.914"/>
  <path fill="#A0505A" d="M602.457 270.889a5.362 5.362 0 0 1-1.694 3.611 5.398 5.398 0 0 1-3.7 1.471h-4.926l-.312 5.194c-.267 4.279-4.524 8.648-8.96 8.648h-12.459c-4.413 0-8.693-4.369-8.96-8.648l-.312-5.194h-4.993a5.358 5.358 0 0 1-3.7-1.471 5.37 5.37 0 0 1-1.694-3.633c-.178-3.12 2.385-5.706 5.505-5.706h4.213l-.468-7.912a2.907 2.907 0 0 1 2.897-3.076h27.505a2.907 2.907 0 0 1 2.898 3.076l-.469 7.912h4.258c3.075.023 5.549 2.63 5.371 5.728Z"/>
  <path fill="#73325A" d="M592.806 265.161h4.48s4.28-15.535.156-19.525c-4.123-3.989-29.443-13.172-37.623-7.444-5.974 4.19-2.719 26.969-2.719 26.969h3.298s13.307-9.539 15.402-8.715c2.095.825-6.018 4.837-4.391 5.617 6.085 2.92 17.029-7.667 19.547-7.667 2.519 0 1.85 10.765 1.85 10.765Z"/>
  <path stroke="#73325A" stroke-linecap="round" stroke-miterlimit="10" stroke-width="4" d="M587.166 269.017s-2.92-2.362-6.664-.825m.69 13.53s-1.605 3.432-6.463 1.649m-9.764-15.134s5.906-1.315 7.689 2.34c1.093 2.252.558 10.12 1.828 10.209 1.271.089 3.187 0 3.187 0"/>
  <path fill="#73325A" d="M583.176 275.08c.579 0 1.048-.779 1.048-1.739 0-.96-.469-1.738-1.048-1.738-.578 0-1.047.778-1.047 1.738s.469 1.739 1.047 1.739Zm-13.552 0c.578 0 1.047-.779 1.047-1.739 0-.96-.469-1.738-1.047-1.738-.579 0-1.048.778-1.048 1.738s.469 1.739 1.048 1.739Z"/>
  <path stroke="#73325A" stroke-linecap="round" stroke-miterlimit="10" stroke-width="4" d="M559.371 271.692a4.126 4.126 0 0 0-4.123-3.879m38.338 3.99c.134-2.318 2.051-4.123 4.346-4.123"/>
  <path fill="#FFCF2D" d="M264.046 314.955c0-1.449-.067-2.853-.178-4.168-1.36-.602-9.941-4.725-12.103-12.147 0 0-6.509 13.172-16.182 11.657-.022 0-.045 0-.067-.023h-.022l-2.34-1.203c-.045-.023-.067-.045-.112-.045-2.652-1.27-5.706.379-6.241 3.143a27.433 27.433 0 0 1-1.337-5.528c-1.716-12.972 5.438-23.827 17.318-23.827 10.833 0 21.242 10.186 22.891 20.952a18.465 18.465 0 0 1-1.627 11.189Zm-35.327 1.56c-1.047 6.152-24.005-2.429-29.109 7.846-3.321 6.709 1.805 14.8-12.616 15.491-17.184.802-24.161 10.208-21.375 32.006l46.941-24.896 13.106-11.68 5.706-17.541-2.653-1.226Z"/>
  <path fill="#E57281" d="M255.463 331.003v6.107l-14.51 8.782-15.29-10.588 5.706-17.541 24.094 13.24Z"/>
  <path fill="#9A3B82" d="m234 319.145 6.954 26.747 14.51-8.782v-6.107L234 319.145Z"/>
  <path fill="#E57281" d="M264.044 315.089c0 9.963-6.397 18.054-14.287 18.054-6.464 0-12.192-5.416-14.064-12.861l-6.531-3.343a4.435 4.435 0 0 1-1.761-1.627 4.303 4.303 0 0 1-.646-2.296c0-3.299 3.477-5.416 6.419-3.923l2.43 1.226v-.022c9.673 1.493 16.181-11.657 16.181-11.657 2.162 7.422 10.743 11.523 12.103 12.147.112 1.36.156 2.786.156 4.302Z"/>
  <path stroke="#9A3B82" stroke-linecap="round" stroke-miterlimit="10" stroke-width="4" d="M263.999 313.016s-3.589-1.493-5.795.736c-2.742 2.763-2.14 10.698-2.14 10.698m-4.947-11.902s-2.965-.223-5.907 1.337m-11.635.87a3.974 3.974 0 0 0-2.742-3.121"/>
  <path fill="#9A3B82" d="M250.141 317.919c.251-.926.002-1.8-.556-1.952-.559-.151-1.215.478-1.466 1.404-.251.927-.002 1.801.556 1.952.559.152 1.215-.477 1.466-1.404Zm10.923.446c.251-.927.002-1.801-.556-1.952-.559-.152-1.215.477-1.466 1.404-.251.926-.002 1.8.556 1.952.558.151 1.215-.478 1.466-1.404Z"/>
  <path stroke="#9A3B82" stroke-linecap="round" stroke-miterlimit="10" stroke-width="4" d="M254.971 327.125s-3.856 1.025-4.97-2.229"/>
  <path fill="#fff" stroke="#FE5244" stroke-miterlimit="10" stroke-width="5" d="M197.135 347.029h86.815c11.902 0 22.712 7.021 27.527 17.92l16.404 33.745-147.262 71.302-47.453-20.327 25.833-75.604c5.706-16.204 20.974-27.036 38.136-27.036Z"/>
  <path fill="#FE5244" d="m237.834 361.917-7.199-4.257 9.985-11.367h.713l10.12 10.609-7.021 4.258 30.134 62.096-57.215 27.973 20.483-89.312Z"/>
  <g opacity=".2">
    <path fill="#fff" d="M225.891 414.006v25.276h-.892v-21.397l.892-3.879Zm9.382-40.989v66.243h-.891v-62.365l.557-2.407.201-.891.133-.58Zm0-20.662v8.047l-.891-.513v-6.508l.891-1.026Zm9.407-2.54v88.063l-.892.423v-89.423l.892.937Zm9.405 31.226v52.223l-.892.446v-54.497l.892 1.828Zm9.405 19.369v28.262l-.891.446V398.56l.891 1.85Zm9.383 19.369v4.302l-.892.424v-6.553l.892 1.827Zm-31.295 19.615-1.828.891h-19.882l.201-.891h21.509Z"/>
    <path fill="#fff" d="m260.79 429.987-1.827.892h-36.955l.223-.892h38.559Zm12.905-8.514h-49.526l.201-.891h48.901l.424.891Zm-4.546-9.384h-42.817l.201-.891h42.17l.446.891Zm-4.569-9.405h-36.108l.223-.892h35.461l.424.892Zm-4.57-9.406h-29.377l.2-.892h28.753l.424.892Zm-4.547-9.384h-22.668l.201-.892h22.021l.446.892Zm-4.569-9.406h-15.958l.2-.891h15.335l.423.891Zm-4.545-9.406H237.1l.2-.891h8.604l.445.891Zm3.942-9.383h-17.942l.78-.892h16.315l.847.892Z"/>
  </g>
  <path stroke="#FE5244" stroke-miterlimit="10" stroke-width="5" d="m194.037 395.396-6.999 23.626"/>
  <path fill="#fff" stroke="#FE5244" stroke-linejoin="round" stroke-miterlimit="10" stroke-width="5" d="m267.724 346.984-16.516 9.451-9.874-10.142h-.713l-9.762 10.922-18.299-10.231 13.328-11.679 15.068 10.587 14.51-8.782 12.258 9.874Z"/>
  <path fill="#3FB1B5" d="m356.12 374.667-17.297 54.964H233.62l17.296-54.964H356.12Z"/>
  <path stroke="#fff" stroke-miterlimit="10" stroke-width="6" d="m289.564 429.631 17.297-54.964"/>
  <path fill="#fff" stroke="#3FB1B5" stroke-linecap="round" stroke-miterlimit="10" stroke-width="5" d="M252.899 374.667s13.173-7.823 32.252-6.62c19.08 1.182 21.754 6.62 21.754 6.62h-54.006Zm99.41 0s-24.83-10.966-45.403 0h45.403Z"/>
  <path fill="#E57281" d="m304.163 487.092-51.131 40.387c-6.107 4.815-6.91 13.775-1.761 19.592l35.127 39.853s3.344-2.474 2.229-12.415c-1.56-13.752 2.229-26.613 2.229-26.613l75.671-53.961a45.14 45.14 0 0 0 18.945-36.13c.29-19.526-23.381-29.422-37.088-15.536l-44.221 44.823Z"/>
  <path fill="#fff" stroke="#9A3B82" stroke-linecap="round" stroke-miterlimit="10" stroke-width="6" d="M290.834 547.873s-3.767 12.861-2.229 26.613c1.115 9.964-2.229 12.438-2.229 12.438l-35.127-39.853c-5.149-5.84-4.324-14.777 1.761-19.592l16.405-12.972c.49-.357.98-.735 1.471-1.114l20.862-16.494 12.393-9.807s-.691 16.293 6.976 46.316l-20.283 14.465Z"/>
  <path fill="#FFCF2D" d="M289.428 575.824c.424 3.856.156 6.642-.356 8.603-.112.468-.246.87-.402 1.248-.869 2.296-2.006 3.054-2.006 3.054l-36.42-41.301c-4.725-5.372-4.591-13.284-.067-18.478a13.67 13.67 0 0 1 1.917-1.827l1.182-.936 10.253-8.091c-.669 4.457 2.206 11.924 7.734 18.967 6.998 8.916 16.293 13.664 20.349 11.212-.646 2.362-3.61 14.822-2.184 27.549Z"/>
  <path fill="#fff" d="M289.094 584.427a8.286 8.286 0 0 1-.401 1.248l-36.153-41.011c-2.675-3.031-3.945-6.932-3.589-10.966.157-1.672.58-3.299 1.249-4.77a13.511 13.511 0 0 1 1.917-1.828l1.181-.936a13.22 13.22 0 0 0-3.232 7.623 13.407 13.407 0 0 0 3.321 10.141l35.707 40.499Zm1.048-29.377s-9.807-3.9-11.122 0c-1.293 3.901 10.386 6.375 10.386 6.375l.736-6.375Z"/>
  <path fill="#E57281" d="M352.752 434.201v122.12c-14.198 14.421-33.054 6.665-33.054 6.665-16.65-47.921-15.535-74.534-15.535-74.534l-12.393 9.784c-31.695-19.792-34.28-65.328-34.347-66.42l51.643-24.986c20.216-9.785 43.686 4.926 43.686 27.371Z"/>
  <path stroke="#9A3B82" stroke-linecap="round" stroke-miterlimit="10" stroke-width="6" d="M309.088 406.807c20.194-9.762 43.664 4.949 43.664 27.371v122.121c-14.198 14.421-33.054 6.664-33.054 6.664-16.628-47.921-15.536-74.556-15.536-74.556"/>
  <path fill="#FE5244" d="m291.77 498.214-20.862 16.494c-37.401 29.577-92.41 2.942-92.41-44.734l78.925-38.203v.022c.067 1.115 2.675 46.651 34.347 66.421Z"/>
  <g opacity=".2">
    <path fill="#fff" d="M188.351 465.227v37.021c-.313-.445-.602-.891-.892-1.337V465.65l.892-.423Zm9.405-4.547v52.089c-.29-.268-.602-.535-.892-.803v-50.863l.892-.423Zm9.386-4.547v63.322c-.29-.178-.602-.334-.892-.512v-62.387l.892-.423Zm9.403-4.547v72.194c-.29-.112-.602-.201-.892-.313v-71.435l.892-.446Zm9.405-4.547v79.237c-.29-.045-.602-.112-.891-.156v-78.635l.891-.446Zm9.383-4.569v84.653c-.29 0-.602 0-.892-.023v-84.184l.892-.446Zm9.407-4.547v88.487l-.891.133v-88.174l.891-.446Zm9.405-4.547v90.649c-.289.111-.601.2-.891.312v-90.515l.891-.446Zm9.384 26.947v59.4c-.29.178-.602.334-.891.49v-62.498c.044.156.089.312.156.446.089.29.2.602.289.892.156.423.313.847.446 1.27Zm9.408 19.169v33.634l-.891.713V478.11c.29.446.579.914.891 1.382Zm9.406 11.367v15.201h-.468l-.424.334v-16.427c.29.312.58.602.892.892Z"/>
    <path fill="#fff" d="M254.302 523.958c-.067.022-.111.044-.178.066-.29.112-.602.201-.892.312-.557.179-1.114.357-1.694.535h-31.694a67.022 67.022 0 0 1-2.809-.891h37.267v-.022Zm16.803-9.406-.2.156-.936.735h-68.917a21.684 21.684 0 0 1-1.159-.891h71.212Zm11.881-9.384-.669.513v.379h-91.116c-.246-.29-.491-.602-.714-.892h92.499Zm6.419-8.514H184.982c-.156-.29-.312-.602-.468-.892h103.643c.401.312.824.602 1.248.892Zm-10.52-9.406h-97.803c-.089-.29-.178-.602-.268-.892h97.314c.222.312.49.602.757.892Zm-6.997-9.384H179.01c-.045-.29-.067-.602-.112-.891h92.432c.201.289.379.579.558.891Zm-5.039-9.406h-85.165l1.85-.891h82.914c.112.29.245.602.401.891Zm-3.743-9.405h-62.007l1.85-.892h59.867c.067.312.179.602.29.892Zm-2.764-9.384h-39.853l1.85-.892h37.78c.089.29.156.58.223.892Zm-1.917-9.406h-18.522l1.85-.891h16.539c.044.289.089.579.133.891Z"/>
  </g>
  <path stroke="#fff" stroke-miterlimit="10" stroke-width="6" d="M257.422 431.793c.067 1.115 2.652 46.651 34.347 66.443"/>
  <path fill="#fff" d="M352.752 512.679v43.642c-14.198 14.421-33.054 6.664-33.054 6.664-7.289-20.996-11.167-37.913-13.24-50.283h46.294v-.023Z"/>
  <path stroke="#9A3B82" stroke-linecap="round" stroke-miterlimit="10" stroke-width="6" d="M319.676 562.963c-7.288-20.996-11.167-37.913-13.239-50.284h46.293v43.642"/>
  <path fill="#FFCF2D" d="M386.029 588.261h-65.863c-3.076 0-5.416-2.742-4.926-5.773l.111-.669.402-2.407 2.853-17.474s20.082 8.091 34.882-6.932c0 0 4.636 11.947 23.982 20.728 4.547 2.073 6.687 5.149 7.69 7.757.156.379.268.758.379 1.114.602 2.096.49 3.656.49 3.656Z"/>
  <path fill="#fff" d="M385.537 584.583h-65.373a5.487 5.487 0 0 1-4.212-1.961 4.994 4.994 0 0 1-.58-.825l.401-2.407a4.306 4.306 0 0 0 1.048 2.519 4.462 4.462 0 0 0 3.365 1.56h64.995c.133.379.267.758.356 1.114Zm-21.841-17.207c-7.311 5.216-18.567 3.722-19.325 1.471-.78-2.229 10.9-3.856 12.438-8.492 1.627 2.028 3.722 4.48 6.887 7.021Z"/>
  <path stroke="#9A3B82" stroke-linecap="round" stroke-miterlimit="10" stroke-width="6" d="M304.163 488.429c0-26.189 6.91-41.39 6.91-41.39"/>
  <path fill="#E57281" d="m240.954 406.339-91.474 21.509c-11.59 2.719-19.77 13.061-19.77 24.964 0 18.923 19.815 31.338 36.843 23.069l88.509-42.973a6.672 6.672 0 0 0 3.321-3.611l9.808-25.164c.401-1.003-.446-2.073-1.538-1.917l-1.561.223a9.124 9.124 0 0 0-6.151 3.767l-3.99 5.973a3.942 3.942 0 0 1-3.276 1.739h-9.339c-1.895 0-3.255-1.85-2.675-3.656l1.293-3.923Z"/>
  <path stroke="#fff" stroke-miterlimit="10" stroke-width="6" d="m240.062 406.562-90.582 21.509c-11.59 2.719-19.77 13.061-19.77 24.963 0 18.923 19.815 31.338 36.843 23.069l88.509-42.973a6.666 6.666 0 0 0 3.321-3.61l9.808-25.165c.401-1.003-.446-2.072-1.538-1.916l-1.561.222a9.131 9.131 0 0 0-6.151 3.767l-3.99 5.974a3.94 3.94 0 0 1-3.276 1.738h-10.231c-1.895 0-3.254-1.85-2.675-3.655l1.293-3.923Z"/>
  <path stroke="#fff" stroke-linecap="round" stroke-miterlimit="10" stroke-width="5" d="M243.672 421.273h13.663c2.251 0 4.302-1.226 5.394-3.21m-22.177 11.233h13.663a6.146 6.146 0 0 0 5.394-3.209"/>
</svg>
