<svg xmlns="http://www.w3.org/2000/svg" width="523" height="368" fill="none" viewBox="0 0 523 368">
  <path fill="#FE5244" d="M497.889 316.538v50.544H421.85l14.815-77.617c-.475 3.065 9.009 8.81 21.986 14.571 4.658 2.068 9.852 4.121 15.398 6.067 8.947 3.156 17.19 5.301 23.84 6.435-.016 0 0 0 0 0Z"/>
  <path fill="#FFCF2D" d="M497.889 301.339v13.529c-6.65-1.134-14.877-3.264-23.856-6.42-21.158-7.431-37.444-16.608-36.525-20.73.015-.061.03-.122.046-.168 1.425-4.03 20.162-1.241 41.612 6.282 6.895 2.42 13.115 4.918 18.34 7.323.122.061.245.123.383.184Z"/>
  <path fill="#fff" stroke="#FFCF2D" stroke-miterlimit="10" stroke-width="5" d="M487.453 184.224c-7.415 0-13.421 6.006-13.421 13.406v36.74c0 7.4-6.006 13.406-13.406 13.406h-53.747c7.415 0 13.406-6.006 13.406-13.406v-36.74c0-7.415 6.006-13.406 13.406-13.406h53.762Z"/>
  <path fill="#fff" stroke="#FFCF2D" stroke-miterlimit="10" stroke-width="5" d="M463.95 203.238h-34.227v31.761h34.227v-31.761Z"/>
  <path stroke="#FFCF2D" stroke-miterlimit="10" stroke-width="5" d="M463.935 207.773h-34.212m34.212 4.535h-34.212m34.212 4.55h-34.212m34.212 4.536h-34.212m34.212 4.55h-34.212m34.212 4.535h-34.212"/>
  <path fill="#66B0F0" stroke="#FFCF2D" stroke-miterlimit="10" stroke-width="5" d="M474.031 197.63c0-7.369 5.945-13.345 13.284-13.406 7.354.061 13.283 6.037 13.283 13.406h-26.567Z"/>
  <path fill="#FFCF2D" d="M460.687 248.113h-53.7c-5.501-.076-10.204-3.477-12.196-8.288h53.655c2.007 4.811 6.711 8.212 12.241 8.288Z"/>
  <path fill="#FE5244" d="M431.959 199.591h-6.189v-4.964h2.911v2.758c0 .062.03.107.061.123l.015.015 3.202 2.068Z"/>
  <path fill="#FE5244" d="M434.365 196.343v.659c0 .123-.016.245-.016.368 0 .031-.015.077-.015.107-.015.061-.015.123-.031.184-.168.843-.674 1.532-1.302 1.793l-.138.046c-.076.03-.168.046-.245.061-.031 0-.061.015-.092.015l-3.508-2.283c.03-.536.367-.965.766-.965h4.581v.015Zm34.18-1.716v4.964h-6.19l3.187-2.068.016-.015c.015-.016.015-.016.03-.016 0-.015.016-.015.016-.03 0 0 0-.015.015-.015 0-.016 0-.016.015-.016v-2.804h2.911Z"/>
  <path fill="#FE5244" d="m465.33 197.309-3.509 2.283-.276-.046c-.03-.016-.061-.016-.092-.031-.046-.015-.076-.031-.122-.046-.031-.015-.077-.031-.108-.046-.475-.26-.873-.766-1.072-1.394a1.897 1.897 0 0 1-.077-.276c-.015-.031-.015-.077-.03-.123a3.904 3.904 0 0 1-.062-.612v-.659h4.597c.383-.016.72.413.751.95Z"/>
  <path fill="#FE5244" d="M465.328 192.115v4.321c-.03-.031-.061-.077-.091-.108-.062-.061-.123-.107-.184-.153a.97.97 0 0 0-.491-.153h-34.794a.884.884 0 0 0-.49.153 1.57 1.57 0 0 0-.184.153.69.69 0 0 0-.092.108v-4.321c0-.582.337-1.042.766-1.042h34.794c.414 0 .766.475.766 1.042Z"/>
  <path fill="#A0505A" d="M497.888 254.809v60.059h-.015c-6.65-1.134-14.877-3.264-23.855-6.42a214.226 214.226 0 0 1-15.398-6.067l2.497-13.942 4.244-23.672c-13.314-4.167-15.474-16.975-15.474-16.975h10.709c7.416 0 13.406-6.006 13.406-13.407v-4.412h-6.879c-4.826 0-8.748-4.75-8.748-9.576v-1.563h15.29a8.995 8.995 0 0 1 7.201 3.601l11.185 14.938a28.88 28.88 0 0 1 5.837 17.436Z"/>
  <path fill="#73325A" d="M497.887 301.339v13.529h-.015c-6.649-1.134-14.877-3.264-23.855-6.42a214.597 214.597 0 0 1-15.398-6.067l2.497-13.943c5.516 1.349 11.645 3.172 18.018 5.409 6.895 2.421 13.115 4.918 18.324 7.323.169.046.291.108.429.169Z"/>
  <path fill="#A0505A" d="M474.707 229.973h-7.384c-4.827 0-8.749-4.75-8.749-9.576v-1.563h16.133v11.139Z"/>
  <path stroke="#73325A" stroke-miterlimit="10" stroke-width="5" d="M470.064 244.896s10.649 3.999 11.614 17.742m-16.285 2.451h7.247"/>
  <path stroke="#FFCF2D" stroke-miterlimit="10" stroke-width="6" d="m458.635 93.308 4.857-3.217c6.327-4.183 14.8-.046 15.397 7.507l1.058 13.375c.582 7.339 8.656 11.522 14.984 7.768l3.064-1.823"/>
  <path fill="#9A3B82" d="m388.051 43.621 62.403 36.22 31.424 70.553-36.051-24.284-39.176-45.902-18.6-36.587Z"/>
  <path stroke="#FFCF2D" stroke-miterlimit="10" stroke-width="6" d="m388.219 41.185 63.721 37 32.097 72.041"/>
  <path fill="#fff" d="M445.176 127.669c2.916-2.462-3.637-15.019-14.636-28.047-10.999-13.028-22.28-21.594-25.196-19.132-2.916 2.462 3.637 15.019 14.636 28.047 10.999 13.028 22.28 21.593 25.196 19.132Z"/>
  <path fill="#fff" stroke="#FFCF2D" stroke-miterlimit="10" stroke-width="5" d="M443.403 128.422c2.858-2.413-3.57-14.725-14.356-27.501-10.786-12.776-21.847-21.177-24.705-18.765-2.857 2.413 3.57 14.726 14.356 27.502 10.786 12.776 21.847 21.177 24.705 18.764Z"/>
  <path fill="#FFCF2D" d="m451.006 122.709-5.944 5.01c1.103-.934.858-3.294-.475-6.588-2.191-5.423-7.324-13.345-14.157-21.465-6.849-8.105-13.804-14.494-18.784-17.558-3.018-1.869-5.316-2.513-6.419-1.578l5.944-5.01c2.911-2.467 14.709 5.592 25.709 18.63 11.001 13.039 17.053 26.108 14.126 28.559Zm63.507-19.166a61.985 61.985 0 0 1 4.903-2.13c.934.981 1.746 2.13 2.374 3.417a13.147 13.147 0 0 1 1.211 3.968 67.018 67.018 0 0 1-4.704 2.528c-8.38 4.06-16.01 5.607-17.052 3.462-1.057-2.16 4.887-7.185 13.268-11.245Z"/>
  <path stroke="#9A3B82" stroke-miterlimit="10" stroke-width="6" d="M499.711 117.699a1.854 1.854 0 1 0 0-3.707 1.854 1.854 0 0 0 0 3.707Z"/>
  <path fill="#66B0F0" d="M390.304 302.212v64.87H316.41l9.469-70.447c0 2.85 14.417 6.404 32.205 7.936 17.788 1.548 32.22.49 32.22-2.359Z"/>
  <path fill="#3FB1B5" d="M389.967 300.542c0 2.85-14.295 3.907-31.914 2.359-17.62-1.547-31.914-5.102-31.914-7.936 0-2.85 14.294-3.907 31.914-2.359 17.634 1.532 31.914 5.086 31.914 7.936Z"/>
  <path stroke="#66B0F0" stroke-miterlimit="10" stroke-width="6" d="m400.217 156.737 4.474 2.896c4.473 3.462-1.716 18.937-13.82 34.533-12.104 15.613-25.541 25.449-30.014 21.986l-2.207-2.083"/>
  <path fill="#66B0F0" d="m338.09 229.421 50.79-46.485 17.757-54.068-54.207 49.257-14.34 51.296Z"/>
  <path stroke="#FE5244" stroke-linecap="round" stroke-miterlimit="10" stroke-width="6" d="m335.5 235.059 55.279-50.591 18.033-54.926"/>
  <path stroke="#FE5244" stroke-miterlimit="10" stroke-width="6" d="m364.734 182.783-48.231 46.132c-2.345 2.237-6.175.122-5.516-3.064l1.348-6.543c.613-2.957-2.742-5.117-5.178-3.34l-15.934 11.599"/>
  <path fill="#FFCF2D" d="M278.245 244.083a61.749 61.749 0 0 1-4.229 3.263 13.505 13.505 0 0 1-3.141-2.727 13.355 13.355 0 0 1-2.145-3.554 65.89 65.89 0 0 1 3.938-3.616c7.124-5.991 14.141-9.377 15.689-7.538 1.532 1.838-2.988 8.181-10.112 14.172Z"/>
  <path stroke="#FE5244" stroke-miterlimit="10" stroke-width="6" d="M289.737 230.539a1.854 1.854 0 1 0 0-3.708 1.854 1.854 0 0 0 0 3.708Z"/>
  <path fill="#FFCF2D" d="M367.016 253.383v50.1a197.946 197.946 0 0 1-8.963-.582c-11.476-.996-21.526-2.865-27.149-4.826l.843-5.546 2.819-18.616h-3.647a9.383 9.383 0 0 1-9.392-9.392v-18.446a14.99 14.99 0 0 1 3.723-9.898l11.997-13.712c.781-.889 2.252-.337 2.252.842v18.646a9.375 9.375 0 0 1-2.252 6.098l-1.073 1.256h13.023c1.885 0 2.988-2.099 1.931-3.661a93.106 93.106 0 0 1-5.73-9.545c-3.999-7.646 2.941-11.92 2.941-11.92l15.888 20.607a14.684 14.684 0 0 1 2.789 8.595Z"/>
  <path stroke="#fff" stroke-linecap="round" stroke-miterlimit="10" stroke-width="5" d="M339.499 222.312v19.641a9.37 9.37 0 0 1-2.253 6.098l-1.072 1.256m.001-.015-8.611 9.668"/>
  <path stroke="#fff" stroke-linecap="round" stroke-miterlimit="10" stroke-width="5" d="M339.5 233.419a9.375 9.375 0 0 1-2.252 6.098l-1.073 1.256-8.595 9.652M339.5 224.9a9.373 9.373 0 0 1-2.252 6.098l-1.073 1.257-8.595 9.652m6.986 32.511h6.604"/>
  <path fill="#FE5244" d="M367.016 293.585v9.898a199.506 199.506 0 0 1-8.963-.582c-11.475-.996-21.526-2.865-27.149-4.826l.843-5.547c5.761-.842 15.398-.888 26.322.062 3.095.291 6.098.612 8.947.995Z"/>
  <path fill="#3FB1B5" d="M292.86 367.082h-85.446v-84.711c0 3.616 14.05 6.542 31.393 6.542 17.344 0 31.393-2.926 31.393-6.542v-.016l22.66 84.727Z"/>
  <path fill="#66B0F0" d="M269.971 280.686c0 3.631-13.896 6.557-31.056 6.557-17.159 0-31.056-2.926-31.056-6.542v-.015c.046-3.601 13.927-6.527 31.056-6.527 17.13 0 31.026 2.926 31.056 6.527Z"/>
  <path fill="#E57281" d="M269.972 280.747c-.108 3.585-13.973 6.496-31.056 6.496-3.294 0-6.451-.107-9.423-.306v-31.516h-16.21a3.733 3.733 0 0 1-3.738-3.738v-2.528a3.74 3.74 0 0 1 1.302-2.835 3.736 3.736 0 0 1-1.302-2.834v-2.528c0-.996.398-1.915 1.042-2.574a3.715 3.715 0 0 1-1.042-2.574v-2.528c0-1.027.414-1.961 1.088-2.651a3.716 3.716 0 0 1-1.088-2.635v-4.581a3.733 3.733 0 0 1 3.738-3.738h20.699c.69-.399 1.808-1.808-.092-2.636L229.447 216c-3.524-1.762-5.761-4.689-5.761-8.642h15.628a6.233 6.233 0 0 1 5.853 4.122l24.422 68.179.383 1.088Z"/>
  <path fill="#9A3B82" d="m270.049 280.778-.076-.077c0 3.616-13.897 6.542-31.056 6.542-3.294 0-6.451-.107-9.423-.306v-12.456c2.972-.199 6.144-.307 9.423-.307 15.474 0 28.313 2.39 30.673 5.501.061.076.23.49.459 1.103Z"/>
  <path fill="#fff" d="M234.335 177.084v12.425c0 6.757-5.469 12.227-12.226 12.227-6.757 0-12.226-5.47-12.226-12.227v-12.425c0 3.034 5.469 5.485 12.226 5.485 6.757 0 12.226-2.451 12.226-5.485Z"/>
  <path fill="#FFCF2D" d="M222.109 182.569c6.752 0 12.226-2.456 12.226-5.485 0-3.029-5.474-5.485-12.226-5.485-6.752 0-12.226 2.456-12.226 5.485 0 3.029 5.474 5.485 12.226 5.485Z"/>
  <path stroke="#FFCF2D" stroke-miterlimit="10" stroke-width="6" d="M234.335 155.849v33.645c0 4.535-2.466 8.488-6.128 10.602h-.015a12.229 12.229 0 0 1-12.15.016c-.015 0-.015-.016-.031-.016-3.661-2.114-6.128-6.067-6.128-10.602v-33.645h24.452Z"/>
  <path fill="#fff" stroke="#FFCF2D" stroke-miterlimit="10" stroke-width="5" d="M222.108 161.334c6.829 0 12.365-2.456 12.365-5.485 0-3.03-5.536-5.485-12.365-5.485-6.828 0-12.364 2.455-12.364 5.485 0 3.029 5.536 5.485 12.364 5.485Z"/>
  <path fill="#FFCF2D" d="M222.109 156.676a1.808 1.808 0 1 0 0-3.616 1.808 1.808 0 0 0 0 3.616Z"/>
  <path fill="#fff" stroke="#FFCF2D" stroke-miterlimit="10" stroke-width="5" d="M218.125 193.6a1.593 1.593 0 1 0 0-3.185 1.593 1.593 0 0 0 0 3.185Z"/>
  <path fill="#fff" d="M227.685 178.402a1.317 1.317 0 1 0 0-2.634 1.317 1.317 0 0 0 0 2.634Z"/>
  <path fill="#FFCF2D" d="M214.939 188.284a1.318 1.318 0 1 0-.001-2.635 1.318 1.318 0 0 0 .001 2.635Z"/>
  <path fill="#fff" stroke="#FFCF2D" stroke-miterlimit="10" stroke-width="5" d="M233.859 264.001h-23.502c-.429 0-.552-.567-.184-.766l8.212-3.11a3.337 3.337 0 0 0 2.145-3.111v-48.966c0-3.248-1.685-6.297-4.489-7.936a12.164 12.164 0 0 0 6.067 1.608c2.222 0 4.29-.597 6.083-1.624-2.82 1.624-4.505 4.688-4.505 7.937v48.966c0 1.379.858 2.62 2.145 3.11l8.212 3.11c.368.215.245.782-.184.782Z"/>
  <path fill="#FFCF2D" d="M213.406 137.448a2.084 2.084 0 1 0 0-4.168 2.084 2.084 0 0 0 0 4.168Z"/>
  <path fill="#fff" stroke="#FFCF2D" stroke-miterlimit="10" stroke-width="5" d="M227.685 140.803a1.808 1.808 0 1 0 0-3.616 1.808 1.808 0 0 0 0 3.616Zm-8.856 7.048a1.318 1.318 0 1 0 0-2.636 1.318 1.318 0 0 0 0 2.636Z"/>
  <path fill="#FFCF2D" d="M218.141 131.81a1.088 1.088 0 1 0-.001-2.175 1.088 1.088 0 0 0 .001 2.175Z"/>
  <path fill="#E57281" d="M237.858 224.595v30.841h-24.575a3.733 3.733 0 0 1-3.738-3.738v-2.528a3.74 3.74 0 0 1 1.302-2.835 3.736 3.736 0 0 1-1.302-2.834v-2.528c0-.996.398-1.915 1.042-2.574a3.715 3.715 0 0 1-1.042-2.574v-2.528a3.78 3.78 0 0 1 1.088-2.65 3.72 3.72 0 0 1-1.088-2.636v-3.401h28.313v-.015Z"/>
  <path stroke="#9A3B82" stroke-linecap="round" stroke-miterlimit="10" stroke-width="5" d="M209.975 243.287a4.243 4.243 0 0 0 4.244 4.244h19.886c2.345 0 4.244-1.9 4.244-4.244m-28.374-7.646a4.243 4.243 0 0 0 4.244 4.244h19.886c2.345 0 4.244-1.9 4.244-4.244m-28.374-7.645a4.243 4.243 0 0 0 4.244 4.244h19.886c2.345 0 4.244-1.9 4.244-4.244"/>
  <path stroke="#9A3B82" stroke-linecap="round" stroke-miterlimit="10" stroke-width="5" d="M214.02 255.176h20.086c2.344 0 4.244-1.9 4.244-4.244v-28.666"/>
  <path stroke="#9A3B82" stroke-linecap="round" stroke-miterlimit="10" stroke-width="5" d="M219.566 222.143h-2.038a1.23 1.23 0 0 0-1.225 1.226 1.23 1.23 0 0 0 1.225 1.226h11.399a2.24 2.24 0 0 0 2.237-2.237 2.668 2.668 0 0 1 2.666-2.666h1.854a2.668 2.668 0 0 1 2.666 2.666v4.964"/>
  <path fill="#3FB1B5" d="m358.678 64.243-51.004 52.306-58.803-64.824L313.052 6.56l45.626 57.684Z"/>
  <path stroke="#FFCF2D" stroke-miterlimit="10" stroke-width="6" d="m305.683 119.062-61.699-67.628L311.643 4"/>
  <path stroke="#FFCF2D" stroke-miterlimit="10" stroke-width="6" d="m306.678 61.547 3.845-.567c6.328-.935 12.196 3.447 13.131 9.76l3.355 22.858c1.134 7.707 9.407 12.119 16.44 8.749l16.041-7.676"/>
  <path fill="#FFCF2D" d="M379.945 99.052a65.955 65.955 0 0 1 4.597 2.728 13.634 13.634 0 0 1-1.379 3.922 13.182 13.182 0 0 1-2.513 3.309 62.572 62.572 0 0 1-4.811-2.344c-8.197-4.428-13.911-9.713-12.778-11.813 1.134-2.099 8.687-.23 16.884 4.198Z"/>
  <path stroke="#66B0F0" stroke-miterlimit="10" stroke-width="6" d="M361.315 96.095a1.854 1.854 0 1 0 0-3.707 1.854 1.854 0 0 0 0 3.707Z"/>
  <path fill="#FE5244" d="M179.023 309.689v57.394h-66.326v-33.814c1.44 3.769 18.324 1.363 36.342-5.531 16.21-6.205 28.727-13.835 29.984-18.049Z"/>
  <path fill="#66B0F0" d="M179.023 308.019c-1.271 4.214-13.774 11.844-29.999 18.049-18.002 6.894-34.886 9.3-36.342 5.531-1.455-3.769 13.1-12.303 31.118-19.198 18.002-6.894 33.783-9.422 35.223-5.653.153.383.153.812 0 1.271Z"/>
  <path fill="#fff" stroke="#FFCF2D" stroke-miterlimit="10" stroke-width="5" d="M164.973 269.962v48.629l-3.662 1.854c-3.708 1.808-7.86 3.6-12.272 5.286-8.105 3.11-15.995 5.301-22.338 6.435l3.646-14.326 5.945-23.38a9.422 9.422 0 0 1-7.278-3.432l-24.407-27.762c4.183-3.815 10.434 1.379 10.434 1.379l-2.344-11.966a9.146 9.146 0 0 1 2.222-7.905l7.415-8.136c1.471-1.609 4.121-.981 4.734 1.103l5.271 18.186s13.084 9.99 15.535 9.99c2.774 0 3.739-2.252-1.44-9.653-3.891-5.561 0-9.621 0-9.621l12.671 10.663a16.591 16.591 0 0 1 5.868 12.656Z"/>
  <path stroke="#FFCF2D" stroke-miterlimit="10" stroke-width="5" d="m137.043 267.127-9.269-7.415-5.071-17.497c-.583-2.007-3.049-2.605-4.459-1.057m12.732 29.232-8.059-6.557-4.795-16.562c-.552-1.9-2.973-2.467-4.306-.996m10.036 25.786-8.825-7.4m21.266 29.799h10.311"/>
  <path fill="#FFCF2D" d="M164.973 306.058v12.855c-4.566 2.42-10.005 4.872-15.934 7.155-8.12 3.11-16.011 5.301-22.369 6.434l3.677-14.34c4.075-1.961 8.641-3.922 13.467-5.761 7.799-2.972 15.184-5.148 21.159-6.343Z"/>
  <path stroke="#FFCF2D" stroke-miterlimit="10" stroke-width="6" d="m154.586 144.174 4.658 10.22a6.903 6.903 0 0 1-6.037 7.66c-3.784.444-6.48 3.876-6.036 7.661l.674 5.669"/>
  <path fill="#FE5244" d="m208.485 111.341 24.545-38.303-84.42-.674-27.655 73.633 45.657-2.145 41.873-32.511Z"/>
  <path stroke="#FFCF2D" stroke-miterlimit="10" stroke-width="6" d="m234.042 70.157-88.266-.995-29.309 77.28"/>
  <path fill="#66B0F0" stroke="#fff" stroke-miterlimit="10" stroke-width="6" d="M206.97 105.595c4.902 8.412-3.432 22.415-18.631 31.271-15.199 8.855-31.485 9.208-36.388.797-.674-1.15-1.088-2.391-1.287-3.724-1.225-8.411 6.787-19.902 19.918-27.547 13.13-7.645 27.072-8.963 33.783-3.754a10.471 10.471 0 0 1 2.605 2.957Z"/>
  <path stroke="#fff" stroke-linecap="round" stroke-miterlimit="10" stroke-width="5" d="m203.078 98.915 3.892 6.68a10.471 10.471 0 0 0-2.605-2.957c-6.711-5.209-20.653-3.891-33.783 3.754-13.13 7.645-21.128 19.136-19.918 27.548a9.996 9.996 0 0 0 1.287 3.723l-3.891-6.68c-4.903-8.412 3.432-22.415 18.63-31.271 15.183-8.84 31.485-9.208 36.388-.797Z"/>
  <path fill="#FFCF2D" d="M146.526 196.036a64.07 64.07 0 0 1-1.915 4.995 13.099 13.099 0 0 1-4.09-.705 13.385 13.385 0 0 1-3.693-1.915 60.517 60.517 0 0 1 1.486-5.132c2.973-8.825 7.201-15.352 9.469-14.602 2.267.766 1.7 8.534-1.257 17.359Z"/>
  <path stroke="#66B0F0" stroke-miterlimit="10" stroke-width="6" d="M148.09 178.708a1.854 1.854 0 1 0 0-3.708 1.854 1.854 0 0 0 0 3.708Z"/>
  <path fill="#66B0F0" d="M68.988 304.372v62.71H.104v-92.295c1.348 4.52 15.765 13.942 33.66 21.817 19.044 8.412 34.825 11.874 35.224 7.768Z"/>
  <path fill="#9A3B82" d="M68.987 302.702c-.413 4.106-16.179.628-35.223-7.768-17.895-7.89-32.312-17.313-33.66-21.817a1.925 1.925 0 0 1-.093-.812c.399-4.106 16.18-.628 35.224 7.768 19.044 8.396 34.166 18.523 33.752 22.629Z"/>
  <path fill="#A0505A" d="M28.22 212.751a9.797 9.797 0 0 1 8.81-5.515h10.83l.567 43.543 7.553 40.019 2.406 12.716c-6.374-1.409-15.076-4.366-24.606-8.564-5.393-2.375-12.15-5.899-16.654-8.381v-52.981c0-.72.138-1.44.383-2.114l10.71-18.723Z"/>
  <path fill="#73325A" d="M58.371 303.514c-6.373-1.409-15.076-4.366-24.605-8.564-5.394-2.375-12.15-5.899-16.655-8.381v-13.314c4.918 1.578 12.196 4.213 18.125 6.818 7.998 3.524 14.984 7.155 20.745 10.725l2.39 12.716Z"/>
  <path fill="#fff" stroke="#FFCF2D" stroke-miterlimit="10" stroke-width="5" d="M98.712 158.285 41.089 264.308c-2.13 3.922-7.998 4.857-13.1 2.083-5.102-2.773-7.507-8.196-5.377-12.134l57.623-106.023 18.477 10.051Z"/>
  <path fill="#66B0F0" stroke="#FFCF2D" stroke-miterlimit="10" stroke-width="5" d="M98.7 158.311c2.134-3.926-.27-9.355-5.37-12.126-5.1-2.772-10.965-1.837-13.098 2.088-2.133 3.926.272 9.355 5.371 12.127 5.1 2.771 10.964 1.836 13.098-2.089Z"/>
  <path fill="#FE5244" d="m61.066 198.871 27.226-22.231-.429 7.905 8.718 2.176-19.856 12.257c5.331-.919 11.751-1.67 17.037-1.256 6.297.49 4.183 7.859 1.823 14.156 5.516-.536 24.008-11.736 30.979-9.621 4.26 1.287 2.728 9.974 1.502 14.769 1.777.092 10.771-.015 10.771-.015l-4.75 4.336 2.605 4.336c-10.112.444-10.235-1.149-8.963-8.32.214-7.798-8.427-.306-26.828 4.091-9.116 2.176-7.936-3.754-5.684-9.928-.904-2.834-7.66-5.914-29.37-.245l-4.78-12.41Z"/>
  <path fill="#fff" stroke="#FE5244" stroke-miterlimit="10" stroke-width="5" d="M61.465 212.415a8.044 8.044 0 1 0 0-16.087 8.044 8.044 0 0 0 0 16.087Z"/>
  <path fill="#A0505A" d="M58.691 207.236v.505a9.328 9.328 0 0 1-9.33 9.331h-9.79v-9.836h19.12Zm11.919 18.891-2.59 6.067-3.017 7.094-1.64 3.845-2.497 5.868a4.215 4.215 0 0 1-.23.46c0 .015-.015.015-.015.031-.797 1.379-2.344 2.237-4.045 2.237H36.735c-2.405 0-4.045-2.283-3.156-4.382l1.44-3.386 3.172-7.446 2.727-6.42 2.405-5.638c.705-1.655 2.405-2.743 4.305-2.743H67.47c2.39.031 4.03 2.314 3.141 4.413Z"/>
  <path stroke="#73325A" stroke-linecap="round" stroke-miterlimit="10" stroke-width="5" d="M41.746 230.126a4.448 4.448 0 0 1 3.31-1.471h18.952c1.992 0 3.432 1.716 3.233 3.539m-28.069 4.351a4.424 4.424 0 0 1 3.14-1.287h18.953c2.176 0 3.677 2.023 3.126 4.014M36.2 243.976a4.455 4.455 0 0 1 3.063-1.21h18.953c2.237 0 3.784 2.175 3.064 4.228"/>
  <path fill="#FFCF2D" d="M104.732 47.926a62.566 62.566 0 0 1 3.8-3.769 13.285 13.285 0 0 1 3.447 2.329 13.656 13.656 0 0 1 2.574 3.264 61.576 61.576 0 0 1-3.478 4.06c-6.343 6.817-12.885 11.03-14.647 9.407-1.747-1.624 1.961-8.473 8.304-15.29Z"/>
  <path fill="#66B0F0" d="m60.208 101.918-2.022 1.257c-7.339 4.55-21.634-5.24-31.914-21.864-10.296-16.623-12.686-33.768-5.362-38.318l2.083-1.287 12.395 36.465 24.82 23.747Z"/>
  <path fill="#66B0F0" stroke="#fff" stroke-miterlimit="10" stroke-width="6" d="m80.739 121.575-20.53-19.657-24.837-23.763-12.394-36.45L11.9 9.119l51.587 41.566 17.252 70.891Z"/>
  <path stroke="#9A3B82" stroke-miterlimit="10" stroke-width="6" d="M82.347 119.63 65.218 48.861 12.988 7.724"/>
  <path stroke="#FFCF2D" stroke-miterlimit="10" stroke-width="6" d="M53.482 71.46c-1.318-5.455 2.037-10.955 7.492-12.273a10.149 10.149 0 0 1 12.057 6.757l4.306 13.896c2.374 7.691 13.452 7.094 15-.812l2.481-12.762"/>
  <path stroke="#66B0F0" stroke-miterlimit="10" stroke-width="6" d="M95.4 66.618a1.854 1.854 0 1 0 0-3.707 1.854 1.854 0 0 0 0 3.707Z"/>
</svg>
