<svg xmlns="http://www.w3.org/2000/svg" width="856" height="642" fill="none" viewBox="0 0 856 642">
  <path fill="#D0F0E4" d="m850.783 646.181-268.236.478c-32.878.228-67.804.341-104.027.341-88.168 0-168.76-.728-230.398-1.934H0c0-43.822 48.236-24.573 60.956-16.837 14.789 8.988-4.255-38.862 25.938-38.862 25.848 0 40.637 12.992 40.637 12.992s.705-25.256 25.21-25.62c24.506-.364 40.069 21.229 59.409 38.999 7.986 7.326 17.588 13.151 26.666 17.588 62.731-1.32 147.008-2.139 239.704-2.139 43.914 0 85.916.182 124.664.523 68.851 0 131.9-36.2 149.784-45.278 44.186-22.48 23.253 31.103 23.253 31.103s34.062-14.334 58.021-14.221c33.834.137 16.541 42.867 16.541 42.867Z"/>
  <path stroke="#FFCF2D" stroke-miterlimit="10" stroke-width="6" d="M711.605 644.861s6.781-61.023-37.36-80.659c0 0-6.508 66.393 15.517 62.047 8.259-1.638-9.465-17.747-38.362-18.43 0 0 22.139 37.202 49.033 37.725"/>
  <path stroke="#FFCF2D" stroke-miterlimit="10" stroke-width="6" d="M700.523 645.453s2.549-27.918 29.761-36.61c24.574-7.827-18.43 35.927-18.43 35.927"/>
  <path stroke="#FE5244" stroke-miterlimit="10" stroke-width="5" d="M89.466 642.905s-39.021-26.735-50.01-70.353c0 0 34.538 10.33 49.191 32.31 0 0 6.007-50.034 20.524-66.872 0 0 7.849 11.286 8.828 53.106 0 0 17.793-30.307 31.035-40.091 0 0-1.82 39.431-11.286 59.568 0 0 13.675-10.649 22.913-.205 9.238 10.443-8.874 25.734-8.874 25.734"/>
  <path stroke="#FE5244" stroke-miterlimit="10" stroke-width="5" d="M109.194 539.469s.387 91.149-3.755 102.958"/>
  <path stroke="#FE5244" stroke-miterlimit="10" stroke-width="5" d="M147.76 553.303s-27.212 69.92-42.321 89.124m31.901-31.536c-1.001 3.663-7.895 13.766-9.26 9.42-1.343-4.346 11.058-11.377 14.175-12.537m-53.585-2.89c1.843 3.55 8.077 13.516 1.774 13.265-4.118-.159-.66-21.069-.66-21.069"/>
  <path fill="#A0505A" d="M603.092 567.979c-15.472 7.577-14.016 22.116-14.153 31.877-.159 10.398-20 15.836-20 15.836 5.279-16.632 1.525-33.765 1.525-33.765l32.628-13.948Z"/>
  <path fill="#FFCF2D" d="m619.498 606.272-3.526 1.911-7.395-16.905a2.343 2.343 0 0 0-2.139-1.411 2.61 2.61 0 0 0-.91.182 2.298 2.298 0 0 0-1.388 1.843l-3.254 24.505-42.798 23.299c-1.274-3.048 6.667-10.693 10.876-24.004 0 0 19.863-5.438 20-15.836.136-9.761-1.297-24.323 14.152-31.877l3.254-1.388c17.747 8.168 13.128 39.681 13.128 39.681Z"/>
  <path fill="#fff" stroke="#9A3B82" stroke-miterlimit="10" stroke-width="5" d="M606.344 446.545v120.046l-35.404 15.358-26.53-120.523c11.877.455 31.672-2.048 61.934-14.881Z"/>
  <path stroke="#9A3B82" stroke-miterlimit="10" stroke-width="5" d="m580.316 457.103 6.986 117.702"/>
  <path fill="#9A3B82" d="M606.344 446.545v31.422l-60.25-8.714-1.684-7.827c11.877.455 31.672-2.048 61.934-14.881Z"/>
  <path fill="#FFCF2D" d="m784.782 365.089-22.89 4.824a2.248 2.248 0 0 1-2.093-.66 2.235 2.235 0 0 1-.592-1.502c0-.591.228-1.183.706-1.615l12.741-11.945-2.821-2.526s-29.579 5.802-31.263 24.255l2.253 2.457c11.627 11.422 24.164 5.529 32.924 2.571 8.373-2.821 18.361 10.171 20.341 12.856h.091c13.197-.433 22.548 4.255 24.846 2.139l-34.243-30.854Z"/>
  <path fill="#A0505A" d="M740.846 378.377c11.627 11.422 24.163 5.529 32.923 2.571 9.329-3.14 20.455 12.856 20.455 12.856-16.518.523-30.602 9.283-30.602 9.283l-22.776-24.71Z"/>
  <path fill="#fff" stroke="#9A3B82" stroke-miterlimit="10" stroke-width="5" d="M599.502 447.569s5.756 38.885 49.92 38.157c44.164-.728 113.72-82.867 113.72-82.867l-24.459-26.803-139.181 71.513Z"/>
  <path stroke="#9A3B82" stroke-miterlimit="10" stroke-width="5" d="M624.963 437.012c1.456 10.239 8.328 19.886 29.283 19.545 31.126-.501 75.108-41.343 98.362-65.415"/>
  <path fill="#FE5244" d="M792.267 296.739c-4.027-1.525-13.606 3.709-20.819 12.81-7.759 9.761-10.898 20.136-7.486 22.844l-109.283-58.111c-5.369-2.844-11.558 2.025-10.034 7.895l33.083 125.324c-112.059 72.719-147.986 50.921-147.986 50.921V46.592c0 .022 0 .022.023.045.956 2.435 11.217.728 22.935-3.845 10.785-4.187 19.022-9.329 19.545-12.014l.023-.023v129.761a22.469 22.469 0 0 0 11.49 19.613l208.509 116.61Z"/>
  <path fill="#FE5244" d="M792.267 296.739c-4.027-1.525-13.606 3.709-20.819 12.81-7.759 9.761-10.898 20.136-7.486 22.844l-109.283-58.111c-5.369-2.844-11.558 2.025-10.034 7.895l33.083 125.825c-28.487 18.498-52.059 30.375-71.376 38.566-30.262 12.81-50.057 15.336-61.934 14.881-10.353-.387-14.676-3.027-14.676-3.027V46.592c0 .022 0 .022.023.045.956 2.435 11.217.728 22.935-3.845 10.785-4.187 19.022-9.329 19.545-12.014l.023-.023v129.761a22.469 22.469 0 0 0 11.49 19.613l208.509 116.61Z"/>
  <path stroke="#fff" stroke-linecap="round" stroke-miterlimit="10" stroke-width="6" d="m635.52 264.179 128.441 69.67"/>
  <path fill="#FFCF2D" d="m586.809 181.813-14.403 83.709 73.515-50.626-59.112-33.083Z"/>
  <path stroke="#fff" stroke-linecap="round" stroke-miterlimit="10" stroke-width="6" d="m586.809 181.813-14.403 83.709 73.515-50.626"/>
  <path fill="#fff" stroke="#3FB1B5" stroke-linecap="round" stroke-miterlimit="10" stroke-width="5" d="M586.213 20.244 491.31 39.697c-3.504.729-7.122-2.389-8.055-6.962-.933-4.573 1.161-8.85 4.665-9.579l94.903-19.454 3.39 16.542Z"/>
  <path fill="#fff" stroke="#3FB1B5" stroke-linecap="round" stroke-miterlimit="10" stroke-width="5" d="M586.178 20.257c3.508-.72 5.593-5.005 4.657-9.572-.936-4.566-4.539-7.686-8.047-6.967-3.508.72-5.594 5.005-4.657 9.572.936 4.567 4.539 7.686 8.047 6.967Z"/>
  <path fill="#FE5244" d="M532.06 28.526s-30.694 34.494-27.349 42.093c4.369 4.346 7.918 6.257 7.395 7.873-.569 1.752-7.918 12.332-7.918 12.332l-.728-7.85-7.031 2.32s7.418-10.83 7.895-14.152c-3.049-2.32-9.26-7.144-9.055-10.512.227-3.572 11.103-16.268 18.998-25.028l-11.899 3.936-2.344-10.99 21.411-3.936 10.625 3.914Z"/>
  <path fill="#fff" stroke="#FE5244" stroke-miterlimit="10" stroke-width="5" d="M527.897 30.027a6.462 6.462 0 1 0 0-12.923 6.462 6.462 0 0 0 0 12.923Z"/>
  <path fill="#9A3B82" d="M572.244 30.779c-.524 2.684-8.76 7.826-19.545 12.013-11.718 4.55-21.98 6.28-22.935 3.845 0-.022 0-.022-.023-.045-.819-2.457 7.873-8.078 19.522-12.605 11.718-4.551 21.98-6.28 22.935-3.846.068.182.091.387.046.638Z"/>
  <path fill="#A0505A" d="m564.347 11.666-1.251 18.066-.592 8.646c-2.844 1.502-6.188 3.003-9.806 4.414-6.144 2.39-11.877 3.982-16.087 4.642v-16.52l17.27-3.549s.956-6.166 2.776-11.33c1.797-5.188 7.69-4.37 7.69-4.37Z"/>
  <path stroke="#73325A" stroke-linecap="round" stroke-miterlimit="10" stroke-width="4" d="M554.358 26.615c-.25 1.024-7.758 3.413-7.758 8.873"/>
  <path fill="#73325A" d="m563.096 29.731-.592 8.647c-2.844 1.501-6.188 3.003-9.806 4.414-6.144 2.389-11.877 3.981-16.087 4.641V39.97c3.368-1.98 7.759-4.072 12.651-5.984 5.097-2.002 9.92-3.458 13.834-4.255Z"/>
  <path fill="#A0505A" d="m551.787 20.699-19.272 4.414c-1.024.227-1.98-.592-1.98-1.73V11.69c0-1.57.956-2.936 2.344-3.39l19.044-6.212c1.206-.387 2.412.569 2.412 1.91v13.334c-.023 1.616-1.069 3.026-2.548 3.368Z"/>
  <path stroke="#73325A" stroke-linecap="round" stroke-miterlimit="10" stroke-width="4" d="M537.36 23.293a1.692 1.692 0 0 1-2.048-1.661V10.414c0-1.501.979-2.821 2.412-3.253m5.187 14.926c-1.047.227-2.048-.592-2.048-1.707V8.822c0-1.547.979-2.913 2.412-3.345m5.849 15.29c-1.047.227-2.048-.614-2.048-1.752V7.047c0-1.593.979-3.004 2.412-3.459"/>
  <path fill="#9A3B82" d="M783.797 319.356c-7.758 9.783-16.45 15.722-19.863 13.014-3.413-2.707-.273-13.06 7.486-22.844 7.235-9.101 16.791-14.334 20.819-12.81l.796.455c3.436 2.731-1.479 12.424-9.238 22.185Z"/>
  <path fill="#A0505A" d="m818.905 335.806-5.165 2.73a4.204 4.204 0 0 1-5.688-1.729l-5.438-10.102-8.237-2.822c.911.342 4.46 2.162 3.345 8.783l-19.34-7.213-6.644-2.48-6.302-4.027c1.478-3.003 3.504-6.234 6.029-9.397a47.24 47.24 0 0 1 6.712-6.894l6.576 4.596 6.735.728 10.944 1.16c1.752.182 3.436.774 4.915 1.707l8.737 6.212c1.274.91 2.116 2.275 2.321 3.822l1.774 12.423a2.414 2.414 0 0 1-1.274 2.503Z"/>
  <path stroke="#73325A" stroke-linecap="round" stroke-miterlimit="10" stroke-width="4" d="m806.186 315.579 7.576 5.392a4.985 4.985 0 0 1 2.025 3.322l1.548 10.034c.113.888-.319 1.752-1.115 2.162"/>
  <path stroke="#73325A" stroke-linecap="round" stroke-miterlimit="10" stroke-width="4" d="m801.498 317.376 7.577 5.392a4.989 4.989 0 0 1 2.025 3.322l1.547 10.035a2.11 2.11 0 0 1-1.115 2.161m-17.155-14.425-5.506-1.866"/>
  <path fill="#73325A" d="M791.488 307.979c-1.843 3.481-4.528 7.44-7.668 11.399-1.797 2.253-3.618 4.301-5.438 6.075l-6.644-2.48-6.302-4.027c1.478-3.003 3.504-6.234 6.029-9.397a47.24 47.24 0 0 1 6.712-6.894l6.576 4.596 6.735.728Z"/>
  <path fill="#FE5244" d="m592.807 121.062 48.669 21.593 17.36 50.785-35.267-25.21-16.451-20.091-14.311-27.077Z"/>
  <path fill="#9A3B82" d="M607.117 148.139s15.927 2.73 22.344 20.477l3.39-3.412s-6.166-17.27-22.457-21.707l-3.277 4.642Z"/>
  <path fill="#FFCF2D" d="M702.044 170.187c-5.461-3.095-10.512-4.801-12.128-4.187a2.02 2.02 0 0 0 .159-.91 1.904 1.904 0 0 0-1.888-1.752h-.159a1.923 1.923 0 0 0-1.752 2.048c0 .068.022.136.022.182l-5.779 3.708c-1.297.842-2.889.888-4.255.137-1.365-.751-2.161-2.116-2.161-3.663v-8.305c0-3.618-1.798-6.963-4.824-8.965s-6.826-2.321-10.148-.91l-11.012 4.915-4.187-12.264-48.919-21.684a.599.599 0 0 0-.796.319.6.6 0 0 0 .318.796l48.419 21.479 17.269 50.534c.091.251.319.41.569.41.069 0 .137-.023.205-.023a.63.63 0 0 0 .387-.773l-12.856-37.634 11.104-4.96c2.958-1.274 6.325-.978 8.987.796a9.492 9.492 0 0 1 4.278 7.964v8.305c0 2.002 1.047 3.777 2.799 4.732a5.326 5.326 0 0 0 2.593.683 5.355 5.355 0 0 0 2.89-.865l5.734-3.663c.341.319.796.501 1.274.501h.159c.41-.023.774-.182 1.047-.433 0 1.616 4.141 5.234 9.829 8.465a50.902 50.902 0 0 0 3.618 1.888 7.764 7.764 0 0 0 1.775-2.139 7.331 7.331 0 0 0 .91-2.616c-1.092-.683-2.253-1.411-3.481-2.116Zm-13.811-4.005a.922.922 0 0 1-1.002-.842.937.937 0 0 1 .842-1.001.935.935 0 0 1 1.001.842.935.935 0 0 1-.841 1.001Z"/>
  <path fill="#A0505A" d="m603.954 178.059-8.419 46.826 28.692-22.116v-29.192l-20.273 4.482Z"/>
  <path fill="#73325A" d="m603.953 178.059-1.047 5.87 12.696 25.484 8.624-6.644v-29.192l-20.273 4.482Z"/>
  <path fill="#fff" stroke="#9A3B82" stroke-miterlimit="10" stroke-width="4" d="M607.593 148.617s-14.357-3.573-18.84 4.755c-4.482 8.328 8.624 10.626 9.17 7.713.25-1.274-23.595-1.251-19.591 16.792 4.164 18.794 22.935 12.332 22.935 12.332l2.185-12.15 4.141-29.442ZM624 175.556s-21.434 27.941-2.594 39.818c15.108 9.511 18.999-3.891 14.949-5.734-4.392-2.002-14.471 35.768 16.564 35.655 31.104-.114 21.593-38.954 5.916-51.832-7.486-6.143-32.469-23.322-32.469-23.322L624 175.556Z"/>
  <path fill="#A0505A" d="m623.362 168.548 1.616 1.024a3.38 3.38 0 0 1 1.046 4.642l-.318.478c-1.001 1.57-3.072 2.047-4.642 1.046l-1.729-1.092c-1.911 1.365-13.402 9.033-20.501 1.411-6.894-7.395 9.033-29.033 9.033-29.033 13.516 4.232 18.794 16.246 18.794 16.246l-3.299 5.278Z"/>
  <path stroke="#73325A" stroke-linecap="round" stroke-miterlimit="10" stroke-width="4" d="M603.428 151.938s3.731 1.388 3.367 4.597c-.364 3.208-3.731 8.259-2.935 9.124.796.864 1.866 1.023 1.866 1.023m-3.206 1.935s2.775 1.547 6.552.955"/>
  <path fill="#73325A" d="M614.418 164.063c.322-.846.212-1.672-.246-1.847-.458-.175-1.09.369-1.413 1.215-.322.845-.212 1.672.246 1.847.458.174 1.09-.37 1.413-1.215Zm-10.507-4.819c.269-.705.172-1.396-.215-1.543-.388-.148-.92.303-1.188 1.008-.269.704-.172 1.395.215 1.543.388.148.919-.304 1.188-1.008Z"/>
  <path stroke="#73325A" stroke-linecap="round" stroke-miterlimit="10" stroke-width="4" d="M622.176 172.462a2.14 2.14 0 0 1 2.958-.66m-11.353-13.743s2.776.751 4.21 4.05"/>
  <path fill="#fff" stroke="#9A3B82" stroke-miterlimit="10" stroke-width="4" d="M617.926 152.53s-3.027 10.034 5.642 16.883c5.097 4.027 5.393-.819 5.393-.819s-.66-9.852-11.035-16.064Z"/>
  <path fill="#3FB1B5" d="M416.925 409.663c-2.389-8.715-41.842-.546-85.301 15.267-41.57 15.131-75.358 35.541-75.722 43.754l-22.799-166.302a4.753 4.753 0 0 0-4.71-4.073 4.73 4.73 0 0 0-3.367 1.388 4.727 4.727 0 0 0-1.388 3.368v142.024c-.273-3.89-10.307-7.008-22.639-7.008-12.332 0-22.344 3.118-22.64 7.008v-159.59a38.453 38.453 0 0 1 18.567-32.901l14.949-9.033 61.57-37.178 57.269-34.858V112.03c0 2.548 10.535 4.596 22.958 4.596 12.4 0 22.958-2.025 22.958-4.596v64.505c0 14.289-6.985 27.781-18.134 36.701l-34.835 24.891c-5.939 4.232-7.372 12.469-3.231 18.476 23.094 33.424 94.061 130.967 96.473 152.423.022.205.022.432.022.637Z"/>
  <path stroke="#fff" stroke-linecap="round" stroke-miterlimit="10" stroke-width="6" d="M330.033 166.433v17.519M211.92 243.565l75.927 50.785-14.357-87.963-16.451 9.738 3.868 36.064-32.628-18.863-16.359 10.239Z"/>
  <path stroke="#3FB1B5" stroke-linecap="round" stroke-miterlimit="10" stroke-width="5" d="M414.488 411.847c-2.73-7.531-38.907 1.16-82.388 16.974-43.482 15.813-76.86 35.813-74.107 43.344 2.73 7.532 40.569-.25 84.05-16.063 43.481-15.814 75.199-36.724 72.445-44.255Z"/>
  <path fill="#E57281" d="m315.474 568.957-2.503 4.369-2.775 4.869c-24.005 3.003-28.237-12.696-28.237-12.696l3.618-7.19c9.693 5.961 21.979 9.124 29.897 10.648Z"/>
  <path fill="#fff" stroke="#9A3B82" stroke-miterlimit="10" stroke-width="5" d="M401.937 454.714c-17.065 29.42-78.43 115.517-78.43 115.517s-3.208-.341-8.032-1.274c-7.918-1.547-20.205-4.687-29.92-10.648-2.253-1.388-4.346-2.913-6.235-4.619l44.483-90.33 11.24-23.686 6.234-13.151c.751-.273 1.502-.524 2.23-.774.364-.136.728-.25 1.115-.387 1.115-.386 2.207-.751 3.299-1.115.91-.295 1.797-.591 2.685-.91 2.707-.91 5.369-1.752 7.963-2.571 17.429-5.506 32.332-9.215 42.389-10.352 2.23 3.117 4.778 7.599 6.235 13.219 2.116 8.214 1.865 18.817-5.256 31.081Z"/>
  <path fill="#fff" stroke="#FE5244" stroke-miterlimit="10" stroke-width="5" d="M327.444 636.101c-.773 3.39-4.983 4.596-7.44 2.139l-54.994-54.812 17.201-17.952s3.982 15.676 28.009 12.696c19.409 29.306 19.363 48.487 17.224 57.929Z"/>
  <path fill="#FE5244" d="M325.192 639.559a10.74 10.74 0 0 1-10.967-1.979l-28.715-25.233a1.802 1.802 0 0 1-.204-2.458c.568-.705.523-1.752-.137-2.389l-2.344-2.275a1.72 1.72 0 0 0-2.343-.068l-.546.455c-.66.569-1.616.569-2.253 0l-15.426-13.402c-2.003-1.729-2.071-4.823-.182-6.666l2.684-2.594 55.336 55.859a4.38 4.38 0 0 0 5.529.591l-.432.159Z"/>
  <path stroke="#FE5244" stroke-linecap="round" stroke-miterlimit="10" stroke-width="5" d="M317.707 585.499s4.665 4.141-6.484 9.169m9.42-4.187s4.664 4.142-6.485 9.17m9.42-4.187s4.665 4.141-6.484 9.17"/>
  <path fill="#9A3B82" d="M407.192 423.633c-14.79-.023-29.943 2.548-44.551 6.598-1.16-4.095-2.798-7.349-4.073-9.465 17.429-5.506 32.333-9.215 42.389-10.352 2.253 3.14 4.801 7.622 6.235 13.219Z"/>
  <path fill="#E57281" d="m252.972 566.659-4.391 5.62-3.458 4.414c-24.187-.478-26.121-16.61-26.121-16.61l5.256-7.531c9.124 7.327 21.456 11.877 28.714 14.107Z"/>
  <path fill="#fff" stroke="#9A3B82" stroke-miterlimit="10" stroke-width="5" d="M363.14 448.639c-1.32 5.62-4.141 11.672-9.329 17.906-21.297 25.643-94.835 101.775-94.835 101.775s-28.714-6.462-40.978-21.934l49.511-70.33 18.27-25.961c12.606-6.712 28.624-13.834 46.326-20.296a659.301 659.301 0 0 1 26.462-9.033 40.801 40.801 0 0 1 4.072 9.465c1.457 5.052 2.162 11.377.501 18.408Z"/>
  <path fill="#fff" stroke="#FE5244" stroke-miterlimit="10" stroke-width="5" d="M253.862 636.488c-1.251 3.254-5.574 3.846-7.667 1.047l-46.576-62.139 19.591-15.313s1.683 16.132 25.893 16.61c15.039 31.786 12.241 50.762 8.759 59.795Z"/>
  <path fill="#FE5244" d="M251.153 639.401c-3.89.887-7.963-.478-10.557-3.504l-24.801-29.033a1.799 1.799 0 0 1 .137-2.458c.682-.614.75-1.661.204-2.389l-2.002-2.571a1.763 1.763 0 0 0-2.321-.409l-.591.387a1.74 1.74 0 0 1-2.23-.319l-13.424-15.404a4.507 4.507 0 0 1 .773-6.598l3.026-2.185 46.803 63.004c1.343 1.797 3.618 2.184 5.393 1.388l-.41.091Z"/>
  <path stroke="#FE5244" stroke-linecap="round" stroke-miterlimit="10" stroke-width="5" d="M251.972 585.157s4.028 4.756-7.736 8.146m10.398-2.799s4.028 4.756-7.736 8.146m9.922-2.799s4.027 4.755-7.736 8.146"/>
  <path fill="#9A3B82" d="M362.664 430.232c-9.511 2.639-18.794 5.893-27.6 9.419-38.02 15.313-67.167 36.109-67.531 36.36l18.271-25.962c12.605-6.712 28.623-13.833 46.325-20.295 3.095-1.115 6.144-2.207 9.17-3.277.751-.273 1.501-.523 2.23-.773.364-.137.728-.251 1.114-.387 1.115-.387 2.207-.751 3.3-1.115.91-.296 1.797-.592 2.684-.91 2.708-.91 5.37-1.752 7.964-2.571 1.251 2.184 2.89 5.438 4.073 9.511Z"/>
  <path fill="#fff" stroke="#3FB1B5" stroke-linecap="round" stroke-miterlimit="10" stroke-width="5" d="M223.136 448.161c0 3.959-9.897 7.19-22.116 7.19-12.218 0-22.116-3.208-22.116-7.19v-.159c.273-3.891 10.08-7.008 22.116-7.008 12.037 0 21.843 3.117 22.116 7.008v.159Z"/>
  <path fill="#E57281" d="M214.218 442.814v18.68a16.355 16.355 0 0 1-8.669 14.426l-9.079 4.823a15.231 15.231 0 0 1-7.19 1.798c-1.069 0-1.797-.887-1.797-1.82 0-.387.136-.797.409-1.138l3.39-4.095a.856.856 0 0 0-.659-1.411h-19.955l-3.64 4.596a10.237 10.237 0 0 1-7.987 3.868h-1.046a1.67 1.67 0 0 1-1.456-2.503l.409-.751a10.4 10.4 0 0 1-4.004.819h-1.047a1.67 1.67 0 0 1-1.456-2.502l8.168-9.011 5.666-2.229v.022l28.145-11.058v-13.287a67.671 67.671 0 0 1 8.601-.547c4.937-.022 9.488.478 13.197 1.32Z"/>
  <path stroke="#9A3B82" stroke-linecap="round" stroke-miterlimit="10" stroke-width="4" d="m163.547 467.319-6.826 11.718m32.832-1.502 4.186-5.119c.819-1.001.114-2.48-1.183-2.48"/>
  <path fill="#9A3B82" d="M214.217 442.814v11.672c-3.708.842-8.259 1.343-13.196 1.343-3.049 0-5.939-.182-8.601-.546v-13.288a67.678 67.678 0 0 1 8.601-.546c4.914.022 9.488.523 13.196 1.365Z"/>
  <path stroke="#3FB1B5" stroke-linecap="round" stroke-miterlimit="10" stroke-width="5" d="M376.155 109.595c0 2.571-10.057 4.596-22.457 4.596-12.401 0-22.458-2.025-22.458-4.596s10.057-4.687 22.458-4.687c12.4 0 22.457 2.138 22.457 4.687Z"/>
  <path fill="#E57281" d="M346.847 113.349c-2.776-.182-5.301-.455-7.486-.841V90.414c0-.728.16-1.456.478-2.116l7.145-14.744a7.912 7.912 0 0 1 7.121-4.46h8.76l-19.158 35.245c-.091.16-.159.319-.227.478-1.115 2.753.273 6.28 3.367 8.532Z"/>
  <path fill="#9A3B82" d="m363.323 104.407 2.821-4.914v13.333a90.385 90.385 0 0 1-7.736.66l4.915-9.079Z"/>
  <path fill="#fff" stroke="#FE5244" stroke-miterlimit="10" stroke-width="5" d="m404.598 27.252-46.643 85.824c-1.73 3.186-6.462 3.937-10.603 1.684-4.141-2.252-6.075-6.644-4.346-9.806l46.644-85.825 14.948 8.123Z"/>
  <path fill="#fff" stroke="#FE5244" stroke-miterlimit="10" stroke-width="5" d="M404.58 27.283c1.728-3.18-.218-7.577-4.347-9.82-4.13-2.245-8.878-1.487-10.606 1.693-1.728 3.18.218 7.577 4.348 9.82 4.129 2.245 8.877 1.487 10.605-1.693Z"/>
  <path fill="#FE5244" d="m376.02 58.742 22.047-18.248-.341 6.644 7.053 1.752-16.837 10.398c12.924-2.776 36.132-6.69 39.659.136 1.388 2.685-1.229 8.169-2.981 12.105-1.092 8.305 42.457-1.98 42.958-2.093l-6.712 6.211 6.712 3.823s-36.542 6.962-45.961 5.05c-5.325-1.091-1.092-8.236 2.616-13.469 1.138-4.027-7.918-5.347-45.574-1.251l-2.639-11.058Z"/>
  <path fill="#fff" stroke="#FE5244" stroke-miterlimit="10" stroke-width="5" d="M376.337 69.71a6.508 6.508 0 1 0 0-13.017 6.508 6.508 0 0 0 0 13.016Z"/>
  <path fill="#E57281" d="m381.434 85-2.094 4.914-2.457 5.733-1.32 3.118-2.025 4.755c-.045.137-.113.25-.182.387 0 0 0 .023-.022.023-.66 1.115-1.912 1.82-3.277 1.82h-16.064c-1.934 0-3.276-1.843-2.548-3.55l1.16-2.73 2.572-6.03 2.207-5.187 1.934-4.574c.568-1.342 1.956-2.207 3.481-2.207h16.064c1.979-.022 3.299 1.82 2.571 3.527Z"/>
  <path stroke="#9A3B82" stroke-linecap="round" stroke-miterlimit="10" stroke-width="4" d="M357.953 88.23c.66-.75 1.638-1.183 2.685-1.183h15.336a2.608 2.608 0 0 1 2.616 2.867m-22.727 3.526a3.596 3.596 0 0 1 2.549-1.046h15.335c1.752 0 2.981 1.638 2.526 3.254m-22.824 3.799a3.653 3.653 0 0 1 2.48-.978h15.336c1.82 0 3.072 1.752 2.48 3.413"/>
  <path fill="#E57281" d="M371.671 69.072v.41a7.55 7.55 0 0 1-7.554 7.553h-7.918v-7.963h15.472Z"/>
  <path fill="#FFCF2D" d="M179.391 247.069a42.305 42.305 0 0 1-2.23 3.049 7.199 7.199 0 0 1-2.343-1.047 7.276 7.276 0 0 1-1.843-1.797 47.771 47.771 0 0 1 2.002-3.208c3.686-5.461 7.645-9.215 8.874-8.396 1.228.819-.774 5.938-4.46 11.399Z"/>
  <path fill="#3FB1B5" d="m212.931 165.09-28.419 41.957c-.341.5.137 1.114.706.955l13.583-4.368a11.407 11.407 0 0 0-2.685 7.326v13.22c0 5.165-4.118 9.374-9.26 9.51a1.928 1.928 0 0 0-1.707-1.001 1.91 1.91 0 0 0-1.365.569 1.8 1.8 0 0 0-.546 1.365c0 1.047.865 1.912 1.934 1.912.956 0 1.752-.729 1.889-1.639 5.688-.25 10.261-4.96 10.261-10.716v-13.22c0-3.322 1.638-6.348 4.096-8.168l27.326-8.783 35.085-28.919h-50.898Zm-27.258 69.988a.706.706 0 0 1-.501.205.706.706 0 0 1-.501-.205.705.705 0 0 1-.204-.5.71.71 0 0 1 .204-.501.71.71 0 0 1 .501-.205c.205 0 .364.069.501.205a.672.672 0 0 1 .204.501c.023.205-.068.364-.204.5Z"/>
  <path fill="#3FB1B5" d="M182.032 206.956a.512.512 0 0 1-.341-.114.615.615 0 0 1-.16-.842l29.625-43.731h53.652c.341 0 .614.273.614.614a.612.612 0 0 1-.614.614h-53.015l-29.261 43.186a.569.569 0 0 1-.5.273Z"/>
  <path fill="#fff" d="m211.974 199.902-3.413-1.547.182-.523c.068-.205 1.729-5.029 5.824-10.148 3.8-4.756 10.467-10.603 20.728-11.604l.592-.046.592 4.301-1.206.159-.433-3.14c-9.51 1.092-15.745 6.598-19.317 11.081-3.208 4.004-4.892 7.918-5.415 9.283l2.389 1.092-.523 1.092Z"/>
  <path fill="#E57281" d="m229.261 233.076-6.894-22.525 16.132-7.896 6.644 5.051 11.422 8.669 3.459 34.449-30.763-17.748Z"/>
  <path fill="#9A3B82" d="m245.143 207.706-12.309 27.441-3.573-2.071-6.894-22.525 16.132-7.896 6.644 5.051Z"/>
  <path fill="#E57281" d="M231.467 212.029c-1.16.114-3.504-1.069-6.166-2.753l-3.117 2.526c-1.798 1.456-4.437 1.206-5.893-.592a4.202 4.202 0 0 1-.956-2.662c0-1.206.524-2.412 1.547-3.253l1.275-1.047c-3.345-2.503-5.962-4.665-5.962-4.665s5.802-17.428 24.346-19.203c0 0 9.829 20.318 10.489 22.252.66 1.957-9.01 8.738-15.563 9.397Z"/>
  <path fill="#FFCF2D" d="M218.157 204.248c-3.345-2.503-5.962-4.665-5.962-4.665s2.139-6.439 8.009-11.899c-6.143 6.12 3.027 12.946-2.047 16.564Z"/>
  <path stroke="#9A3B82" stroke-linecap="round" stroke-miterlimit="10" stroke-width="4" d="M221.389 192.507s.978-2.639 3.458-4.004m14.29-2.685s-3.436-.478-5.142.569c-1.707 1.046-1.707 6.462 1.023 9.852m1.64 3.39s-2.116 1.888-5.711.5"/>
  <path stroke="#9A3B82" stroke-linecap="round" stroke-miterlimit="10" stroke-width="4" d="M231.287 199.128s-.75 1.07-.705 2.276"/>
  <path fill="#9A3B82" d="M226.838 195.912c.364-.098.503-.757.311-1.473-.192-.716-.643-1.218-1.007-1.12-.364.098-.504.758-.311 1.474.192.716.643 1.217 1.007 1.119Zm10.172-4.453c.328-.088.448-.7.269-1.368-.179-.667-.59-1.137-.918-1.049-.328.088-.448.7-.269 1.368.179.667.59 1.137.918 1.049Z"/>
  <path stroke="#9A3B82" stroke-linecap="round" stroke-miterlimit="10" stroke-width="4" d="m226.486 210.641-5.256-4.095a1.516 1.516 0 0 0-1.957.091l-.318.295a1.472 1.472 0 0 0 0 2.139"/>
</svg>
